<svg width="24" height="28" viewBox="0 0 24 28" fill="none" xmlns="http://www.w3.org/2000/svg">
<path d="M12.0004 0.00561523L9.60181 1.38893L21.5849 8.31114L21.5933 13.8514L23.9919 15.2348V6.92923L12.0004 0.00561523Z" fill="#0A0A12"/>
<path d="M12.0003 11.0862L9.60174 12.4681V20.7751L12.0003 22.157V13.8514L21.5933 19.3918L12.0003 24.9321L7.20456 22.1654V11.0862L12.0003 8.31114L19.1947 12.4681V9.70292V9.69446L7.20456 2.7793L0.00878906 6.93629V20.7751L2.40738 22.1654V8.3196L7.20456 5.54592L9.60174 6.92924L4.80597 9.70292V23.5487L12.0003 27.6973L23.9919 20.7751V18.0084L12.0003 11.0862Z" fill="#0A0A12"/>
<path d="M14.3989 18.0084V20.7751L16.7961 19.3917L14.3989 18.0084Z" fill="#0A0A12"/>
</svg>
