<svg width="62" height="79" viewBox="0 0 62 79" fill="none" xmlns="http://www.w3.org/2000/svg">
<path fill-rule="evenodd" clip-rule="evenodd" d="M32.4562 62.7393L32.2314 62.9618C32.8579 63.5412 33.4843 64.1224 34.1125 64.7018L34.1939 64.6276C33.6153 63.9987 33.0366 63.3663 32.4562 62.7393Z" fill="#98A445"/>
<path fill-rule="evenodd" clip-rule="evenodd" d="M31.5312 14.3776C32.4889 14.3776 32.9124 13.9084 32.933 12.983C31.8217 12.8765 32.0241 13.9794 31.5312 14.3776Z" fill="#98A445"/>
<path fill-rule="evenodd" clip-rule="evenodd" d="M30.9702 23.0725L30.9578 22.6761C30.7029 22.4104 30.4338 22.0555 30.0934 21.9725C29.4839 21.822 29.5338 22.3812 29.4215 22.6761C29.3056 22.9819 29.2718 23.3306 29.2949 23.6517C29.3074 23.7945 29.5338 24.0173 29.6924 24.0373C30.4213 24.131 30.9684 23.6947 30.9702 23.0725Z" fill="#98A445"/>
<path fill-rule="evenodd" clip-rule="evenodd" d="M29.2881 25.2101C29.3355 25.9561 29.3848 26.6844 29.4322 27.416C29.4645 27.8694 29.8134 27.8838 30.2003 27.7857C31.3553 27.4963 31.3667 27.4578 31.1259 26.2937C31.0405 25.8854 31.16 25.2616 30.8983 25.1152C30.555 24.9239 29.9196 25.1152 29.4133 25.1442L29.2881 25.2101Z" fill="#98A445"/>
<path fill-rule="evenodd" clip-rule="evenodd" d="M35.3373 63.4401C35.3789 63.2366 35.4803 63.0231 35.4504 62.8331C35.319 61.9738 35.1826 61.1112 34.9913 60.2603C34.5655 58.3534 33.3712 56.919 32.0838 55.5452C30.823 54.1983 29.1164 53.6013 27.5995 52.6714C27.4747 52.89 27.3915 53.0363 27.3566 53.0918C26.9225 52.8026 26.5682 52.431 26.1457 52.3301C25.8447 52.2578 25.4588 52.5487 25.1128 52.6765C25.2874 52.853 25.4787 53.0246 25.6317 53.2196C25.7515 53.3743 25.8264 53.5627 25.9195 53.7375C25.7116 53.7325 25.4388 53.8149 25.3074 53.709C24.8982 53.3827 24.5672 52.9539 24.1564 52.626C23.9085 52.431 23.5659 52.3553 23.2648 52.2258L23.1201 52.4512C26.0326 55.8714 28.9434 59.2951 31.9607 62.8381C31.9873 62.5102 31.9774 62.3656 32.0173 62.2344C32.0772 62.0377 32.1354 61.7401 32.2668 61.6963C32.4231 61.6408 32.7641 61.7451 32.8356 61.883C33.0652 62.3336 33.481 62.3858 33.7355 62.152C34 61.9099 34.1147 61.4525 34.1929 61.0708C34.2328 60.8539 34.0682 60.5932 33.9966 60.3561C34.9181 61.1751 34.7867 62.3992 35.3373 63.4401Z" fill="#98A445"/>
<path fill-rule="evenodd" clip-rule="evenodd" d="M11.5909 55.0029C11.6265 55.2572 11.6333 55.6845 11.7436 56.0847C11.8573 56.4916 12.0659 56.8714 12.2288 57.2647L12.3425 57.6022C12.2305 58.3516 12.0575 59.0908 11.9828 59.842C11.8047 61.5731 11.1583 63.3314 12.2288 65.015C12.6275 65.6356 12.5851 66.5189 13.4131 67.0496C13.4131 66.1629 13.3571 65.3829 13.4266 64.6149C13.4945 63.857 13.693 63.1058 13.8542 62.2411C14.0255 62.4412 14.1443 62.5124 14.1443 62.587C14.1562 63.9672 14.1528 65.3456 14.1528 66.7258L14.1273 66.797C13.6082 67.9076 14.1833 68.7553 14.7703 69.6201C14.9536 69.888 14.9977 70.2423 15.1385 70.5407C15.3862 71.0748 15.3964 71.7971 16.1633 71.9531C16.6672 71.0274 15.9156 69.9541 16.6213 68.9164C16.8063 69.3132 16.981 69.5404 17.0133 69.7879C17.0998 70.4729 17.1422 71.163 17.1727 71.8548C17.1948 72.338 17.2898 72.7653 17.7462 73.0247C18.5232 73.4672 19.302 73.9081 20.079 74.3455L20.2232 74.4049C20.3946 74.2217 20.5422 74.0607 20.7577 73.8318C20.89 74.103 20.9697 74.3302 21.097 74.5235C21.2565 74.766 21.4041 75.0644 21.6382 75.2001C22.2694 75.568 22.9209 75.9207 23.6046 76.1614C24.0338 76.3106 24.6073 76.6921 24.9296 76.0851C24.7294 75.4917 24.5886 74.9796 24.3765 74.4981C24.2663 74.2455 24.0287 74.0539 23.7742 73.747L23.9473 73.6181C24.3681 73.7962 24.8533 73.8775 24.9856 74.4744C25.1706 75.3187 25.4081 76.1275 26.2734 76.6277C27.2031 77.1669 28.1193 77.35 29.1966 76.9939C28.859 76.2157 28.5434 75.4832 28.2262 74.7524L28.4671 74.5778C28.5926 74.7643 28.7267 74.9457 28.842 75.1373C29.1644 75.685 29.4715 76.2428 29.8074 76.7854L30.1501 77.0143C30.8661 76.9397 31.5803 76.8498 32.281 76.704C32.3913 76.6786 32.5033 76.3327 32.4948 76.1428C32.4745 75.7545 32.371 75.3679 32.3031 74.9813L32.4609 74.9745C32.8884 75.4561 33.3126 75.9359 33.7232 76.4022C33.9963 76.3581 34.2355 76.3259 34.4731 76.2818C34.7123 76.2394 34.9498 76.1902 35.189 76.1309C36.0356 75.9207 36.1069 75.6731 35.5165 75.0339L35.3129 74.7372C35.6386 74.4371 35.8304 74.3625 36.1697 74.7541C36.8432 75.5239 37.5151 75.5392 37.9274 74.7592C38.1615 74.3184 38.1734 73.6249 38.002 73.1451C37.6881 72.2854 37.1622 71.4987 36.7177 70.6696L36.4717 70.9799C36.3767 70.5306 36.4055 69.9405 36.1357 69.5624C35.5725 68.7791 34.8701 68.089 34.1897 67.3955C33.6366 66.8275 33.1141 67.014 32.9291 67.8025C32.9088 67.8838 32.8647 67.9618 32.7917 68.145C32.5847 67.9754 32.4422 67.855 32.2827 67.7228C33.2464 66.9818 33.2905 66.6766 32.6407 66.0052L32.4439 65.6966C31.8111 64.9641 31.1749 64.2385 30.4962 63.4619C30.3164 63.9282 30.218 64.2571 30.067 64.5623L29.7158 64.8658C29.6479 64.6963 29.5139 64.5216 29.5291 64.3622C29.5478 64.1554 29.6717 63.9502 29.7819 63.7637C30.0924 63.2618 29.9465 62.8278 29.6191 62.409C29.4732 62.2276 29.3357 62.036 29.1779 61.8664C28.6384 61.3018 28.0955 60.7423 27.4593 60.0861C27.2336 60.8423 27.0538 61.4476 26.8756 62.0512C27.0114 59.6775 26.8112 58.9789 25.7779 58.7907C25.5082 59.2316 26.4193 59.8725 25.3216 60.3286C25.3674 59.7606 25.3826 59.318 25.4437 58.884C25.5947 57.8124 25.3962 57.4733 24.6124 57.4801C24.5021 57.2444 24.3935 57.0138 24.2018 56.5984C24.061 57.28 23.9558 57.7768 23.8557 58.2719L23.5045 58.2549C23.4943 57.9684 23.4146 57.6649 23.4841 57.4004C23.7844 56.2423 23.4553 55.3573 22.3864 54.8147C22.2269 55.4031 22.0793 55.9575 21.9334 56.5136L21.6823 56.4424C21.7519 55.6048 22.1353 54.5875 21.7943 53.9737C21.4482 53.3464 21.041 52.3189 19.9603 52.3053C19.8873 52.4935 19.8245 52.6512 19.7652 52.8106L19.7397 52.8784C19.565 53.6618 19.509 53.7703 19.2765 53.6974C18.6284 53.4871 18.9644 52.9937 18.9983 52.6003L19.1832 52.2985C19.2256 51.9137 19.3851 51.4389 19.2222 51.1608C18.8643 50.5522 18.3485 50.0367 17.8768 49.5009C16.2345 47.6358 14.5854 45.7725 12.9227 43.9226C12.6886 43.6632 12.4138 43.4038 12.1033 43.2563C11.7928 43.1071 12.1745 42.5136 11.5129 42.5323C11.2957 42.5374 11.0531 41.7184 10.841 41.3183C10.03 41.4997 9.20886 41.5116 9.75347 42.7493C9.12742 42.0067 9.10876 41.9134 9.41075 41.5353C10.0351 40.7469 9.91974 40.323 8.97133 39.9144C8.46235 40.3061 7.97372 40.7215 7.44438 41.0758C7.26963 41.1962 6.99308 41.164 6.76574 41.2013C6.85905 40.9894 6.90486 40.7316 7.05586 40.5757C7.36464 40.262 7.77352 40.0382 8.05007 39.7025C8.1841 39.5431 8.19937 39.1599 8.09927 38.97C7.80406 38.4003 7.41554 37.8086 6.69787 37.8306C5.88859 37.8594 6.02941 38.7208 5.64937 39.2379C5.4831 39.226 5.25745 39.2091 4.84178 39.1785C5.27781 38.5766 5.64089 38.1222 5.94119 37.6322C6.05316 37.4491 6.13969 37.0727 6.04468 36.971C5.55775 36.4589 5.00466 36.0062 4.32771 35.4043C3.85945 37.2745 3.41833 39.031 3.01114 40.6689C3.3844 40.7978 3.61514 40.8775 3.94597 40.9894C2.46314 41.9524 2.38679 44.7602 3.06034 46.0437C3.23001 45.4096 3.37931 44.8518 3.56254 44.1685C3.56254 44.8976 3.57611 45.469 3.55236 46.042C3.54727 46.1997 3.4828 46.3981 3.37082 46.5049C2.77701 47.0644 3.1842 47.5392 3.36913 48.0377L3.5812 48.0496C3.7339 47.0695 3.88659 46.0844 4.04268 45.1027L4.21913 45.118C4.25645 45.5046 4.29548 45.8928 4.34637 46.41C4.66873 46.0302 4.89438 45.7691 5.17262 45.4469C4.90965 47.0984 4.67212 48.6192 4.39727 50.3453C4.61274 50.7539 4.93679 51.383 5.26424 52.0103L5.46614 51.9798C5.36434 50.4759 6.01923 49.2432 6.74029 48.0258C6.81494 48.4175 6.87093 48.799 6.80137 49.1533C6.64867 49.9435 6.42133 50.72 6.24488 51.5033C6.05147 52.3511 6.50276 53.6228 7.15087 54.0263C7.31035 53.0904 7.46644 52.1697 7.62253 51.2456L7.81085 51.2439C7.88041 51.5373 7.97372 51.8289 8.00935 52.1273C8.04498 52.3952 8.01784 52.6699 8.01784 52.9412L8.12472 52.9344C8.40127 52.346 8.68121 51.7577 8.95776 51.171L9.14948 51.2677C9.07313 52.5953 9.13081 53.9466 8.87293 55.2403C8.68121 56.2017 8.96115 56.9223 9.38191 57.6734L9.74329 57.9582L9.82642 57.5276C9.84678 57.0036 9.84169 56.4797 9.86375 55.9558C9.88241 55.4878 9.92652 55.0216 9.97063 54.557C10.03 53.9195 9.88241 53.1226 10.2082 52.675C10.8817 51.7492 11.0497 50.6437 11.5875 49.6891C11.8369 49.2517 12.0829 48.8091 12.3306 48.3666C12.2288 49.1805 12.0117 49.8926 11.8725 50.62C11.6927 51.5525 11.4993 52.4461 10.6069 53.0056C10.5186 53.0598 10.595 53.4142 10.6357 53.6228C10.7494 54.2365 10.9818 54.8486 10.9869 55.4624C10.9937 56.239 10.8223 57.0172 10.7273 57.7954C10.6883 58.0871 10.6662 58.3804 10.6069 58.6686C10.4694 59.3265 10.5797 60.449 10.9241 60.8694C11.1583 58.8009 11.3822 56.8324 11.5909 55.0029Z" fill="#98A445"/>
<path fill-rule="evenodd" clip-rule="evenodd" d="M58.9554 50.3131L58.9012 49.9631C59.2317 49.8935 59.5655 49.7627 59.8943 49.7644C60.3875 49.7695 60.5875 49.5843 60.5401 49.1018C60.4824 48.5361 60.5265 47.9415 60.3672 47.4081C60.0164 46.2155 60.0299 44.8004 58.6351 44.1566L58.4114 43.8865C59.2842 43.7896 59.1605 43.2987 59.0554 42.7177C58.8741 41.7443 58.5605 40.9509 57.464 40.7216C57.2572 40.6791 57.0911 40.4634 56.8996 40.3274C57.1538 40.0522 57.547 39.7329 57.5063 39.6547C57.1453 38.9956 56.7725 38.311 56.2522 37.7877C56.0488 37.5822 55.4522 37.7724 55.0353 37.7792C54.7726 37.7843 54.5099 37.7792 54.2506 37.7792L54.2184 37.4361C54.7709 37.2441 55.3234 37.0555 55.9301 36.8466C55.6844 36.5833 55.5081 36.4474 55.4014 36.2673C54.6794 35.1036 53.9608 33.9382 53.2642 32.7541C53.0642 32.4161 52.9371 32.1579 52.4778 32.4704C52.3422 32.5656 52.0032 32.3651 51.7558 32.2989C51.8761 32.1086 51.9626 31.881 52.1236 31.7366C52.2981 31.5786 52.5371 31.4987 52.7117 31.407C52.5269 30.6255 52.3608 29.9171 52.2185 29.3157C51.766 29.1119 51.3575 28.9284 50.949 28.7415L51.0101 28.5513C51.366 28.4256 51.7236 28.2965 52.0541 28.1792C52.0286 27.8599 52.032 27.6135 51.9863 27.3774C51.9371 27.1192 51.8439 26.8712 51.7676 26.6112C51.3728 26.6112 51.0084 26.6537 50.6626 26.5926C50.4948 26.5637 50.3626 26.3411 50.2135 26.2103C50.3711 26.0948 50.5169 25.9028 50.6847 25.874C51.5304 25.738 51.6236 25.5869 51.2575 24.8581C50.8999 24.802 50.5711 24.7527 50.2101 24.6967C50.6219 24.311 50.9321 24.0189 51.2422 23.725C50.9135 23.4616 50.5847 23.1966 50.2101 22.8942L50.4491 22.7074C50.6169 22.5477 50.7779 22.3744 50.9423 22.2096C50.7609 22.0754 50.5982 21.9089 50.3965 21.8155C50.205 21.7255 49.9559 21.7475 49.7745 21.6456L49.4559 21.2141C49.6271 21.1105 49.7915 20.9372 49.9728 20.9202C50.2186 20.8981 50.4745 20.9933 50.7863 21.0493C50.6253 19.8483 50.4762 18.7287 50.3237 17.6041L50.0593 17.599C50.0847 18.3346 50.0915 19.06 49.2813 19.3743C49.3356 18.0271 48.9051 16.8533 48.156 15.7881C47.8306 15.3192 47.4611 14.8826 47.0882 14.4002C47.7357 14.1012 48.9017 14.7212 49.1305 15.3192C49.3949 16.014 49.6542 16.7123 49.9152 17.4071L50.1881 17.3595C50.1525 16.9212 50.1965 16.4506 50.0576 16.048C49.8169 15.343 49.4983 14.6584 49.1407 14.0027C48.7831 13.3418 48.3543 12.7183 47.9238 12.1034C47.7221 11.8197 47.4645 11.575 47.2136 11.3372C46.9171 11.0535 46.6391 10.6917 46.2815 10.5507C45.6968 10.3213 44.9748 10.3723 44.4528 10.0648C43.4308 9.46682 42.1359 9.32072 41.3919 8.25557L41.2089 8.13665C40.392 7.81218 40.1174 7.10547 40.0106 6.33081C39.8717 5.35739 39.7937 4.37208 39.7056 3.39187C39.6632 2.9128 39.8056 2.16872 39.2005 2.18231C38.47 2.1993 38.6683 2.98585 38.6582 3.49889C38.6209 5.4933 38.5226 7.46562 36.9701 8.98436C36.6972 9.25277 36.3634 9.46003 36.0634 9.70465L35.8176 10.0002C35.7193 10.7053 35.2397 10.6475 34.7346 10.605C34.5296 10.5897 34.2397 10.5609 34.1279 10.6764C33.694 11.1062 33.3178 11.5988 32.9212 12.0643L33.0296 12.2767C33.6838 12.1374 34.333 11.9794 34.9939 11.8723C35.1922 11.8367 35.4143 11.9437 35.6295 11.9845C35.5566 12.1662 35.5346 12.3973 35.4075 12.5094C35.2329 12.6589 34.9736 12.6912 34.7668 12.8084C34.1872 13.1261 33.3737 13.2025 33.2517 14.0417C33.15 14.762 32.8534 15.2819 32.1839 15.6182C31.9805 15.7218 31.8856 16.0412 31.75 16.2672C31.6077 16.5084 31.4789 16.7615 31.345 17.0079L31.0874 16.9008C31.2941 16.4014 31.4992 15.9036 31.7077 15.4042L31.628 15.236C31.3314 15.394 30.8959 15.4823 30.7721 15.7286C30.5247 16.2179 30.4264 16.7921 30.3213 17.3425L30.601 17.7112C31.3196 17.436 31.0992 17.9558 31.1569 18.3329C30.2332 18.2769 29.9688 18.8596 29.8773 19.5748C29.823 19.9961 29.8264 20.4242 29.8078 20.8472C29.7925 21.1971 29.8146 21.5012 30.2942 21.5097C30.7196 21.5182 30.8247 21.3279 30.8738 20.927C30.9636 20.222 31.145 19.5306 31.2907 18.8324L31.528 18.8239C31.606 19.1059 31.75 19.3913 31.7433 19.6767C31.7348 20.4921 31.6484 21.3058 31.6229 22.123C31.6009 22.8772 31.6212 23.6366 31.6128 24.396C31.6043 25.2539 31.5246 26.1135 31.5806 26.9663C31.6534 28.1045 31.3636 28.4952 30.1603 28.7314C29.9315 28.7772 29.5739 28.9828 29.5586 29.1476C29.4858 29.7727 29.5281 30.4115 29.5281 31.1029C30.0078 30.9398 30.345 30.8277 30.7891 30.6782C30.8196 30.9908 30.8399 31.2405 30.8721 31.5735C29.5739 31.4902 29.1959 32.1732 29.2197 33.3148C29.2349 33.9858 29.0468 34.6721 30.2247 34.9473C28.9197 35.3194 28.4621 36.0091 28.6519 37.098C29.5451 36.8789 29.6078 36.8992 29.8196 37.5805C29.4722 37.5805 29.1332 37.662 28.8553 37.5635C28.4062 37.4055 28.1536 37.4938 28.0028 37.9287C27.5892 39.0873 27.174 40.2442 26.7622 41.4028L27.2147 41.746C27.4096 41.3145 27.6045 40.8864 27.7977 40.4532L28.135 40.7335C27.8587 41.2295 27.6977 41.9311 27.274 42.1707C26.7893 42.4459 26.5605 42.6361 26.4537 43.2069C26.2097 44.5711 26.1588 44.5609 27.5062 44.5643C27.274 44.8667 27.0961 45.3101 26.8961 45.3203C26.0571 45.3695 26.2181 45.9386 26.2114 46.4398C26.208 46.7507 26.2114 47.0632 26.2114 47.3962C26.6334 47.4438 27.0842 47.4404 26.5029 48.0672C26.0554 48.5548 26.2249 49.1698 26.7249 49.6352C26.9045 49.8068 27.0418 50.0769 27.0893 50.3233C27.1893 50.8142 27.2164 51.3205 27.2435 51.5685C28.9468 52.5555 30.4823 53.4491 32.0229 54.341C32.4026 53.8262 32.4043 53.816 33.4957 53.9706C33.6703 53.9961 33.8228 54.183 33.9838 54.2934C33.8262 54.3783 33.6737 54.5278 33.5076 54.5448C33.1313 54.5839 32.7517 54.5584 32.2839 54.5584C34.4652 57.2442 36.5312 59.8043 36.8701 63.2173C37.8684 63.2224 38.7056 62.3543 39.9089 63.0542C38.8666 63.642 37.8565 63.6861 36.6396 63.89C36.9125 64.2009 37.0684 64.5525 37.2938 64.6001C38.2463 64.8107 39.2208 64.9093 40.1767 65.0961C40.336 65.1284 40.4479 65.4053 40.5835 65.5667C40.4072 65.6109 40.2327 65.6771 40.053 65.6924L39.7039 65.6041C38.9717 65.4546 38.2429 65.3085 37.5142 65.1624L37.4091 65.5039C38.209 65.9133 39.0056 66.3261 39.8056 66.7304C40.1937 66.9275 40.6004 67.3046 40.9733 67.2723C41.7597 67.2027 42.5342 66.9495 43.2986 66.7219C43.785 66.5758 44.0274 66.7644 43.8681 67.1891C43.6494 67.7786 43.9596 67.8125 44.3494 67.7752C45.0816 67.6987 45.8103 67.5815 46.5561 67.4779C46.3493 66.9139 46.5289 66.7406 46.9984 66.7219C47.6374 66.6981 48.2763 66.6285 48.9119 66.586L49.3508 66.6234C50.0542 66.9258 50.6711 66.7593 51.2558 66.0509C50.8287 65.8657 50.4152 65.6822 50.0016 65.5005L50.0915 65.1318C50.5677 65.1318 51.044 65.1505 51.5219 65.125C52.1388 65.0893 52.8489 65.193 53.354 64.9195C53.9828 64.5848 54.4404 63.9274 55.0098 63.3786C53.9641 63.4585 52.9625 63.8747 52.0015 63.241C53.0761 62.9115 54.1523 62.6515 55.2437 62.5513C55.9623 62.4885 56.4623 62.0502 56.4216 61.1379C56.081 61.2008 55.7522 61.3095 55.4251 61.301C55.2302 61.2942 55.042 61.0988 54.8488 60.9884C54.9895 60.8049 55.1081 60.5892 55.2844 60.4465L55.7217 60.4176C56.7115 60.4006 57.4385 60.0626 57.7097 58.9855C57.8267 58.5251 58.1792 58.1293 58.3758 57.6842C58.6402 57.0896 58.8537 56.4764 59.0927 55.8563C58.6724 55.768 58.352 55.7 58.0283 55.6287C59.5842 55.2057 60.1282 54.4989 59.552 53.6224C59.6825 53.0397 60.6062 52.9972 60.3519 52.1189C60.2011 51.5974 60.4163 50.9688 60.4553 50.4897C59.8181 50.4133 59.3876 50.3657 58.9554 50.3131Z" fill="#98A445"/>
<path fill-rule="evenodd" clip-rule="evenodd" d="M38.0598 68.5033C38.231 70.0074 39.1652 70.8282 40.0451 71.6777C40.5994 72.2136 41.2149 72.6765 41.793 73.1835C42.2355 73.5701 42.6848 73.9534 43.0798 74.3841L42.9102 74.9352C41.693 75.3082 40.7961 76.1951 39.7399 76.8158C38.6243 77.4686 37.3172 77.7908 36.0948 78.2605C34.3367 78.9371 32.465 78.915 30.6391 78.9778C28.8132 79.0371 26.9449 78.993 25.1596 78.6505C23.6592 78.3622 22.208 77.6721 20.8127 76.9921C19.7056 76.4512 18.4782 75.8526 17.7492 74.9284C16.737 73.6464 15.3773 72.8121 14.3194 71.6455C13.7091 70.9689 13.3395 70.077 12.7732 69.3529C11.1389 67.2654 10.4845 64.7337 9.51811 62.3445C8.78909 60.5385 8.28048 58.6512 6.94113 57.1233C6.26129 56.3484 5.8544 55.3411 5.3034 54.4475C5.15082 54.2016 4.95246 53.9659 4.73036 53.776C3.58768 52.7959 2.86206 51.541 2.35514 50.1573C1.66512 48.2734 1.03275 46.3487 0.975104 44.3376C0.93272 42.9369 1.29723 41.5295 1.32605 40.122C1.35487 38.6264 1.87365 37.319 2.59758 36.0913C3.01634 35.3791 3.25369 34.6805 3.20113 33.8784C3.18757 33.663 3.04007 33.4375 3.07907 33.2408C3.14858 32.9 3.23165 32.4235 3.46731 32.298C3.66906 32.1878 4.10986 32.4523 4.40994 32.6151C4.60321 32.7253 4.70324 33.0102 4.90329 33.1187C5.99172 33.7241 6.6241 34.7619 7.41414 35.6589C8.71789 37.1427 9.88092 38.7536 11.4661 39.9881C12.0696 40.4612 12.524 41.1242 13.0547 41.6923C13.9108 42.6114 14.7907 43.505 15.6333 44.4343C16.0945 44.943 16.4827 45.5229 16.9456 46.0265C17.5542 46.6828 18.2391 47.2678 18.8325 47.9359C19.7955 49.028 20.7161 50.1573 21.6502 51.2714C21.9605 51.6479 22.2216 51.8446 22.7505 51.4952C23.2015 51.2019 23.7864 51.0493 24.3306 51.0001C24.7545 50.9645 24.7612 50.8356 24.7222 50.5083C24.5544 49.0805 24.3645 47.6561 24.2628 46.2249C24.2068 45.4364 24.3493 44.6377 24.3391 43.8441C24.3289 43.0183 24.4425 42.2502 24.7307 41.4617C25.5038 39.3437 26.2125 37.202 26.8737 35.045C27.1348 34.1921 27.2433 33.2849 27.3348 32.3929C27.4755 30.9906 27.5671 29.5848 27.6383 28.1808C27.7163 26.6885 27.6807 25.1861 27.8112 23.7007C27.9943 21.6455 28.213 19.5902 28.5589 17.5571C28.781 16.2531 29.0658 14.8863 29.6761 13.7383C30.2949 12.5784 31.3122 11.6136 32.2311 10.6368C33.2703 9.53632 34.4232 8.53923 35.4726 7.44549C35.832 7.07243 36.105 6.5705 36.2796 6.08044C36.6492 5.03079 37.0697 3.99979 37.1341 2.85009C37.1578 2.39564 37.6071 1.96323 37.8699 1.52234L38.0276 1.36294C38.4005 0.784701 38.7718 0.155589 39.5958 0.721959C40.1451 1.09841 40.7012 1.40025 40.8826 2.2108C41.2166 3.69117 41.7303 5.12575 42.2151 6.56881C42.3067 6.83843 42.5881 7.2064 42.8204 7.23862C43.5223 7.32849 43.8427 7.82025 44.2971 8.25096C44.8294 8.7512 45.5245 9.148 46.2145 9.40405C47.6217 9.92464 48.6287 10.8708 49.5629 11.9985C50.6293 13.2923 51.0328 14.8728 51.6533 16.3582C51.9313 17.0297 51.9585 17.803 52.106 18.5321L52.2145 18.795C52.9757 19.9565 52.9164 21.3131 53.1351 22.6035C53.4317 24.34 53.7081 26.0781 54.015 27.8111C54.2048 28.8896 54.4388 29.963 54.6473 31.0398C54.9067 32.3675 55.7409 33.3188 56.6038 34.304C57.4006 35.2146 58.0567 36.266 58.6586 37.319C59.1977 38.2652 59.6809 39.2691 60.0098 40.3052C60.4981 41.8568 60.9219 43.444 61.2084 45.0447C61.439 46.3521 61.5984 47.7155 61.4984 49.028C61.3356 51.1781 61.6543 53.3521 61.0965 55.4819C60.5879 57.4065 59.842 59.2277 58.801 60.915C57.7516 62.6175 56.6614 64.3013 55.5154 65.9411C55.2051 66.3938 54.6321 66.6685 54.1794 67.0213C53.842 67.2892 53.525 67.591 53.1571 67.7996C52.7417 68.0353 52.2823 68.1964 51.8313 68.3592C51.4668 68.4914 51.0684 68.5355 50.7141 68.6882C49.6375 69.1511 48.5796 69.6649 47.503 70.1227C47.2623 70.2211 46.9503 70.1465 46.6774 70.1736C46.0433 70.233 45.4109 70.3347 44.7785 70.3517C44.4446 70.3601 44.075 70.294 43.7749 70.1499C43.29 69.9159 42.8712 69.7446 42.2745 69.8209C41.4776 69.9226 40.6486 69.77 39.8348 69.6954L39.4788 69.3817C39.0126 69.0782 38.5345 68.795 38.0598 68.5033Z" fill="#98A445"/>
<path fill-rule="evenodd" clip-rule="evenodd" d="M38.6397 10.2821C38.8212 9.95088 38.9826 9.7827 38.9826 9.61282L38.6968 9.17453C38.5523 9.33932 38.3539 9.48541 38.2917 9.67568C38.2581 9.7827 38.448 9.96447 38.6397 10.2821ZM46.0985 19.1566C45.8918 18.9358 45.7506 18.7863 45.6127 18.6368L45.2816 19.1006C45.2866 19.245 45.5001 19.4437 45.6632 19.4998C45.7506 19.5287 45.9203 19.3044 46.0985 19.1566ZM46.8934 48.9109C47.7238 49.3441 48.3407 49.2456 48.729 48.6629C48.144 48.741 47.5691 48.8175 46.8934 48.9109ZM31.4759 37.563C31.9433 37.4322 32.4106 37.3031 32.8813 37.1723C32.5165 36.6422 32.0794 36.717 31.4759 37.563ZM50.3046 61.0199C50.7904 61.1558 51.1199 61.2696 51.4628 61.3307L51.8898 61.2118L51.8696 60.8874L51.4275 60.7413C51.1165 60.782 50.8139 60.8874 50.3046 61.0199ZM36.2182 29.6925C35.9929 29.9779 35.7609 30.1444 35.7845 30.2684C35.8181 30.4586 36.0215 30.6217 36.1526 30.7967C36.3089 30.6557 36.5678 30.53 36.5964 30.3652C36.625 30.2106 36.4098 30.0119 36.2182 29.6925ZM56.8503 58.5497C56.1678 58.6839 55.7106 58.7722 55.2012 58.8708C55.5105 59.4008 56.0367 59.1562 56.4519 59.2088C56.5309 59.219 56.6502 58.8912 56.8503 58.5497ZM29.7158 47.9849C29.156 47.5093 28.6484 47.0761 28.1727 46.6718C28.1306 47.6944 28.5727 48.1276 29.7158 47.9849ZM44.5654 45.5184C45.6849 46.2013 45.8228 46.1929 46.9036 45.2602C46.1287 45.3452 45.305 45.4352 44.5654 45.5184ZM32.5299 46.8145L32.3534 46.58C31.96 46.58 31.565 46.5427 31.1834 46.6055C31.0489 46.6259 30.9531 46.8977 30.8422 47.0557C30.9934 47.1151 31.1414 47.2154 31.296 47.2256C31.5347 47.2426 31.7936 47.2358 32.0172 47.1644C32.2054 47.105 32.3601 46.9351 32.5299 46.8145ZM38.8337 42.1632C38.6118 42.2414 38.3798 42.2906 38.1916 42.4113L38.284 42.8546C38.5849 43.2895 39.4674 43.5121 39.9062 43.2488C40.0507 43.1621 40.1112 42.9294 40.313 42.593C39.6019 42.8478 39.106 43.2895 38.6572 42.6627C38.6118 42.5964 38.7446 42.4011 38.8337 42.1632ZM45.4341 64.3051C45.8745 65.1596 46.515 64.8657 47.0277 64.8674C47.147 64.8674 47.2681 64.4801 47.4782 64.1182C46.9772 64.21 46.7251 64.2779 46.4696 64.3C46.1821 64.3221 45.8913 64.3051 45.4341 64.3051ZM37.7778 41.4854C37.2886 42.6576 36.2632 42.0545 35.4345 42.1071C35.801 42.9056 36.5692 42.8665 37.9812 42.0341C37.9106 41.837 37.835 41.6383 37.7778 41.4854ZM43.3716 65.3873C42.4 65.4977 41.5528 65.5928 40.677 65.6913C41.3948 66.5017 42.6118 66.4201 43.3716 65.3873ZM54.6484 43.3405C54.4281 42.9821 54.3525 42.7374 54.2617 42.7323C53.67 42.6916 53.0783 42.6882 52.4832 42.7119L52.2647 43.0279L52.6127 43.4C53.2262 43.4169 53.8432 43.3711 54.6484 43.3405ZM34.7145 14.1316L34.38 14.0687C34.0119 14.7924 33.6252 15.5076 33.2907 16.2499C33.2319 16.3807 33.4034 16.6186 33.4672 16.8071C33.6252 16.7256 33.8589 16.6831 33.9261 16.5523C34.227 15.9611 34.4977 15.3513 34.7381 14.7346C34.8036 14.563 34.728 14.3371 34.7145 14.1316ZM41.9919 57.2178L42.0053 57.5592C42.9584 57.6255 43.9099 57.69 44.8764 57.7563C44.9454 57.4709 44.9941 57.2772 45.0967 56.8559C43.9771 56.9884 42.982 57.1056 41.9919 57.2178ZM43.0758 11.0415C42.9161 11.1689 42.7497 11.3048 42.5833 11.4407C42.7413 11.6292 42.8623 11.9061 43.064 11.9962C43.5818 12.2238 44.1298 12.3767 44.671 12.5449C44.829 12.5958 44.9988 12.5975 45.1652 12.6213C45.1501 12.443 45.1736 12.251 45.1098 12.0896C44.7467 11.1892 43.8558 11.3455 43.0758 11.0415ZM37.796 10.6798C37.6481 10.5116 37.4884 10.1616 37.2682 10.1192C37.0413 10.0801 36.7252 10.3009 36.5202 10.4861C36.4731 10.532 36.695 10.887 36.7723 11.0552C36.6933 11.3083 36.6109 11.5665 36.5286 11.8247C36.7925 11.84 37.0581 11.8978 37.3153 11.8604C37.7893 11.7959 38.2583 11.6854 38.7256 11.5767C38.9206 11.5309 39.1055 11.4425 39.2955 11.3712C39.1963 11.1622 39.1341 10.8055 38.9878 10.7664C38.6012 10.6645 38.1827 10.6984 37.796 10.6798ZM50.9143 35.0148L51.2337 34.9673C51.2102 34.7923 51.1984 34.6156 51.1598 34.444C51.0757 34.0907 50.9698 33.7441 50.8841 33.3891C50.8387 33.2022 50.8353 33.0035 50.7731 32.8234C50.516 32.0606 50.1966 31.3183 49.9848 30.5436C49.7881 29.8148 49.6149 29.0623 49.5813 28.3114C49.5174 26.932 49.5544 25.5492 49.5662 24.1664C49.5696 23.7587 49.3998 23.4784 49.0115 23.6177C48.803 23.6907 48.4988 24.1426 48.5542 24.2564C49.0821 25.2808 48.6753 26.3663 48.8266 27.4026C48.9947 28.5883 49.188 29.7707 49.4334 30.9394C49.5578 31.5238 49.82 32.0793 50.0285 32.6467C50.3193 33.435 50.6202 34.2249 50.9143 35.0148ZM52.9132 41.3648C52.8174 41.1236 52.7854 40.8161 52.6358 40.7346C52.4913 40.6581 52.2223 40.811 52.0122 40.8705C51.8508 40.9146 51.6995 40.9826 51.5381 41.0149C50.506 41.2102 49.9832 40.4067 49.168 39.841C49.5596 39.7612 49.8034 39.7357 50.0286 39.6575C50.274 39.5726 50.506 39.4418 50.7414 39.328C50.4959 39.1904 50.2522 38.9424 50 38.9356C49.3949 38.9203 48.7796 39.0664 48.1762 39.0375C47.9089 39.0239 47.6551 38.7402 47.2768 38.5007C47.919 38.3376 48.309 38.2374 48.699 38.1371L48.6771 37.7838C48.277 37.7362 47.8736 37.6411 47.4752 37.653C47.1003 37.6615 46.707 37.9027 46.3624 37.833C45.5875 37.6768 44.8445 37.3727 44.0779 37.1722C43.772 37.0907 43.4291 37.0703 43.1147 37.1128C42.8222 37.1484 42.5466 37.303 42.2608 37.4084L42.0439 37.3013C42.9197 36.5878 41.9801 36.367 41.928 36.0103C41.4808 36.0833 41.0875 36.1869 40.6924 36.2022C39.7595 36.2328 39.6805 36.3041 39.8519 37.3132C39.3224 37.2487 38.8198 37.1535 38.3122 37.1416C38.0466 37.1348 37.7591 37.2453 37.5053 37.354L37.2346 37.7175C37.3859 37.8161 37.5305 37.9808 37.6885 37.9944C37.9743 38.0233 38.2668 37.9503 38.5609 37.9401L38.9745 38.0046C38.8013 38.2289 38.6215 38.2611 38.4483 38.3155C38.1357 38.4106 37.7961 38.465 37.5255 38.6315C36.9085 39.0171 36.3387 39.4605 35.5385 39.3823C35.3166 39.3603 35.0763 39.5471 34.7888 39.6575C35.32 40.2946 35.1855 40.7685 34.6459 41.1253C34.3097 41.3478 33.9113 41.4633 33.5634 41.6689L33.2188 42.0647C33.365 42.1666 33.5045 42.2873 33.6659 42.3603L34.0324 42.3892C33.7634 43.5427 32.9868 43.8756 31.9026 43.738V44.212C32.3581 44.3275 32.7784 44.4328 33.1868 44.5365L33.2036 44.8134C33.0086 46.2726 32.8221 47.7353 32.5884 49.1877C32.5649 49.3219 32.2371 49.4663 32.0303 49.502C31.5512 49.5818 31.0604 49.6005 30.5746 49.643L30.5477 49.9386C31.2201 50.0881 31.8925 50.2376 32.5363 50.382C32.9767 51.284 31.8874 51.2042 31.6706 51.848C32.7044 51.7631 33.0524 52.4477 33.3331 53.2189L33.6357 53.5485C33.9752 54.031 34.308 54.5236 34.6342 55.0146C34.7586 55.2014 34.8577 55.407 34.9687 55.604L35.2309 55.5021C35.0057 54.8634 34.9569 54.0429 34.5266 53.6165C33.407 52.5021 33.5365 51.0904 33.3818 49.7517C33.2944 49.0161 33.4642 48.2517 33.5146 47.4974C33.56 46.8162 33.7802 46.1486 33.95 45.5167C34.2929 44.2188 34.7854 42.9056 35.4847 41.7674C36.1975 40.6072 37.2817 39.7153 38.529 39.0613C39.2115 38.6994 39.9965 38.3359 40.4235 37.7447C40.8151 37.2011 41.148 36.9514 41.7834 36.9938C41.9733 37.6411 41.538 37.8449 41.0673 37.9367C40.4571 38.0624 40.3966 38.3953 40.5697 38.8982C42.7231 38.465 45.1134 39.2057 46.6465 40.7414C46.5725 40.9758 46.507 41.1949 46.4397 41.4107C47.06 40.9928 47.4651 41.0234 47.7929 41.6791C47.3239 41.8099 46.8986 41.9288 46.3305 42.0817C46.7137 42.2601 46.9457 42.3722 47.2062 42.4928C47.0819 42.6746 46.9759 42.8309 46.8717 42.9906C47.6299 43.4085 47.7458 43.3133 47.7795 42.3026C48.8217 42.3875 50.069 44.0897 49.6857 44.9017C49.2352 44.3462 48.8049 43.7533 47.8854 43.9164C47.9492 44.1135 47.9526 44.268 48.0282 44.3309C48.5712 44.7862 49.0738 45.3485 49.6941 45.6407C50.7851 46.1571 50.6371 47.0812 50.7632 48.0156C50.1194 47.6622 49.5512 47.3547 48.9847 47.0473C49.5596 47.9765 50.4102 48.6832 50.8489 49.5954C51.323 50.5807 51.2608 51.7512 50.8355 53.0525C50.3951 52.13 50.5178 50.9154 49.2604 51.126C49.5949 51.7274 49.9395 52.3509 50.2858 52.976C50.7094 53.7422 50.0404 54.2722 49.9009 54.9551C50.0774 54.8311 50.2522 54.7037 50.4405 54.5712C50.6943 55.3407 50.6758 55.373 49.1394 56.7252V54.1227L48.82 54.1125C48.8015 54.3605 48.7208 54.6238 48.7729 54.8566C49.0066 55.937 48.8267 56.7881 47.9745 57.2298C46.9171 57.7768 45.7925 58.2287 44.6495 58.5514C43.9989 58.7383 43.2492 58.6398 42.5533 58.565C42.0843 58.5175 41.6371 58.2422 41.1681 58.1539C40.02 57.9314 38.8198 57.8872 37.9272 56.9597C37.897 56.9274 37.7625 56.9987 37.5725 57.0463C37.8516 57.5373 38.0953 57.9704 38.3071 58.3476C37.9289 58.4971 37.5624 58.6432 37.196 58.791L37.28 59.1103C37.9423 59.022 38.6147 58.9931 39.2585 58.8266C39.7948 58.6907 40.2671 58.7128 40.7866 58.8827C41.733 59.1936 42.6441 59.6896 43.7165 59.3618C44.246 59.2004 44.8579 59.3006 45.3723 59.1171C46.7137 58.6313 48.0282 58.0554 49.3461 57.4982C49.5075 57.4319 49.6437 57.2739 49.7563 57.1278C50.269 56.4704 50.7397 55.7807 51.286 55.1573C51.4961 54.916 51.9634 54.6119 52.1399 54.7003C52.7484 54.9942 52.9888 54.6493 53.3771 54.1431C53.0359 54.0021 52.7518 53.8883 52.387 53.7405C52.4913 53.2954 52.619 52.745 52.7619 52.147C52.93 52.2116 52.9905 52.2353 53.051 52.2574C53.5402 52.4341 53.715 52.057 53.8798 51.7342C53.9504 51.5932 53.91 51.3877 53.9184 51.2127C53.6831 51.2585 53.4477 51.3078 53.209 51.352C52.8796 51.4063 52.6896 51.369 52.814 50.9324C52.9182 50.5552 52.9182 50.1475 52.9485 49.9046C53.5738 49.7262 54.1521 49.5632 54.7438 49.3933C54.7774 48.8904 54.7639 48.5252 54.1168 48.7783C53.6881 48.9482 53.2393 49.0603 52.8678 49.1758V46.3049C54.5925 45.6356 54.6513 45.5778 54.2344 45.0665C53.6461 45.2058 53.125 45.3281 52.6022 45.4504C52.1181 44.195 51.681 43.0653 51.2356 41.9152C51.7752 41.7386 52.2694 41.5738 52.9132 41.3648ZM58.5496 50.5945C58.9783 50.6471 59.4053 50.6947 60.0373 50.7711C59.997 51.2485 59.7835 51.877 59.9331 52.4003C60.1852 53.2768 59.2708 53.321 59.1397 53.9037C59.7112 54.7786 59.1733 55.4853 57.6301 55.9083C57.9495 55.9796 58.2689 56.0476 58.6858 56.1376C58.4471 56.756 58.2353 57.3709 57.9747 57.9638C57.7798 58.4106 57.4301 58.8047 57.3124 59.2668C57.0435 60.3438 56.324 60.6818 55.3423 60.6988L54.9086 60.726C54.7321 60.8687 54.6161 61.0845 54.4766 61.2696C54.6666 61.3801 54.8548 61.5737 55.0482 61.5805C55.3709 61.5907 55.6987 61.482 56.0366 61.4191C56.0752 62.3314 55.5793 62.7697 54.8666 62.8325C53.7857 62.931 52.7166 63.191 51.6509 63.5222C52.6057 64.1559 53.5975 63.7397 54.6363 63.6598C54.0715 64.2085 53.616 64.866 52.9923 65.2006C52.4914 65.4724 51.787 65.3705 51.1752 65.4045C50.7028 65.4317 50.2305 65.413 49.7564 65.413L49.669 65.7816C50.0792 65.9617 50.4893 66.1468 50.9129 66.332C50.3313 67.0404 49.7211 67.2069 49.0235 66.9045L48.5881 66.8671C47.9561 66.9096 47.3223 66.9792 46.6886 67.003C46.2247 67.02 46.0448 67.195 46.2499 67.759C45.5119 67.8626 44.7874 67.9798 44.0629 68.0563C43.6746 68.0919 43.3687 68.0597 43.5838 67.4702C43.7419 67.0455 43.5032 66.8569 43.019 67.003C42.2609 67.229 41.4927 67.4838 40.7127 67.5534C40.3446 67.584 39.9395 67.2086 39.5562 67.0115C38.7611 66.6055 37.9727 66.1944 37.1793 65.785L37.2818 65.4435C38.0047 65.5896 38.7292 65.734 39.4537 65.8835L39.8016 65.9719C39.9798 65.9566 40.153 65.8903 40.3278 65.8479C40.1933 65.6848 40.0823 65.4079 39.9243 65.3773C38.9746 65.1887 38.008 65.0919 37.065 64.8812C36.8414 64.832 36.6868 64.4803 36.4161 64.1712C37.6231 63.9673 38.6233 63.9214 39.6571 63.3354C38.4652 62.6338 37.6332 63.5035 36.6447 63.4967C36.3069 60.0839 34.2594 57.5238 32.096 54.838C32.5599 54.838 32.9365 54.8652 33.308 54.8261C33.4744 54.8091 33.6257 54.6597 33.7803 54.573C33.6223 54.4643 33.471 54.2757 33.2962 54.2519C32.2153 54.0974 32.2137 54.1075 31.8354 54.6223C30.3091 53.7304 28.7861 52.8369 27.0967 51.8499C27.0682 51.6001 27.043 51.0939 26.9438 50.603C26.8967 50.3583 26.7606 50.0882 26.5807 49.9166C26.0848 49.4512 25.9184 48.8345 26.3605 48.3487C26.9371 47.7218 26.4916 47.7252 26.0713 47.6776C26.0713 47.343 26.068 47.0321 26.0713 46.7195C26.0781 46.2184 25.9201 45.6493 26.7521 45.6017C26.9505 45.5915 27.1253 45.1465 27.3556 44.8458C26.0192 44.8424 26.0713 44.8526 26.3134 43.4884C26.4193 42.9177 26.6446 42.7274 27.1253 42.4505C27.5456 42.2127 27.7053 41.5111 27.9793 41.015L27.6464 40.7347C27.4548 41.1679 27.2598 41.596 27.0665 42.0258L26.6193 41.6826C27.0278 40.5258 27.4397 39.3689 27.8481 38.2086C27.9994 37.7754 28.2482 37.6871 28.6937 37.8451C28.9694 37.9436 29.3056 37.8604 29.6502 37.8604C29.44 37.1809 29.3778 37.1588 28.4936 37.3779C28.3054 36.289 28.7576 35.5993 30.0536 35.2273C28.8836 34.952 29.0719 34.2674 29.0568 33.5964C29.0316 32.4548 29.4081 31.7702 30.6941 31.8535C30.6638 31.5222 30.6419 31.2708 30.6134 30.9599C30.1729 31.1094 29.8384 31.2215 29.361 31.3846C29.361 30.6932 29.319 30.0545 29.3913 29.4276C29.4081 29.2645 29.7628 29.059 29.9897 29.0114C31.1832 28.777 31.469 28.3845 31.3967 27.2464C31.3412 26.3936 31.4202 25.5357 31.4303 24.6778C31.4387 23.9167 31.4169 23.1591 31.4404 22.4048C31.4656 21.586 31.5497 20.774 31.5581 19.9569C31.5648 19.6715 31.4219 19.3861 31.3446 19.1041L31.1109 19.1126C30.9664 19.8108 30.7848 20.5039 30.6974 21.2089C30.647 21.6098 30.5444 21.7984 30.1225 21.7899C29.6468 21.7831 29.6249 21.479 29.6401 21.129C29.6569 20.706 29.6535 20.2779 29.709 19.8566C29.7981 19.1415 30.062 18.5588 30.9765 18.6131C30.9193 18.2377 31.1378 17.7179 30.4251 17.9931L30.1477 17.6227C30.2536 17.074 30.3495 16.4998 30.5966 16.0106C30.7176 15.7643 31.1513 15.6759 31.4455 15.518L31.5245 15.6861C31.3177 16.1856 31.1143 16.6833 30.9075 17.1811L31.1647 17.2898C31.2975 17.0418 31.4236 16.7903 31.5648 16.5474C31.6993 16.3232 31.7951 16.0021 31.9968 15.9002C32.6591 15.5621 32.9533 15.044 33.0558 14.3237C33.1752 13.4845 33.9837 13.4081 34.557 13.0887C34.762 12.9732 35.0209 12.9392 35.1924 12.7914C35.3201 12.6793 35.3403 12.4465 35.4126 12.2665C35.1991 12.224 34.9789 12.1187 34.7822 12.1544C34.1283 12.2614 33.4845 12.4194 32.8356 12.5587L32.728 12.3463C33.1214 11.8792 33.4946 11.3865 33.9232 10.9567C34.0359 10.8429 34.3233 10.8718 34.5267 10.8854C35.0276 10.9295 35.5033 10.9873 35.5992 10.2823L35.8446 9.98671C36.1421 9.74208 36.4733 9.53483 36.7422 9.26472C38.282 7.74771 38.3812 5.77542 38.4165 3.78104C38.4266 3.26801 38.2316 2.47978 38.9544 2.46279C39.5562 2.4509 39.415 3.19496 39.4553 3.67232C39.5428 4.65252 39.6218 5.63952 39.7579 6.61292C39.8655 7.38757 40.1378 8.09426 40.9464 8.41703L41.1279 8.53764C41.8676 9.60278 43.1518 9.74888 44.1638 10.3468C44.6832 10.6543 45.3993 10.6017 45.9776 10.831C46.3322 10.972 46.6079 11.3355 46.9021 11.6192C47.1526 11.8571 47.4081 12.1 47.6064 12.3837C48.0351 13.0003 48.4604 13.6238 48.8151 14.2829C49.1698 14.9387 49.4841 15.625 49.7245 16.33C49.8623 16.7326 49.8186 17.2014 49.8539 17.6414L49.5833 17.6873C49.3227 16.9942 49.0655 16.296 48.805 15.6012C48.5764 15.0015 47.4215 14.3832 46.7794 14.6821C47.1492 15.1646 47.514 15.6012 47.8384 16.0684C48.5797 17.1352 49.0067 18.3091 48.9546 19.6562C49.7564 19.3419 49.7497 18.6148 49.7262 17.881L49.9884 17.8861C50.1397 19.0107 50.2876 20.1302 50.4456 21.3312C50.138 21.2751 49.8842 21.18 49.6404 21.2021C49.4606 21.2174 49.2975 21.3923 49.126 21.496L49.4438 21.9258C49.6219 22.0294 49.8707 22.0056 50.0607 22.0973C50.259 22.1908 50.4221 22.3556 50.6003 22.4898C50.4389 22.6545 50.2792 22.8295 50.1111 22.9875L49.8758 23.1761C50.2456 23.4785 50.5734 23.7435 50.8978 24.0068C50.5902 24.3007 50.2842 24.5929 49.8758 24.9768C50.2338 25.0345 50.5599 25.0838 50.9146 25.1399C51.2777 25.8686 51.1853 26.0198 50.3464 26.1557C50.1783 26.1829 50.0338 26.3766 49.8791 26.4921C50.0254 26.6229 50.1582 26.8454 50.3229 26.8743C50.6658 26.9355 51.0272 26.8913 51.4206 26.8913C51.4962 27.1529 51.587 27.401 51.6374 27.6592C51.6828 27.8936 51.6795 28.1416 51.7047 28.461C51.3752 28.5782 51.0205 28.7073 50.6675 28.833L50.607 29.0216C51.0121 29.2102 51.4189 29.3936 51.866 29.5975C52.0073 30.1988 52.1737 30.9072 52.3552 31.6887C52.1838 31.7787 51.9451 31.8603 51.7719 32.0182C51.6139 32.1626 51.5265 32.3903 51.4088 32.5805C51.6526 32.6468 51.9888 32.8456 52.1249 32.7521C52.5805 32.4395 52.7049 32.6961 52.9032 33.0358C53.5958 34.2199 54.3068 35.3835 55.0229 36.5489C55.1305 36.7273 55.3037 36.8632 55.5491 37.1282C54.9456 37.3371 54.3993 37.5257 53.8513 37.716L53.8815 38.0608C54.1404 38.0608 54.401 38.0659 54.6598 38.0608C55.0734 38.054 55.6668 37.8621 55.8668 38.0676C56.3845 38.5925 56.7527 39.2755 57.1107 39.9363C57.1527 40.0144 56.7611 40.3321 56.5106 40.609C56.6989 40.7449 56.8653 40.9607 57.0704 41.0031C58.1563 41.2325 58.469 42.0258 58.6471 42.9992C58.753 43.5802 58.8741 44.0711 58.01 44.1663L58.2303 44.4364C59.6154 45.0802 59.6019 46.4953 59.9499 47.6895C60.1079 48.223 60.0625 48.8175 60.1197 49.3832C60.1684 49.8657 59.9701 50.0508 59.4809 50.0441C59.1531 50.0424 58.8236 50.1732 58.4958 50.2428L58.5496 50.5945Z" fill="#F0F7EE"/>
<path fill-rule="evenodd" clip-rule="evenodd" d="M28.4286 63.7858C28.5745 63.4026 28.7306 63.0534 28.8273 62.6871C28.868 62.5447 28.7933 62.3667 28.7475 62.2124L28.4846 62.2514C28.2029 62.4718 28.1859 63.462 28.4286 63.7858ZM16.3688 48.5532L16.4265 48.1751C16.1262 48.0785 15.8293 47.9835 15.5307 47.8886C15.5069 48.109 15.4798 48.3311 15.4526 48.5532H16.3688ZM22.4006 62.3227L22.1919 62.5686C22.5617 62.8212 22.9333 63.0721 23.3693 63.3756C23.6425 62.2074 22.7399 62.6025 22.4006 62.3227ZM16.7132 65.7884C17.4037 65.4595 17.2968 64.9356 17.1475 64.415L16.8947 64.1488L16.7217 64.4116C16.703 64.8576 16.7132 65.3052 16.7132 65.7884ZM16.7613 50.8677L16.9073 50.7422C16.7325 50.61 16.5645 50.3828 16.3779 50.3692C16.0284 50.3387 15.6687 50.4235 15.3158 50.4828L15.2666 50.727L15.4889 50.8626C15.913 50.8762 16.3372 50.8677 16.7613 50.8677ZM5.76707 45.7778L5.94182 46.0338C6.14711 45.9304 6.36597 45.8473 6.55429 45.715C6.73243 45.5879 6.8987 45.4268 7.03273 45.2538C7.17694 45.0622 7.27874 44.8401 7.3992 44.6316C7.06836 44.6434 6.63234 44.5265 6.43723 44.6926C6.12844 44.9537 5.98254 45.4064 5.76707 45.7778ZM10.6499 47.4308C9.65912 47.3358 9.02459 48.0802 8.9703 49.1467C9.97638 49.5264 10.0358 48.8177 10.1749 48.1327C10.2207 47.9072 10.4463 47.719 10.6499 47.4308ZM8.82989 45.4013C6.96532 45.3471 7.50145 46.8696 6.92291 47.7547C7.57949 47.5818 7.86961 47.2732 7.89167 46.6492C7.90015 46.4017 8.24286 46.1711 8.43628 45.9286C8.57031 45.7557 8.69755 45.5777 8.82989 45.4013ZM20.9656 67.6975L20.6517 67.5313C20.594 67.6924 20.4838 67.8552 20.4872 68.0179C20.5007 68.7487 20.5177 69.4812 20.6076 70.2052C20.6246 70.3578 20.9537 70.4748 21.137 70.607C21.2014 70.3815 21.327 70.1526 21.3236 69.9254C21.3151 69.3574 21.2608 68.786 21.1895 68.2197C21.1709 68.04 21.0419 67.8704 20.9656 67.6975ZM11.8728 55.0029C11.6642 56.8324 11.4402 58.8009 11.2061 60.8694C10.86 60.449 10.7514 59.3265 10.8888 58.6686C10.9482 58.3804 10.9703 58.0871 11.0076 57.7954C11.1043 57.0172 11.2756 56.239 11.2689 55.4624C11.2638 54.8486 11.0313 54.2365 10.9177 53.6228C10.8769 53.4142 10.8006 53.0598 10.8888 53.0056C11.7795 52.4478 11.9746 51.5525 12.1545 50.62C12.2936 49.8926 12.5108 49.1805 12.6126 48.3666C12.3649 48.8091 12.1188 49.2517 11.8694 49.6908C11.3316 50.6437 11.1637 51.7492 10.4901 52.675C10.1627 53.1226 10.312 53.9195 10.2526 54.557C10.2085 55.0216 10.1644 55.4878 10.1457 55.9558C10.1236 56.4797 10.1287 57.0036 10.1084 57.5276L10.0252 57.9599L9.66217 57.6751C9.24141 56.9223 8.96317 56.2017 9.15489 55.2403C9.41277 53.9466 9.35509 52.5953 9.43143 51.2677L9.23802 51.171C8.96317 51.7577 8.68323 52.346 8.40669 52.9344L8.2998 52.9412C8.2998 52.6699 8.32525 52.3952 8.29132 52.1273C8.25399 51.8289 8.16238 51.5373 8.09282 51.2456H7.90449C7.74671 52.1697 7.59232 53.0904 7.43284 54.0263C6.78474 53.6228 6.33174 52.3511 6.52685 51.5033C6.7033 50.72 6.93064 49.9435 7.08334 49.1533C7.1529 48.799 7.09691 48.4192 7.02226 48.0258C6.30121 49.2432 5.64632 50.4759 5.74811 51.9798L5.54622 52.0103C5.21877 51.383 4.89472 50.7539 4.67926 50.3453C4.9541 48.6192 5.19163 47.0984 5.4546 45.4469C5.17636 45.7691 4.95071 46.0302 4.62836 46.41C4.57576 45.8928 4.53844 45.5046 4.49942 45.118L4.32467 45.1027C4.16858 46.0844 4.01588 47.0695 3.86149 48.0496L3.64942 48.0377C3.46619 47.5392 3.059 47.0644 3.65112 46.5049C3.76479 46.3981 3.82926 46.1997 3.83435 46.042C3.8581 45.469 3.84453 44.8976 3.84453 44.1685C3.66129 44.8518 3.5103 45.4096 3.34233 46.0437C2.66709 44.7602 2.74513 41.9524 4.22796 40.9894C3.89712 40.8775 3.66638 40.7978 3.29313 40.6689C3.70032 39.031 4.14143 37.2745 4.60969 35.4043C5.28494 36.0062 5.83803 36.4589 6.32665 36.971C6.42166 37.0727 6.33344 37.4491 6.22316 37.6322C5.92117 38.1222 5.55809 38.5766 5.12376 39.1785C5.53943 39.2091 5.76508 39.226 5.93135 39.2379C6.31138 38.7208 6.17057 37.8594 6.97815 37.8306C7.69751 37.8086 8.08603 38.4003 8.38124 38.97C8.48134 39.1616 8.46437 39.5431 8.33204 39.7025C8.05549 40.0382 7.64661 40.262 7.33783 40.5774C7.18513 40.7316 7.14102 40.9894 7.04601 41.2013C7.27505 41.164 7.5516 41.1962 7.72635 41.0758C8.25399 40.7215 8.74261 40.3061 9.25329 39.9144C10.2017 40.323 10.3171 40.7469 9.69271 41.5353C9.39072 41.9134 9.40938 42.0067 10.0354 42.7493C9.49081 41.5116 10.312 41.4997 11.1229 41.3183C11.335 41.7184 11.5759 42.5374 11.7948 42.5323C12.4565 42.5136 12.0747 43.1071 12.3852 43.2563C12.694 43.4038 12.9705 43.6632 13.2047 43.9226C14.8673 45.7725 16.5147 47.6358 18.1587 49.5009C18.6304 50.0367 19.1462 50.5522 19.5042 51.1608C19.667 51.4389 19.5075 51.9137 19.4651 52.2985L19.2785 52.6003C19.2463 52.9937 18.9103 53.4871 19.5567 53.6974C19.7909 53.7703 19.8452 53.6618 20.0216 52.8784L20.0471 52.8106C20.1064 52.6512 20.1692 52.4935 20.2422 52.3053C21.3212 52.3189 21.7301 53.3464 22.0762 53.9737C22.4172 54.5875 22.0321 55.6048 21.9625 56.4424L22.2153 56.5136C22.3612 55.9575 22.5088 55.4031 22.6666 54.8147C23.7355 55.3573 24.0663 56.2423 23.766 57.4004C23.6965 57.6649 23.7762 57.9684 23.7864 58.2549L24.1376 58.2719C24.2377 57.7768 24.3429 57.28 24.4837 56.5984C24.6754 57.0138 24.7823 57.2444 24.8943 57.4801C25.6781 57.4733 25.8766 57.8141 25.7256 58.884C25.6645 59.318 25.6492 59.7606 25.6034 60.3286C26.6994 59.8725 25.7901 59.2316 26.0581 58.7907C27.093 58.9789 27.2932 59.6775 27.1575 62.0529C27.334 61.4476 27.5155 60.8423 27.7411 60.0861C28.3774 60.7423 28.9203 61.3018 29.4581 61.8664C29.6176 62.036 29.755 62.2276 29.9009 62.4107C30.2267 62.8278 30.3726 63.2618 30.0638 63.7637C29.9518 63.9502 29.8297 64.1554 29.8093 64.3622C29.7957 64.5216 29.9298 64.6963 29.9976 64.8658L30.3488 64.5623C30.4998 64.2571 30.5982 63.9282 30.7781 63.4619C31.4567 64.2385 32.0929 64.9641 32.7258 65.6966L32.9209 66.0052C33.5724 66.6766 33.5282 66.9818 32.5629 67.7228C32.7241 67.855 32.8666 67.9754 33.0736 68.145C33.1465 67.9618 33.1906 67.8838 33.211 67.8025C33.3959 67.014 33.9185 66.8275 34.4699 67.3955C35.1519 68.089 35.8543 68.7791 36.4176 69.5624C36.6873 69.9405 36.6585 70.5323 36.7535 70.9799L36.9995 70.6696C37.4423 71.4987 37.97 72.2854 38.2838 73.1468C38.4552 73.6249 38.4416 74.3184 38.2092 74.7592C37.7952 75.5392 37.125 75.5239 36.4498 74.7541C36.1105 74.3625 35.9205 74.4371 35.5947 74.7372L35.7983 75.0339C36.387 75.6731 36.3158 75.9207 35.4692 76.1309C35.2316 76.1902 34.9941 76.2394 34.7532 76.2818C34.5174 76.3276 34.2781 76.3581 34.005 76.4022C33.5944 75.9359 33.1703 75.4561 32.7427 74.9745L32.5849 74.983C32.6528 75.3679 32.7563 75.7545 32.775 76.1428C32.7851 76.3327 32.6732 76.6786 32.5612 76.704C31.8605 76.8498 31.1462 76.9397 30.432 77.0143L30.0875 76.7854C29.7533 76.2428 29.4462 75.685 29.1239 75.1373C29.0085 74.9457 28.8745 74.7643 28.7472 74.5778L28.508 74.7524C28.8236 75.4832 29.1408 76.2157 29.4785 76.9939C28.3994 77.35 27.485 77.1669 26.5535 76.6277C25.69 76.1275 25.4524 75.3187 25.2675 74.4744C25.1352 73.8775 24.6482 73.7962 24.2275 73.6181L24.0561 73.747C24.3106 74.0539 24.5481 74.2455 24.6584 74.4981C24.8705 74.9813 25.0113 75.4917 25.2098 76.0851C24.8892 76.6921 24.3157 76.3106 23.8865 76.1614C23.2027 75.9207 22.5512 75.568 21.9201 75.2001C21.6843 75.0644 21.5367 74.7677 21.3789 74.5235C21.25 74.3302 21.1719 74.103 21.0379 73.8318C20.8241 74.0607 20.6765 74.2217 20.5051 74.4049L20.3609 74.3472C19.5839 73.9081 18.8052 73.4672 18.0281 73.0247C17.5717 72.7653 17.4767 72.338 17.4547 71.8548C17.4241 71.1647 17.3817 70.4729 17.2935 69.7879C17.2629 69.5421 17.0865 69.3132 16.9033 68.9164C16.1975 69.9541 16.9474 71.0291 16.4435 71.9531C15.6766 71.7988 15.6664 71.0748 15.4204 70.5407C15.2796 70.2423 15.2355 69.888 15.0523 69.6201C14.4636 68.7553 13.8901 67.9076 14.4093 66.797L14.4347 66.7258C14.4347 65.3456 14.4381 63.9672 14.4262 62.587C14.4262 62.5124 14.3075 62.4412 14.1361 62.2411C13.9732 63.1058 13.7764 63.857 13.7086 64.6149C13.639 65.3829 13.6933 66.1629 13.6933 67.0496C12.867 66.5189 12.9078 65.6356 12.5108 65.015C11.4402 63.3314 12.0866 61.5731 12.2648 59.842C12.3394 59.0908 12.5125 58.3516 12.6244 57.6039L12.5108 57.2647C12.3462 56.8714 12.1375 56.4916 12.0255 56.0847C11.9153 55.6845 11.9085 55.2572 11.8728 55.0029Z" fill="#F0F7EE"/>
<path fill-rule="evenodd" clip-rule="evenodd" d="M35.3373 63.4401C34.7867 62.3992 34.9181 61.1751 33.9966 60.3561C34.0682 60.5932 34.2328 60.8539 34.1912 61.0708C34.1147 61.4525 34 61.9099 33.7355 62.152C33.481 62.3858 33.0652 62.3336 32.8356 61.883C32.7641 61.7451 32.4231 61.6408 32.2668 61.6963C32.1354 61.7401 32.0772 62.0377 32.0173 62.2344C31.9757 62.3656 31.9873 62.5102 31.9607 62.8381C28.9434 59.2951 26.0326 55.8714 23.1201 52.4512L23.2648 52.2258C23.5659 52.3553 23.9085 52.431 24.1564 52.626C24.5672 52.9539 24.8982 53.3811 25.3074 53.709C25.4388 53.8132 25.7116 53.7325 25.9195 53.7359C25.8264 53.5627 25.7515 53.3743 25.6317 53.2196C25.4787 53.0246 25.2874 52.853 25.1111 52.6765C25.4588 52.547 25.8447 52.2578 26.1457 52.3284C26.5665 52.431 26.9225 52.8026 27.3566 53.0918C27.3915 53.0363 27.4731 52.89 27.5995 52.6714C29.1164 53.5997 30.823 54.1983 32.0838 55.5452C33.3696 56.919 34.5655 58.3534 34.9913 60.2603C35.1826 61.1112 35.319 61.9738 35.4504 62.8331C35.4803 63.0231 35.3789 63.2366 35.3373 63.4401Z" fill="#F0F7EE"/>
<path fill-rule="evenodd" clip-rule="evenodd" d="M29.2881 25.2108L29.4114 25.1449C29.9196 25.116 30.555 24.923 30.8983 25.116C31.16 25.2607 31.0405 25.8862 31.1259 26.2946C31.3667 27.4588 31.3553 27.4974 30.2003 27.7868C29.8134 27.8833 29.4645 27.8688 29.4322 27.4154C29.3848 26.6853 29.3355 25.9569 29.2881 25.2108Z" fill="#F0F7EE"/>
<path fill-rule="evenodd" clip-rule="evenodd" d="M30.9702 23.0719C30.9684 23.6937 30.4196 24.1298 29.6925 24.0377C29.5339 24.0162 29.3058 23.7951 29.2951 23.6523C29.2719 23.3298 29.304 22.9813 29.4216 22.6757C29.5339 22.3824 29.484 21.822 30.0935 21.9725C30.4338 22.0569 30.7029 22.4101 30.9578 22.6757L30.9702 23.0719Z" fill="#F0F7EE"/>
<path fill-rule="evenodd" clip-rule="evenodd" d="M30.9697 14.3776C31.4626 13.9776 31.2602 12.8749 32.3715 12.9833C32.3509 13.9085 31.9274 14.3776 30.9697 14.3776Z" fill="#F0F7EE"/>
<path fill-rule="evenodd" clip-rule="evenodd" d="M32.4562 62.5989C33.0366 63.226 33.6153 63.8583 34.1939 64.4872L34.1125 64.5614C33.4843 63.982 32.8579 63.4008 32.2314 62.8214L32.4562 62.5989Z" fill="#F0F7EE"/>
<path fill-rule="evenodd" clip-rule="evenodd" d="M52.9573 40.8866C52.3106 41.0952 51.8155 41.2596 51.2767 41.4359C51.7229 42.5837 52.1591 43.7111 52.6441 44.9639C53.1695 44.8418 53.6915 44.7198 54.2809 44.5808C54.6969 45.0928 54.6396 45.1487 52.9118 45.8167V48.6835C53.2823 48.5665 53.7336 48.4546 54.1631 48.2851C54.8097 48.0324 54.8232 48.3969 54.7912 48.9005C54.1967 49.0683 53.6191 49.231 52.9927 49.4091C52.9624 49.6515 52.9624 50.0584 52.8563 50.4347C52.7333 50.8721 52.9219 50.9077 53.2537 50.8535C53.4911 50.8111 53.7286 50.7602 53.9643 50.7145C53.9559 50.8891 53.9963 51.0959 53.9239 51.2349C53.7606 51.557 53.5854 51.9334 53.0954 51.7571C53.0348 51.7367 52.9741 51.7113 52.8057 51.6469C52.6626 52.2436 52.5346 52.7929 52.4285 53.2371C52.794 53.3846 53.0786 53.4999 53.4204 53.6406C53.0331 54.1441 52.7906 54.4882 52.1827 54.195C52.0058 54.1068 51.536 54.412 51.3272 54.651C50.7799 55.2732 50.3083 55.9632 49.7947 56.6176C49.6819 56.7634 49.5455 56.921 49.3838 56.9872C48.0636 57.5432 46.745 58.1179 45.4028 58.6028C44.8875 58.7876 44.2745 58.6859 43.7424 58.8469C42.6697 59.1741 41.7569 58.6791 40.8088 58.3705C40.2885 58.1993 39.8136 58.1773 39.2781 58.3129C38.6331 58.479 37.9595 58.5096 37.296 58.596L37.2101 58.2773C37.5789 58.1298 37.946 57.984 38.3249 57.8348C38.1127 57.4585 37.8685 57.0278 37.589 56.5379C37.7776 56.4887 37.9123 56.4175 37.9443 56.4497C38.8368 57.3771 40.0409 57.4195 41.1911 57.6416C41.6609 57.7314 42.1089 58.0044 42.5787 58.0518C43.2759 58.1264 44.0253 58.2264 44.6787 58.0383C45.8238 57.7161 46.9504 57.2652 48.008 56.7193C48.8618 56.2785 49.0437 55.4292 48.8096 54.3509C48.7574 54.1187 48.8382 53.8559 48.855 53.6084L49.1767 53.6185V56.2158C50.7159 54.8663 50.7344 54.8358 50.4784 54.0678C50.2915 54.2 50.1164 54.3255 49.9396 54.4493C50.0793 53.7694 50.7479 53.2388 50.3235 52.4742C49.9766 51.8503 49.6314 51.2281 49.2979 50.628C50.5559 50.4178 50.4347 51.6299 50.8759 52.5505C51.3019 51.2519 51.3642 50.0838 50.8877 49.1005C50.4498 48.1918 49.5977 47.4866 49.0218 46.5575C49.5893 46.8644 50.1585 47.1712 50.8034 47.5238C50.6771 46.5914 50.8237 45.6692 49.7324 45.1555C49.111 44.8639 48.6075 44.3027 48.0636 43.8467C47.9878 43.784 47.9844 43.6297 47.9204 43.433C48.8416 43.2703 49.271 43.8619 49.724 44.4163C50.108 43.606 48.8567 41.9089 47.8126 41.8225C47.7806 42.8329 47.6628 42.9261 46.9033 42.5091C47.0094 42.3497 47.1138 42.1954 47.2384 42.0123C46.9774 41.892 46.745 41.7801 46.3627 41.6021C46.9319 41.4495 47.358 41.3308 47.8278 41.202C47.4994 40.5459 47.0936 40.5154 46.4705 40.9324C46.5378 40.7171 46.6052 40.5001 46.6776 40.2645C45.1418 38.7319 42.7488 37.9927 40.5899 38.425C40.4181 37.9232 40.4788 37.5909 41.0901 37.4672C41.5599 37.3739 41.9977 37.1722 41.8074 36.5246C41.1709 36.4822 40.8375 36.7314 40.4434 37.2739C40.0157 37.8639 39.2309 38.2284 38.5455 38.5895C37.2977 39.2405 36.2115 40.1305 35.4974 41.2884C34.7969 42.4243 34.3035 43.7348 33.9599 45.03C33.7898 45.6607 33.5676 46.3269 33.5238 47.0068C33.4733 47.7595 33.3032 48.5224 33.3907 49.2565C33.5457 50.5924 33.416 52.0012 34.5359 53.1133C34.967 53.5389 35.0175 54.3577 35.2415 54.9951L34.9788 55.0969C34.8693 54.9002 34.7699 54.6968 34.6453 54.5086C34.3186 54.0186 33.9835 53.527 33.6433 53.0455L33.3419 52.7183C33.0607 51.9486 32.7121 51.2637 31.6747 51.3485C31.892 50.706 32.9849 50.7857 32.5437 49.8871C31.8987 49.743 31.2251 49.5921 30.5498 49.443L30.5784 49.148C31.0651 49.1056 31.5568 49.0869 32.0368 49.0073C32.2422 48.9734 32.5723 48.8292 32.5942 48.6953C32.83 47.2441 33.0152 45.7844 33.2105 44.3282L33.1954 44.0518C32.7845 43.9501 32.3635 43.8433 31.9088 43.728V43.2567C32.995 43.394 33.7713 43.0601 34.0425 41.9106L33.6753 41.8801C33.5137 41.8072 33.3739 41.6868 33.2257 41.5851L33.5726 41.1901C33.9212 40.9867 34.3203 40.8697 34.6571 40.6476C35.1977 40.2933 35.3324 39.8186 34.8003 39.1828C35.0882 39.0727 35.329 38.8862 35.5513 38.9082C36.3529 38.9862 36.9238 38.5437 37.5418 38.1606C37.813 37.9927 38.1531 37.9385 38.4664 37.8435C38.6398 37.7893 38.8183 37.7571 38.9935 37.535L38.5792 37.4689C38.2845 37.479 37.9898 37.5519 37.7035 37.5248C37.5469 37.5096 37.4021 37.3451 37.2505 37.2485L37.5216 36.8857C37.7742 36.7755 38.0622 36.6653 38.3283 36.6721C38.8368 36.6856 39.342 36.7789 39.8708 36.8433C39.7007 35.838 39.7799 35.7651 40.7128 35.7346C41.1103 35.7193 41.5026 35.6176 41.9523 35.5447C42.0045 35.9007 42.9458 36.1211 42.0668 36.8314L42.2857 36.9382C42.572 36.8331 42.8482 36.6805 43.1412 36.6432C43.4544 36.6009 43.7979 36.6212 44.1061 36.7026C44.874 36.9026 45.6184 37.2061 46.3947 37.3621C46.7399 37.4316 47.134 37.1908 47.5095 37.1824C47.9086 37.1722 48.3128 37.2654 48.7119 37.3146L48.7355 37.6672C48.3448 37.7656 47.9524 37.8656 47.3091 38.03C47.6897 38.2674 47.9423 38.5505 48.2118 38.5641C48.8163 38.5946 49.431 38.4488 50.0389 38.4623C50.2915 38.4691 50.534 38.7166 50.7816 38.854C50.5441 38.9675 50.3134 39.0981 50.0659 39.1828C49.8402 39.2608 49.5977 39.2863 49.2036 39.3676C50.0221 39.9322 50.5441 40.7324 51.5798 40.5374C51.7398 40.5052 51.893 40.4374 52.0547 40.3933C52.2652 40.334 52.5346 40.1814 52.6794 40.2577C52.8293 40.3391 52.8596 40.6459 52.9573 40.8866Z" fill="#98A445"/>
<path fill-rule="evenodd" clip-rule="evenodd" d="M51.2587 34.4233C50.9668 33.6484 50.6683 32.8736 50.3815 32.1004C50.1747 31.5438 49.9129 30.999 49.7895 30.4274C49.5461 29.2793 49.3543 28.1212 49.1876 26.9564C49.0375 25.94 49.441 24.8752 48.9191 23.8704C48.8624 23.7587 49.1642 23.3155 49.371 23.2438C49.7579 23.1089 49.9246 23.3822 49.9213 23.7821C49.9096 25.1401 49.8729 26.4949 49.9363 27.8496C49.9696 28.5844 50.1414 29.3226 50.3365 30.0375C50.5466 30.7973 50.8635 31.5272 51.1186 32.2737C51.1803 32.4503 51.1836 32.647 51.2286 32.8286C51.3137 33.1768 51.4188 33.5168 51.5021 33.8634C51.5405 34.0333 51.5522 34.205 51.5755 34.3783L51.2587 34.4233Z" fill="#98A445"/>
<path fill-rule="evenodd" clip-rule="evenodd" d="M37.9446 10.6636C38.3131 10.6845 38.7155 10.6446 39.0857 10.7603C39.2257 10.802 39.2852 11.2003 39.3802 11.4336C39.1983 11.5133 39.0213 11.6138 38.8346 11.6631C38.3856 11.7864 37.9381 11.9078 37.4843 11.9798C37.238 12.0235 36.9837 11.959 36.7311 11.9419C36.8099 11.6517 36.8888 11.3653 36.9644 11.0827C36.8904 10.895 36.6779 10.4967 36.723 10.4474C36.9194 10.2388 37.2219 9.9922 37.4392 10.0377C37.6484 10.0832 37.8029 10.4739 37.9446 10.6636Z" fill="#98A445"/>
<path fill-rule="evenodd" clip-rule="evenodd" d="M43.2532 10.4526C44.0577 10.7764 44.9767 10.61 45.3513 11.5686C45.4172 11.7405 45.3929 11.9449 45.4085 12.1348C45.2386 12.1095 45.0617 12.1076 44.8987 12.0534C44.3404 11.8743 43.7751 11.7115 43.241 11.4692C43.033 11.3733 42.9081 11.0785 42.7451 10.8759C42.9185 10.7312 43.0884 10.5865 43.2532 10.4526Z" fill="#98A445"/>
<path fill-rule="evenodd" clip-rule="evenodd" d="M42.4648 56.5727C43.5377 56.4854 44.616 56.3942 45.8291 56.291C45.718 56.619 45.6652 56.7697 45.5905 56.9919C44.5432 56.9403 43.5122 56.8901 42.4794 56.8385L42.4648 56.5727Z" fill="#98A445"/>
<path fill-rule="evenodd" clip-rule="evenodd" d="M34.8385 13.7379C34.8538 13.9378 34.9394 14.1576 34.8652 14.3244C34.593 14.9258 34.2866 15.5173 33.946 16.094C33.8698 16.2195 33.6053 16.2608 33.4264 16.3401C33.3541 16.1584 33.16 15.9254 33.2266 15.7982C33.6053 15.0778 34.043 14.3823 34.4598 13.6768L34.8385 13.7379Z" fill="#98A445"/>
<path fill-rule="evenodd" clip-rule="evenodd" d="M55.0803 42.6561C54.2759 42.6753 53.6579 42.7016 53.0449 42.6915L52.6973 42.4701L52.9173 42.282C53.5101 42.2679 54.1029 42.2699 54.694 42.2942C54.7831 42.2972 54.8586 42.4428 55.0803 42.6561Z" fill="#98A445"/>
<path fill-rule="evenodd" clip-rule="evenodd" d="M43.4456 64.9819C42.6963 65.8335 41.4917 65.8993 40.7822 65.2326C41.6495 65.15 42.4869 65.073 43.4456 64.9819Z" fill="#98A445"/>
<path fill-rule="evenodd" clip-rule="evenodd" d="M37.9282 41.292C37.9801 41.4531 38.0508 41.6627 38.1184 41.8704C36.7964 42.746 36.078 42.789 35.7354 41.9474C36.5119 41.8919 37.4708 42.5275 37.9282 41.292Z" fill="#98A445"/>
<path fill-rule="evenodd" clip-rule="evenodd" d="M45.5488 64.1642C45.9862 64.1642 46.267 64.1807 46.543 64.1597C46.7883 64.1403 47.0304 64.0804 47.5113 64.001C47.3096 64.32 47.1934 64.66 47.0788 64.66C46.5866 64.6585 45.9717 64.9176 45.5488 64.1642Z" fill="#98A445"/>
<path fill-rule="evenodd" clip-rule="evenodd" d="M39.037 41.7124C38.9488 41.9629 38.8173 42.1669 38.8622 42.2367C39.3067 42.8971 39.7979 42.4318 40.5021 42.1634C40.3023 42.5177 40.2424 42.7629 40.0992 42.8559C39.6647 43.1315 38.7906 42.8971 38.4926 42.439L38.3994 41.9737C38.5875 41.8448 38.8173 41.7929 39.037 41.7124Z" fill="#98A445"/>
<path fill-rule="evenodd" clip-rule="evenodd" d="M32.7916 46.2132C32.5922 46.2896 32.4143 46.3971 32.1935 46.4348C31.9355 46.4799 31.6344 46.4842 31.3569 46.4735C31.177 46.467 31.005 46.4036 30.8291 46.3659C30.9581 46.2659 31.0695 46.0939 31.2239 46.081C31.6696 46.0412 32.129 46.0648 32.5864 46.0648L32.7916 46.2132Z" fill="#98A445"/>
<path fill-rule="evenodd" clip-rule="evenodd" d="M44.8477 44.8034C45.5997 44.756 46.4409 44.7037 47.2307 44.6562C46.1291 45.1869 45.9869 45.1917 44.8477 44.8034Z" fill="#98A445"/>
<path fill-rule="evenodd" clip-rule="evenodd" d="M29.8482 47.7124C28.6042 47.8618 28.1249 47.4085 28.1688 46.3384C28.6865 46.7614 29.239 47.2147 29.8482 47.7124Z" fill="#98A445"/>
<path fill-rule="evenodd" clip-rule="evenodd" d="M57.4635 57.9731C57.2254 58.1872 57.0834 58.3917 56.9894 58.3863C56.4952 58.3533 55.8691 58.5067 55.501 58.1734C56.1071 58.1127 56.6513 58.0573 57.4635 57.9731Z" fill="#98A445"/>
<path fill-rule="evenodd" clip-rule="evenodd" d="M36.3897 29.3767C36.5541 29.7435 36.7386 29.9706 36.7155 30.1453C36.6896 30.3336 36.469 30.4772 36.3335 30.6383C36.2225 30.4384 36.0481 30.2521 36.0178 30.0347C35.9991 29.8949 36.1966 29.7028 36.3897 29.3767Z" fill="#98A445"/>
<path fill-rule="evenodd" clip-rule="evenodd" d="M50.7344 60.4148C51.2767 60.3203 51.596 60.2439 51.926 60.2161L52.3969 60.3203L52.4165 60.5518L51.9652 60.6366C51.5995 60.5918 51.2499 60.5118 50.7344 60.4148Z" fill="#98A445"/>
<path fill-rule="evenodd" clip-rule="evenodd" d="M31.9512 36.6661C32.5515 36.1767 32.9874 36.1323 33.353 36.4406C32.8835 36.5164 32.4156 36.5913 31.9512 36.6661Z" fill="#98A445"/>
<path fill-rule="evenodd" clip-rule="evenodd" d="M47.2305 48.364C47.9511 48.288 48.5676 48.2244 49.193 48.1609C48.776 48.6348 48.1183 48.7163 47.2305 48.364Z" fill="#98A445"/>
<path fill-rule="evenodd" clip-rule="evenodd" d="M45.9685 18.3031C45.8156 18.4242 45.6699 18.6057 45.5935 18.5809C45.4551 18.5369 45.2719 18.376 45.2676 18.2591L45.5517 17.8823C45.6699 18.0033 45.7896 18.1244 45.9685 18.3031Z" fill="#98A445"/>
<path fill-rule="evenodd" clip-rule="evenodd" d="M38.6124 10.1723C38.4964 9.81041 38.3814 9.60337 38.4018 9.48146C38.4394 9.26475 38.5595 9.09834 38.647 8.91064L38.8199 9.40987C38.8199 9.60337 38.7223 9.79493 38.6124 10.1723Z" fill="#98A445"/>
<path fill-rule="evenodd" clip-rule="evenodd" d="M20.437 67.5164C20.501 67.6755 20.6076 67.8284 20.6247 67.9937C20.6844 68.5096 20.7284 69.0286 20.737 69.5461C20.7398 69.753 20.6346 69.9616 20.5806 70.1686C20.4257 70.0481 20.1513 69.9399 20.1357 69.8009C20.0604 69.1429 20.0476 68.4741 20.0362 67.8083C20.0334 67.6616 20.1243 67.5117 20.1741 67.365L20.437 67.5164Z" fill="#98A445"/>
<path fill-rule="evenodd" clip-rule="evenodd" d="M8.68125 45.3584C8.54506 45.5368 8.41411 45.717 8.27618 45.892C8.07713 46.1374 7.72444 46.3707 7.71571 46.6212C7.69302 47.2527 7.39445 47.565 6.71875 47.74C7.31413 46.8443 6.76065 45.3035 8.68125 45.3584Z" fill="#98A445"/>
<path fill-rule="evenodd" clip-rule="evenodd" d="M10.7848 47.3286C10.5469 47.6378 10.2813 47.8378 10.2297 48.0797C10.0672 48.8144 9.99778 49.5745 8.82227 49.169C8.8857 48.0251 9.62709 47.2249 10.7848 47.3286Z" fill="#98A445"/>
<path fill-rule="evenodd" clip-rule="evenodd" d="M5.45703 45.7572C5.6791 45.3208 5.82948 44.7907 6.14772 44.4818C6.34881 44.2865 6.7982 44.424 7.13917 44.4101C7.01502 44.6552 6.90836 44.9162 6.75973 45.1414C6.62334 45.3447 6.45023 45.534 6.26838 45.6835C6.07428 45.8389 5.84872 45.9366 5.63714 46.0581L5.45703 45.7572Z" fill="#98A445"/>
<path fill-rule="evenodd" clip-rule="evenodd" d="M16.5218 50.5414C16.0869 50.5414 15.652 50.5484 15.2171 50.5372L14.9893 50.4247L15.0397 50.2222C15.4033 50.1729 15.7703 50.104 16.1287 50.1279C16.32 50.1392 16.4922 50.3276 16.6714 50.4373L16.5218 50.5414Z" fill="#98A445"/>
<path fill-rule="evenodd" clip-rule="evenodd" d="M16.2531 65.6831C16.2531 65.1873 16.2453 64.7281 16.2596 64.2723L16.3922 64.001L16.5872 64.2741C16.7017 64.8081 16.7823 65.3474 16.2531 65.6831Z" fill="#98A445"/>
<path fill-rule="evenodd" clip-rule="evenodd" d="M22.2373 62.3188C22.6247 62.6541 23.6534 62.1827 23.3434 63.5805C22.8436 63.2168 22.4213 62.9161 21.999 62.6155L22.2373 62.3188Z" fill="#98A445"/>
<path fill-rule="evenodd" clip-rule="evenodd" d="M15.9288 48.1605H15.2695C15.2891 48.02 15.3075 47.8795 15.3258 47.74C15.5411 47.8001 15.7539 47.8612 15.9704 47.9213L15.9288 48.1605Z" fill="#98A445"/>
<path fill-rule="evenodd" clip-rule="evenodd" d="M28.0097 63.7205C27.8337 63.3743 27.846 62.3157 28.0503 62.08L28.2409 62.0383C28.2741 62.2033 28.3283 62.3936 28.2987 62.5459C28.2286 62.9374 28.1154 63.3108 28.0097 63.7205Z" fill="#98A445"/>
</svg>
