<svg width="180" height="116" viewBox="0 0 180 116" fill="none" xmlns="http://www.w3.org/2000/svg">
<path d="M86.72 113H104.32L53.76 0.0399952L0.64 113H18.24L29.92 87.24H75.52L86.72 113ZM36.64 71.88L53.12 35.72L68.96 71.88H36.64ZM164.2 53.48C157.8 45.16 149.16 43.88 144.2 43.88C126.44 43.88 111.4 57.32 111.4 79.24C111.4 97.8 123.24 115.08 144.04 115.08C148.84 115.08 157.32 113.96 164.2 105.96V113H179.88V45.64H164.2V53.48ZM146.12 57.96C156.04 57.96 165.16 65 165.16 79.72C165.16 93.8 156.04 101 146.12 101C134.76 101 127.4 91.24 127.4 79.56C127.4 67.56 134.76 57.96 146.12 57.96Z" fill="#0A0A12"/>
</svg>
