<svg width="96" height="97" viewBox="0 0 96 97" fill="none" xmlns="http://www.w3.org/2000/svg">
<path fill-rule="evenodd" clip-rule="evenodd" d="M6.07574 31.1245C4.86238 30.5275 3.84378 29.169 4.57263 27.6709C5.04183 26.7082 5.7464 26.489 6.42354 26.4153L6.48476 27.3917C6.05093 27.4522 5.62502 27.6051 5.39596 28.0758C4.90672 29.0814 5.73321 29.8594 6.50587 30.2399C7.40045 30.6798 8.43542 30.7201 8.88666 29.793C9.15741 29.2363 8.94419 28.6277 8.42592 28.3729L8.34781 28.3342L7.92084 29.2119L7.11915 28.8171L7.96939 27.0696L8.65814 27.4082C9.92058 28.0296 10.213 29.1636 9.70999 30.1979C8.96003 31.7385 7.37406 31.7629 6.07574 31.1245Z" fill="#98A445"/>
<path fill-rule="evenodd" clip-rule="evenodd" d="M9.59766 19.6985L10.1993 18.9619L13.7697 21.9082L15.4734 19.8211L16.1753 20.4006L13.871 23.2238L9.59766 19.6985Z" fill="#98A445"/>
<path fill-rule="evenodd" clip-rule="evenodd" d="M19.0391 14.6752L16.9639 11.9406L17.7181 11.3622L19.7927 14.0973C20.406 14.906 20.9681 14.8344 21.5397 14.396C22.1049 13.962 22.3282 13.4313 21.7149 12.6231L19.6402 9.88796L20.3939 9.31006L22.4686 12.0446C23.4608 13.3522 23.0201 14.4093 22.0907 15.122C21.1861 15.8156 20.045 16.0019 19.0391 14.6752Z" fill="#98A445"/>
<path fill-rule="evenodd" clip-rule="evenodd" d="M31.1291 9.7114L30.262 10.0956L28.4011 5.84649L26.9634 6.48277L26.5977 5.64749L30.3396 3.99072L30.7053 4.826L29.2682 5.46228L31.1291 9.7114Z" fill="#98A445"/>
<path fill-rule="evenodd" clip-rule="evenodd" d="M37.2383 1.87422L40.7781 1.20557L40.9433 2.08755L38.3345 2.58054L38.5809 3.89927L40.188 3.59626L40.3522 4.47824L38.7451 4.78178L39.0253 6.28041L41.8046 5.75557L41.9693 6.63808L38.2585 7.33857L37.2383 1.87422Z" fill="#98A445"/>
<path fill-rule="evenodd" clip-rule="evenodd" d="M51.3748 6.39997L49.2669 2.77864C49.2014 2.66402 49.1223 2.5011 49.0589 2.35463C49.0684 2.48253 49.0679 2.6412 49.0616 2.76803L48.8837 6.27207L47.9453 6.22378L48.2271 0.675049L49.1423 0.721748L51.198 4.2847C51.2708 4.40781 51.341 4.5702 51.4054 4.71667C51.3964 4.57338 51.397 4.41418 51.4028 4.29531L51.578 0.846987L52.5164 0.895279L52.2345 6.44401L51.3748 6.39997Z" fill="#98A445"/>
<path fill-rule="evenodd" clip-rule="evenodd" d="M59.1067 4.86328L61.0394 5.40245L60.8009 6.26692L58.8682 5.72775L59.1067 4.86328Z" fill="#98A445"/>
<path fill-rule="evenodd" clip-rule="evenodd" d="M68.6673 5.40649L71.8376 7.05742L71.427 7.85397L69.098 6.6419L68.4847 7.8338L69.972 8.60805L69.5608 9.40513L68.0741 8.63087L66.9663 10.7822L66.125 10.3439L68.6673 5.40649Z" fill="#98A445"/>
<path fill-rule="evenodd" clip-rule="evenodd" d="M78.0096 14.5633C78.4772 14.9672 78.8794 14.8128 79.1422 14.5055C79.3839 14.2216 79.5196 13.7949 79.0287 13.3709L77.8782 12.3775L76.859 13.5699L78.0096 14.5633ZM77.7456 11.0693L79.6034 12.6736C80.6457 13.5741 80.451 14.4842 79.8852 15.147C79.473 15.6289 78.741 15.9383 77.9931 15.6066L77.3551 18.0599L76.5465 17.3615L77.1471 15.0122L76.2726 14.2571L74.8624 15.9075L74.1436 15.2866L77.7456 11.0693Z" fill="#98A445"/>
<path fill-rule="evenodd" clip-rule="evenodd" d="M85.9433 19.3672L88.0549 22.2992L87.3324 22.8256L85.7765 20.6647L84.6962 21.4522L85.6541 22.7831L84.9316 23.309L83.9736 21.9781L82.7455 22.8723L84.4033 25.1733L83.6807 25.7003L81.4678 22.6271L85.9433 19.3672Z" fill="#98A445"/>
<path fill-rule="evenodd" clip-rule="evenodd" d="M91.6933 28.8215L93.0893 32.1595L92.2665 32.5071L91.2384 30.0474L90.0076 30.568L90.6409 32.0831L89.8181 32.4312L89.1848 30.9156L87.7873 31.5062L88.8829 34.1267L88.0601 34.4743L86.5977 30.9755L91.6933 28.8215Z" fill="#98A445"/>
<path fill-rule="evenodd" clip-rule="evenodd" d="M6.20031 65.6955C7.43002 65.1356 9.11943 65.2126 9.80237 66.7309C10.242 67.7073 9.96123 68.3924 9.58546 68.9639L8.79907 68.3897C9.02865 68.0151 9.18276 67.5874 8.96849 67.1108C8.50985 66.0909 7.3878 66.2357 6.60406 66.5918C5.69787 67.0042 5.00701 67.78 5.43028 68.7198C5.68362 69.2845 6.28633 69.5068 6.81147 69.268L6.89064 69.2319L6.49058 68.342L7.30336 67.9726L8.1003 69.7446L7.40258 70.0619C6.1222 70.6435 5.0677 70.1484 4.59587 69.0998C3.8934 67.538 4.88456 66.2941 6.20031 65.6955Z" fill="#98A445"/>
<path fill-rule="evenodd" clip-rule="evenodd" d="M13.672 73.6965L14.251 74.4506L10.5951 77.2881L12.2349 79.4246L11.5166 79.9824L9.29785 77.0918L13.672 73.6965Z" fill="#98A445"/>
<path fill-rule="evenodd" clip-rule="evenodd" d="M17.6531 83.3052L19.808 80.6333L20.5448 81.234L18.3894 83.9054C17.7518 84.6951 17.9534 85.2279 18.5118 85.6827C19.0644 86.1332 19.6302 86.2266 20.2672 85.437L22.4221 82.765L23.1589 83.3652L21.004 86.0372C19.9732 87.3145 18.848 87.1335 17.9397 86.3927C17.0562 85.6721 16.6081 84.6006 17.6531 83.3052Z" fill="#98A445"/>
<path fill-rule="evenodd" clip-rule="evenodd" d="M27.8911 92.5366L27.0361 92.127L29.0237 87.9341L27.6056 87.2543L27.9967 86.4302L31.6885 88.2005L31.2974 89.0246L29.8798 88.3448L27.8911 92.5366Z" fill="#98A445"/>
<path fill-rule="evenodd" clip-rule="evenodd" d="M37.1766 90.0564L40.6947 90.8285L40.5047 91.7047L37.9128 91.1363L37.6278 92.4476L39.2249 92.7973L39.0343 93.674L37.4378 93.3238L37.1148 94.8134L39.8761 95.4189L39.6861 96.2961L35.998 95.4868L37.1766 90.0564Z" fill="#98A445"/>
<path fill-rule="evenodd" clip-rule="evenodd" d="M50.234 96.9257L47.8701 93.4673C47.7967 93.358 47.7065 93.2009 47.6326 93.0603C47.6511 93.1866 47.6622 93.3452 47.6653 93.4721L47.7398 96.9798L46.8008 97L46.6826 91.4449L47.5978 91.4252L49.9047 94.829C49.986 94.9463 50.0688 95.1033 50.1427 95.2445C50.1237 95.1018 50.1126 94.9441 50.11 94.8247L50.0366 91.3727L50.9755 91.3525L51.0943 96.9076L50.234 96.9257Z" fill="#98A445"/>
<path fill-rule="evenodd" clip-rule="evenodd" d="M57.6279 93.1061L59.5749 92.6248L59.7881 93.4956L57.8406 93.9774L57.6279 93.1061Z" fill="#98A445"/>
<path fill-rule="evenodd" clip-rule="evenodd" d="M64.6748 87.9331L67.8895 86.374L68.2769 87.1822L65.9161 88.3274L66.4956 89.5358L68.0035 88.8045L68.3909 89.6122L66.8835 90.3435L67.9296 92.524L67.0767 92.9385L64.6748 87.9331Z" fill="#98A445"/>
<path fill-rule="evenodd" clip-rule="evenodd" d="M76.1717 83.6755C76.6504 83.286 76.5717 82.8599 76.3179 82.5452C76.0846 82.2549 75.6914 82.0442 75.1879 82.4539L74.0094 83.4134L74.9937 84.635L76.1717 83.6755ZM72.707 83.3087L74.6091 81.7607C75.6768 80.891 76.5323 81.247 77.0786 81.9252C77.4765 82.4193 77.6475 83.1989 77.1889 83.8792L79.4742 84.9501L78.645 85.6251L76.4558 84.6089L75.5597 85.338L76.9213 87.0287L76.1845 87.6284L72.707 83.3087Z" fill="#98A445"/>
<path fill-rule="evenodd" clip-rule="evenodd" d="M80.125 76.2978L82.3211 73.429L83.0278 73.9761L81.4101 76.0898L82.4673 76.9081L83.4642 75.6058L84.1714 76.1534L83.1745 77.4557L84.3762 78.3855L86.0999 76.1327L86.8072 76.6804L84.505 79.6877L80.125 76.2978Z" fill="#98A445"/>
<path fill-rule="evenodd" clip-rule="evenodd" d="M85.4131 68.2292L86.8998 64.9321L87.7126 65.3025L86.6169 67.7325L87.8324 68.286L88.5074 66.7895L89.3197 67.1599L88.6452 68.6575L90.0258 69.2868L91.1933 66.6977L92.006 67.0681L90.447 70.5249L85.4131 68.2292Z" fill="#98A445"/>
<path fill-rule="evenodd" clip-rule="evenodd" d="M5.06066 49.2083C5.06066 50.4819 4.03519 51.5136 2.76959 51.5136C1.50451 51.5136 0.478516 50.4819 0.478516 49.2083C0.478516 47.9374 1.50451 46.9062 2.76959 46.9062C4.03519 46.9062 5.06066 47.9374 5.06066 49.2083Z" fill="#98A445"/>
<path fill-rule="evenodd" clip-rule="evenodd" d="M95.3097 49.2083C95.3097 50.4819 94.2853 51.5136 93.0191 51.5136C91.7546 51.5136 90.7275 50.4819 90.7275 49.2083C90.7275 47.9374 91.7546 46.9062 93.0191 46.9062C94.2853 46.9062 95.3097 47.9374 95.3097 49.2083Z" fill="#98A445"/>
<path fill-rule="evenodd" clip-rule="evenodd" d="M19.417 49.3853C19.417 40.4015 24.4847 30.3669 35.4576 30.3669C42.5108 30.3669 45.8548 33.9394 48.2578 37.7746L42.6676 40.9794C41.0478 38.5627 38.9056 36.4612 35.4576 36.4612C28.0904 36.4612 25.8954 43.6588 25.8954 49.3853C25.8954 56.0049 28.6647 62.3093 35.4576 62.3093C39.5326 62.3093 42.5108 59.2616 42.5108 55.427V54.8491H36.0841V48.9119H48.8853V54.0085C48.8853 63.3595 43.0333 68.403 35.4576 68.403C24.1717 68.403 19.417 58.999 19.417 49.3853Z" fill="#98A445"/>
<path fill-rule="evenodd" clip-rule="evenodd" d="M55.0508 30.9976H78.6671V36.9342H61.3207V45.8124H72.3972V51.7491H61.3207V67.7728H55.0508V30.9976Z" fill="#98A445"/>
</svg>
