<svg width="92" height="97" viewBox="0 0 92 97" fill="none" xmlns="http://www.w3.org/2000/svg">
<path fill-rule="evenodd" clip-rule="evenodd" d="M11.353 24.9835L5.64782 24.9846C5.46813 24.9824 5.22261 24.9636 5.00623 24.9383C5.16272 25.0152 5.34942 25.1234 5.49403 25.2181L9.48222 27.8269L8.77804 28.8975L2.46094 24.7661L3.14785 23.7224L8.74836 23.7434C8.94316 23.7423 9.18274 23.7698 9.39858 23.795C9.22429 23.7068 9.03759 23.5987 8.90215 23.5094L4.9771 20.942L5.68127 19.8713L11.9978 24.0032L11.353 24.9835Z" fill="#98A445"/>
<path fill-rule="evenodd" clip-rule="evenodd" d="M20.1058 11.2222C19.3623 10.2323 18.1034 9.39783 16.9287 10.2742C15.754 11.1507 16.2466 12.6512 16.9449 13.5814C17.6814 14.5627 18.9468 15.4052 20.1215 14.5288C21.2876 13.6589 20.7971 12.1438 20.1058 11.2222ZM15.8729 14.3799C14.7554 12.8912 14.2417 10.7349 16.1848 9.28439C18.1371 7.828 20.0581 8.93361 21.1761 10.4239C22.2947 11.9136 22.8165 14.0624 20.8648 15.5188C18.9217 16.9693 16.991 15.8702 15.8729 14.3799Z" fill="#98A445"/>
<path fill-rule="evenodd" clip-rule="evenodd" d="M36.037 8.08347L31.6684 4.4277C31.5319 4.31095 31.356 4.13879 31.2076 3.98115C31.2777 4.13987 31.3495 4.3427 31.3997 4.50786L32.7713 9.06157L31.5421 9.42957L29.3691 2.2181L30.5676 1.85871L34.8423 5.46498C34.9918 5.58872 35.1574 5.76358 35.3064 5.92068C35.2303 5.74206 35.1574 5.53869 35.111 5.38374L33.7604 0.902128L34.9907 0.534668L37.1631 7.74614L36.037 8.08347Z" fill="#98A445"/>
<path fill-rule="evenodd" clip-rule="evenodd" d="M46.426 2.94287L49.1677 2.99237L49.145 4.20934L46.4033 4.15877L46.426 2.94287Z" fill="#98A445"/>
<path fill-rule="evenodd" clip-rule="evenodd" d="M59.1999 4.49613C59.7897 2.7519 61.4403 1.13895 63.5879 1.86096C64.9682 2.32526 65.3886 3.23826 65.6071 4.14104L64.3024 4.39552C64.1443 3.81931 63.8631 3.27108 63.1881 3.04404C61.7463 2.55822 60.8441 3.81124 60.468 4.92169C60.0331 6.207 60.1609 7.61282 61.4905 8.05936C62.2886 8.32837 63.0715 7.93347 63.323 7.18833L63.3608 7.07696L62.103 6.65355L62.4926 5.50059L64.9985 6.34365L64.6639 7.33305C64.0493 9.14776 62.573 9.74172 61.0907 9.24244C58.8816 8.49945 58.5686 6.36141 59.1999 4.49613Z" fill="#98A445"/>
<path fill-rule="evenodd" clip-rule="evenodd" d="M76.0283 17.7834L78.5552 14.671C78.7252 14.4617 79.0134 14.1411 79.1596 13.9953C78.9 14.1604 78.5601 14.3568 78.307 14.4988L74.2859 16.5422L75.4676 12.1784C75.5383 11.904 75.6538 11.5398 75.7612 11.2525C75.6489 11.4252 75.3942 11.7738 75.2243 11.9831L72.6973 15.0944L71.6904 14.282L76.4454 8.42578L77.4604 9.24571L76.1788 13.9027C76.1227 14.0921 76.052 14.2987 75.9851 14.466C76.1357 14.3659 76.324 14.2546 76.4977 14.1604L80.8081 11.9481L81.7901 12.7406L77.0352 18.5958L76.0283 17.7834Z" fill="#98A445"/>
<path fill-rule="evenodd" clip-rule="evenodd" d="M88.8381 28.0642C89.9076 27.4369 90.8789 26.2812 90.1353 25.0201C89.3918 23.758 87.842 24.0797 86.8373 24.6688C85.7764 25.2902 84.796 26.4513 85.5395 27.7123C86.2777 28.9648 87.8426 28.6474 88.8381 28.0642ZM86.159 23.5188C87.7692 22.5751 89.9751 22.3061 91.2059 24.393C92.4416 26.4891 91.1255 28.2715 89.5159 29.2141C87.9062 30.1578 85.7047 30.4359 84.4695 28.3399C83.2392 26.2529 84.5499 24.4613 86.159 23.5188Z" fill="#98A445"/>
<path fill-rule="evenodd" clip-rule="evenodd" d="M5.43876 75.5426L8.0596 70.4902C8.14378 70.3326 8.27328 70.1238 8.39523 69.9441C8.25547 70.0479 8.07255 70.1625 7.92254 70.2465L3.766 72.5804L3.13574 71.4645L9.71833 67.77L10.3319 68.8573L7.74016 73.8065C7.6522 73.9792 7.5173 74.1788 7.39535 74.3585C7.55399 74.2439 7.73692 74.1293 7.87829 74.0507L11.9685 71.7545L12.5982 72.8693L6.01559 76.5649L5.43876 75.5426Z" fill="#98A445"/>
<path fill-rule="evenodd" clip-rule="evenodd" d="M19.7081 85.8089C20.5045 84.8599 21.0296 83.4465 19.9039 82.5071C18.7783 81.5689 17.4272 82.3904 16.6798 83.2819C15.8904 84.2223 15.3578 85.6437 16.4834 86.5831C17.6004 87.5155 18.9672 86.6918 19.7081 85.8089ZM15.6535 82.4255C16.852 80.9987 18.8393 80.0055 20.7009 81.5587C22.5712 83.119 21.9323 85.2377 20.7344 86.6655C19.537 88.0923 17.5578 89.093 15.6875 87.5323C13.8259 85.978 14.4561 83.8534 15.6535 82.4255Z" fill="#98A445"/>
<path fill-rule="evenodd" clip-rule="evenodd" d="M32.6561 96.6154L31.265 91.0987C31.2229 90.9255 31.1814 90.6828 31.1533 90.4681C31.1166 90.6387 31.0562 90.8442 31.0001 91.0072L29.4347 95.4996L28.2217 95.0794L30.7001 87.9653L31.8823 88.3753L33.2276 93.7952C33.2761 93.9819 33.3074 94.2208 33.3355 94.436C33.3786 94.246 33.4391 94.0389 33.4925 93.8867L35.032 89.4658L36.245 89.8849L33.7672 97.0001L32.6561 96.6154Z" fill="#98A445"/>
<path fill-rule="evenodd" clip-rule="evenodd" d="M45.0565 94.8752L47.7982 94.9194L47.7788 96.1353L45.0371 96.0911L45.0565 94.8752Z" fill="#98A445"/>
<path fill-rule="evenodd" clip-rule="evenodd" d="M57.4902 93.7887C56.9355 92.0338 57.3143 89.7601 59.476 89.0812C60.8649 88.6438 61.7445 89.135 62.4546 89.7359L61.5513 90.7076C61.0829 90.3358 60.5314 90.0582 59.8521 90.2718C58.4005 90.728 58.413 92.2694 58.7664 93.3874C59.1754 94.6808 60.11 95.7412 61.4482 95.3199C62.2506 95.0676 62.6494 94.2891 62.4125 93.5396L62.3769 93.4261L61.111 93.8243L60.744 92.6643L63.2656 91.8718L63.5807 92.8671C64.1575 94.6948 63.3168 96.0414 61.8243 96.5105C59.6012 97.2089 58.0838 95.6664 57.4902 93.7887Z" fill="#98A445"/>
<path fill-rule="evenodd" clip-rule="evenodd" d="M78.8585 86.8113L76.3526 83.6844C76.1848 83.474 75.9323 83.1238 75.8211 82.9516C75.9269 83.2384 76.0461 83.6117 76.1303 83.8888L77.27 88.2413L73.2499 86.1555C72.9963 86.0274 72.6645 85.837 72.4065 85.6712C72.5517 85.817 72.8377 86.1399 73.0055 86.3502L75.5114 89.4771L74.4996 90.2831L69.7852 84.3989L70.805 83.5865L75.0911 85.8321C75.2643 85.9284 75.4515 86.0409 75.6015 86.142C75.5357 85.9736 75.4666 85.767 75.411 85.5776L74.1694 80.9066L75.1558 80.1206L79.8703 86.0053L78.8585 86.8113Z" fill="#98A445"/>
<path fill-rule="evenodd" clip-rule="evenodd" d="M86.6859 70.9306C85.6121 70.3108 84.1255 70.0365 83.3894 71.3024C82.6534 72.5678 83.6976 73.7552 84.7055 74.3384C85.7702 74.9533 87.2659 75.2325 88.0014 73.9666C88.732 72.7098 87.6847 71.5074 86.6859 70.9306ZM84.0348 75.4925C82.4198 74.5591 81.0988 72.7772 82.3156 70.6817C83.5384 68.5781 85.741 68.8438 87.356 69.7767C88.9716 70.7102 90.2979 72.4829 89.0757 74.5865C87.8584 76.6821 85.6504 76.4255 84.0348 75.4925Z" fill="#98A445"/>
<path fill-rule="evenodd" clip-rule="evenodd" d="M4.09192 50.2845C4.09192 51.1755 3.36885 51.8964 2.47635 51.8964C1.58493 51.8964 0.861328 51.1755 0.861328 50.2845C0.861328 49.3968 1.58493 48.6748 2.47635 48.6748C3.36885 48.6748 4.09192 49.3968 4.09192 50.2845Z" fill="#98A445"/>
<path fill-rule="evenodd" clip-rule="evenodd" d="M91.6847 50.2845C91.6847 51.1755 90.9616 51.8964 90.0691 51.8964C89.1777 51.8964 88.4541 51.1755 88.4541 50.2845C88.4541 49.3968 89.1777 48.6748 90.0691 48.6748C90.9616 48.6748 91.6847 49.3968 91.6847 50.2845Z" fill="#98A445"/>
<path fill-rule="evenodd" clip-rule="evenodd" d="M24.4658 59.4134C24.4658 55.479 26.6728 51.084 31.4499 51.084C34.5213 51.084 35.9771 52.6485 37.0234 54.3282L34.5898 55.7318C33.884 54.673 32.9516 53.753 31.4499 53.753C28.2425 53.753 27.2874 56.9052 27.2874 59.4134C27.2874 62.3133 28.4929 65.0738 31.4499 65.0738C33.2241 65.0738 34.5213 63.7396 34.5213 62.0599V61.8065H31.7229V59.2063H37.2964V61.4385C37.2964 65.5344 34.749 67.7434 31.4499 67.7434C26.5363 67.7434 24.4658 63.6244 24.4658 59.4134Z" fill="#98A445"/>
<path fill-rule="evenodd" clip-rule="evenodd" d="M52.3119 67.4673V58.9076C52.3119 58.3325 52.3578 57.4119 52.4031 56.9745C52.1986 57.5954 51.9024 58.3777 51.6752 58.9533L47.8073 67.7439L43.94 58.9076C43.6896 58.3551 43.3945 57.5954 43.19 56.9745C43.2353 57.4119 43.2806 58.3325 43.2806 58.9076V67.4673H40.5508V51.3599H43.3033L47.3978 60.8175C47.5575 61.2081 47.7167 61.6455 47.8305 62.0135C47.9439 61.6455 48.1036 61.2081 48.2628 60.8175L52.3804 51.3599H55.0418V67.4673H52.3119Z" fill="#98A445"/>
<path fill-rule="evenodd" clip-rule="evenodd" d="M69.4892 59.4134C69.4892 56.7669 68.4197 53.7299 65.3257 53.7299C62.2321 53.7299 61.1626 56.9283 61.1626 59.4134C61.1626 62.0367 62.2321 65.0969 65.3257 65.0969C68.3971 65.0969 69.4892 61.8753 69.4892 59.4134ZM58.3418 59.4134C58.3418 55.4327 60.2072 51.084 65.3258 51.084C70.4672 51.084 72.3099 55.4327 72.3099 59.4134C72.3099 63.3942 70.4672 67.7434 65.3258 67.7434C60.2072 67.7434 58.3418 63.3942 58.3418 59.4134Z" fill="#98A445"/>
<path fill-rule="evenodd" clip-rule="evenodd" d="M34.9299 45.7561L28.3328 35.5856C28.1283 35.2633 27.8779 34.8033 27.6734 34.3885C27.7187 34.7571 27.7414 35.2171 27.7414 35.5856V45.7561H25.0342V29.6487H27.6734L34.1113 39.6583C34.3385 40.0037 34.5662 40.4637 34.7707 40.878C34.7254 40.4637 34.7027 40.0037 34.7027 39.6583V29.6487H37.4099V45.7561H34.9299Z" fill="#98A445"/>
<path fill-rule="evenodd" clip-rule="evenodd" d="M51.8585 37.7023C51.8585 35.0558 50.789 32.0182 47.6949 32.0182C44.6014 32.0182 43.5319 35.2172 43.5319 37.7023C43.5319 40.3256 44.6014 43.3858 47.6949 43.3858C50.7663 43.3858 51.8585 40.1642 51.8585 37.7023ZM40.71 37.7023C40.71 33.7215 42.5754 29.3728 47.694 29.3728C52.8353 29.3728 54.6786 33.7215 54.6786 37.7023C54.6786 41.683 52.8353 46.0322 47.694 46.0322C42.5754 46.0322 40.71 41.683 40.71 37.7023Z" fill="#98A445"/>
<path fill-rule="evenodd" clip-rule="evenodd" d="M67.8733 45.7561L61.2767 35.5856C61.0716 35.2633 60.8212 34.8033 60.6167 34.3885C60.6621 34.7571 60.6847 35.2171 60.6847 35.5856V45.7561H57.9775V29.6487H60.6167L67.0542 39.6583C67.2819 40.0037 67.5096 40.4637 67.7141 40.878C67.6688 40.4637 67.6461 40.0037 67.6461 39.6583V29.6487H70.3533V45.7561H67.8733Z" fill="#98A445"/>
</svg>
