<svg width="99" height="103" viewBox="0 0 99 103" fill="none" xmlns="http://www.w3.org/2000/svg">
<path fill-rule="evenodd" clip-rule="evenodd" d="M10.627 21.9587C10.187 21.6288 9.42595 21.4205 8.81921 22.2514L7.50937 24.0457L9.58129 25.5967L10.8911 23.8024C11.4611 23.0219 11.1174 22.3259 10.627 21.9587ZM5.48047 24.4075L7.63412 21.4579C8.92176 19.6942 10.4741 19.9003 11.5447 20.7021C12.546 21.4513 13.2318 23.0149 11.9885 24.7172L10.7231 26.4507L13.3752 28.4363L12.4875 29.6524L5.48047 24.4075Z" fill="#98A445"/>
<path fill-rule="evenodd" clip-rule="evenodd" d="M27.3301 8.60764C27.1288 8.42788 26.8489 8.14728 26.6757 7.93956C26.7271 8.20976 26.784 8.60436 26.8192 8.86907L27.132 11.6746L29.3647 10.5319L27.3301 8.60764ZM30.3933 11.5303L27.3169 13.1054L27.5653 15.1392L26.1542 15.861L25.1221 6.50351L26.4438 5.82666L33.2636 12.2219L31.8639 12.9382L30.3933 11.5303Z" fill="#98A445"/>
<path fill-rule="evenodd" clip-rule="evenodd" d="M47.683 0.439697L49.1769 0.463812L49.0605 7.83625L53.2921 7.9042L53.2693 9.35381L47.5439 9.26174L47.683 0.439697Z" fill="#98A445"/>
<path fill-rule="evenodd" clip-rule="evenodd" d="M71.5171 5.31592L76.5334 8.00413L75.8758 9.26301L72.1795 7.28179L71.195 9.16491L73.4721 10.3849L72.8144 11.6438L70.5368 10.4227L69.4191 12.5618L73.3573 14.6723L72.6992 15.9312L67.4414 13.1131L71.5171 5.31592Z" fill="#98A445"/>
<path fill-rule="evenodd" clip-rule="evenodd" d="M90.5057 28.0966C91.6883 27.2806 92.7156 25.8534 91.7619 24.4378C90.8088 23.0216 89.0497 23.5193 87.939 24.286C86.7672 25.0955 85.7291 26.5292 86.6828 27.9453C87.6294 29.3506 89.4053 28.8568 90.5057 28.0966ZM87.0698 22.9948C88.8489 21.7666 91.3668 21.2788 92.9446 23.6212C94.5294 25.9745 93.154 28.1591 91.3755 29.3873C89.5958 30.616 87.0849 31.1147 85.5001 28.7614C83.9224 26.419 85.2907 24.2235 87.0698 22.9948Z" fill="#98A445"/>
<path fill-rule="evenodd" clip-rule="evenodd" d="M14.0294 77.9055C14.4965 77.6172 14.975 76.9825 14.4446 76.0996L13.2977 74.1946L11.098 75.5521L12.2438 77.4572C12.7423 78.2853 13.5082 78.2266 14.0294 77.9055ZM13.7326 72.1558L15.6173 75.2879C16.7436 77.1606 15.9691 78.5379 14.8319 79.2399C13.7694 79.8954 12.0807 79.948 10.9933 78.14L9.88592 76.2991L7.06923 78.0364L6.29199 76.7452L13.7326 72.1558Z" fill="#98A445"/>
<path fill-rule="evenodd" clip-rule="evenodd" d="M28.1154 91.2755C28.1549 91.0075 28.2361 90.6173 28.3135 90.3564C28.1175 90.5471 27.8215 90.8096 27.6207 90.9834L25.4643 92.7738L27.6255 94.0514L28.1154 91.2755ZM27.3558 95.4684L24.3773 93.7081L22.8255 95.0245L21.46 94.2172L28.6603 88.2544L29.9398 89.0107L28.342 98.2849L26.9867 97.4842L27.3558 95.4684Z" fill="#98A445"/>
<path fill-rule="evenodd" clip-rule="evenodd" d="M46.2954 94.0859L47.7892 94.1101L47.6728 101.482L51.9044 101.55L51.8816 103L46.1562 102.908L46.2954 94.0859Z" fill="#98A445"/>
<path fill-rule="evenodd" clip-rule="evenodd" d="M65.6973 90.7505L70.7142 88.0579L71.3723 89.3167L67.6761 91.3007L68.6617 93.1833L70.9393 91.9611L71.5975 93.2194L69.3204 94.4416L70.4403 96.5807L74.3784 94.4668L75.0372 95.7251L69.7789 98.5476L65.6973 90.7505Z" fill="#98A445"/>
<path fill-rule="evenodd" clip-rule="evenodd" d="M88.1042 75.7754C86.8972 74.996 85.1971 74.6014 84.2873 76.0472C83.378 77.493 84.5222 78.9338 85.6561 79.6655C86.8523 80.4377 88.5632 80.8388 89.4725 79.3936C90.3759 77.9583 89.2273 76.4999 88.1042 75.7754ZM84.8257 80.9835C83.0098 79.8112 81.5738 77.6601 83.0796 75.2678C84.5913 72.8657 87.1174 73.2855 88.9333 74.4573C90.7492 75.629 92.1911 77.7703 90.6794 80.1724C89.1736 82.5641 86.6416 82.1553 84.8257 80.9835Z" fill="#98A445"/>
<path fill-rule="evenodd" clip-rule="evenodd" d="M5.66694 53.6361C5.66694 54.9515 4.61529 56.0158 3.3179 56.0158C2.01997 56.0158 0.967773 54.9515 0.967773 53.6361C0.967773 52.3235 2.01997 51.2576 3.3179 51.2576C4.61529 51.2576 5.66694 52.3235 5.66694 53.6361Z" fill="#98A445"/>
<path fill-rule="evenodd" clip-rule="evenodd" d="M98.4013 53.6361C98.4013 54.9515 97.3497 56.0158 96.0512 56.0158C94.7543 56.0158 93.7021 54.9515 93.7021 53.6361C93.7021 52.3235 94.7543 51.2576 96.0512 51.2576C97.3497 51.2576 98.4013 52.3235 98.4013 53.6361Z" fill="#98A445"/>
<path fill-rule="evenodd" clip-rule="evenodd" d="M61.0254 45.689C61.0254 43.3017 59.793 40.1005 55.3985 40.1005H45.9147V51.3318H55.3985C59.525 51.3318 61.0254 48.3476 61.0254 45.689ZM39.4854 33.9158H55.0784C64.4015 33.9158 67.6701 39.8835 67.6701 45.6891C67.6701 51.1143 64.0805 57.5172 55.0784 57.5172H45.9155V71.8949H39.4854V33.9158Z" fill="#98A445"/>
</svg>
