<svg width="97" height="99" viewBox="0 0 97 99" fill="none" xmlns="http://www.w3.org/2000/svg">
<path fill-rule="evenodd" clip-rule="evenodd" d="M7.71582 26.3677C8.14017 25.6488 7.83814 25.1492 7.36712 24.8721C6.93258 24.6164 6.33227 24.5373 5.88592 25.2931L4.84088 27.0625L6.67078 28.1371L7.71582 26.3677ZM3.13379 27.5493L4.82099 24.693C5.7684 23.0894 7.02535 23.1322 8.04143 23.7292C8.78068 24.164 9.36758 25.0669 9.10632 26.142L12.521 26.4095L11.786 27.6536L8.51889 27.4102L7.72437 28.756L10.256 30.243L9.60309 31.3486L3.13379 27.5493Z" fill="#98A445"/>
<path fill-rule="evenodd" clip-rule="evenodd" d="M16.5259 14.5473C16.3194 14.4435 16.0259 14.2739 15.8365 14.1407C15.9374 14.352 16.0699 14.6633 16.1563 14.873L17.0216 17.1088L18.6375 15.685L16.5259 14.5473ZM19.7098 16.2809L17.4834 18.2434L18.1283 19.8599L17.1079 20.759L14.2324 13.3L15.1889 12.457L22.2527 16.2253L21.2393 17.118L19.7098 16.2809Z" fill="#98A445"/>
<path fill-rule="evenodd" clip-rule="evenodd" d="M25.0107 5.63468L26.2285 5.12761L28.7537 8.8547C28.9458 9.14568 29.0643 9.31684 29.1502 9.46661C29.104 9.3008 29.0649 9.09647 29.0117 8.74719L28.3288 4.25414L29.339 3.83372L32.0782 7.45971C32.2998 7.73893 32.4076 7.91383 32.4934 8.0636C32.4473 7.89725 32.3985 7.6972 32.34 7.36183L31.4591 2.95115L32.6571 2.45264L34.0551 9.98813L32.9655 10.4412L30.0563 6.63064C29.8615 6.38727 29.7435 6.21664 29.6491 6.04654C29.7038 6.23268 29.7424 6.43701 29.7848 6.7328L30.4795 11.4762L29.39 11.9292L25.0107 5.63468Z" fill="#98A445"/>
<path fill-rule="evenodd" clip-rule="evenodd" d="M53.1188 0.323242L57.9256 0.965107L57.7641 2.16325L54.2342 1.69202L53.9933 3.48336L56.2475 3.78503L56.0866 4.98264L53.8323 4.6815L53.3978 7.91489L52.1221 7.7448L53.1188 0.323242Z" fill="#98A445"/>
<path fill-rule="evenodd" clip-rule="evenodd" d="M70.1531 9.13317C70.6757 8.019 70.8184 6.5272 69.497 5.91155C68.1752 5.29536 67.0872 6.42878 66.5969 7.47502C66.0786 8.5801 65.9317 10.081 67.253 10.6972C68.5647 11.3086 69.6671 10.1698 70.1531 9.13317ZM65.3923 6.91404C66.1782 5.2377 67.8338 3.778 70.0199 4.79696C72.2162 5.82127 72.1443 8.01912 71.3584 9.69492C70.5725 11.3713 68.9266 12.8352 66.7308 11.8115C64.5447 10.7925 64.6064 8.58984 65.3923 6.91404Z" fill="#98A445"/>
<path fill-rule="evenodd" clip-rule="evenodd" d="M82.491 18.3562C83.3456 17.4693 83.9631 16.1027 82.9111 15.095C81.8591 14.0872 80.4626 14.8109 79.6601 15.6443C78.8124 16.5231 78.1869 17.8972 79.2389 18.905C80.284 19.9052 81.696 19.1815 82.491 18.3562ZM78.7005 14.7249C79.9859 13.3908 82.025 12.5404 83.7653 14.2082C85.5142 15.8829 84.7358 17.9411 83.4499 19.2751C82.164 20.6097 80.1324 21.4666 78.3845 19.7924C76.6437 18.1246 77.4141 16.0594 78.7005 14.7249Z" fill="#98A445"/>
<path fill-rule="evenodd" clip-rule="evenodd" d="M91.0396 30.7001C92.1614 30.1144 93.0138 28.9938 92.3513 27.7331L91.7542 26.5959L87.2494 28.9483L87.7918 29.9812C88.5332 31.3933 89.9946 31.2457 91.0396 30.7001ZM93.306 26.9447C94.5249 29.2666 93.3103 31.012 91.6563 31.8753C90.136 32.6696 87.9123 32.8161 86.6334 30.3808L85.5781 28.3723L92.2309 24.8982L93.306 26.9447Z" fill="#98A445"/>
<path fill-rule="evenodd" clip-rule="evenodd" d="M9.18717 71.0637C9.56109 71.8098 10.1469 71.8291 10.6356 71.5852C11.0868 71.3605 11.48 70.901 11.0868 70.1169L10.1657 68.2806L8.26605 69.2269L9.18717 71.0637ZM10.6839 66.5872L12.1704 69.5526C13.0057 71.2166 12.2858 72.2452 11.2305 72.771C10.4634 73.154 9.38398 73.154 8.62112 72.35L6.53908 75.0624L5.89156 73.7707L7.87275 71.169L7.17265 69.7724L4.54394 71.0829L3.96777 69.9356L10.6839 66.5872Z" fill="#98A445"/>
<path fill-rule="evenodd" clip-rule="evenodd" d="M18.1463 81.6799C18.2365 81.4681 18.3872 81.1643 18.5079 80.9674C18.3035 81.0819 18.001 81.2338 17.7966 81.3333L15.6158 82.3394L17.1458 83.8537L18.1463 81.6799ZM16.6189 84.9598L14.5105 82.8726L12.9355 83.6199L11.9688 82.6635L19.2449 79.3162L20.1505 80.2126L16.841 87.4844L15.8818 86.535L16.6189 84.9598Z" fill="#98A445"/>
<path fill-rule="evenodd" clip-rule="evenodd" d="M27.2963 85.9333L28.4894 86.4955L27.4057 90.8597C27.3172 91.1966 27.2689 91.3988 27.2152 91.5625C27.3075 91.417 27.4336 91.2512 27.6578 90.9789L30.5457 87.4642L31.5349 87.9306L30.6696 92.3857C30.61 92.7366 30.5521 92.934 30.4984 93.0982C30.5913 92.9521 30.7071 92.782 30.9174 92.5146L33.6105 88.9084L34.7849 89.462L30.1111 95.5421L29.0441 95.0387L29.933 90.3349C29.9834 90.0274 30.0323 89.8252 30.095 89.6423C29.9931 89.807 29.867 89.9728 29.6755 90.2012L26.6096 93.8919L25.542 93.3886L27.2963 85.9333Z" fill="#98A445"/>
<path fill-rule="evenodd" clip-rule="evenodd" d="M50.6689 91.5559L55.4902 91.043L55.619 92.2449L52.0777 92.6214L52.2698 94.4192L54.531 94.1779L54.6592 95.3798L52.3985 95.6205L52.7456 98.8641L51.4656 98.9999L50.6689 91.5559Z" fill="#98A445"/>
<path fill-rule="evenodd" clip-rule="evenodd" d="M68.4113 90.6392C67.907 89.5165 66.8673 88.4339 65.5358 89.0286C64.2043 89.624 64.3545 91.1858 64.8277 92.2401C65.3282 93.3532 66.3716 94.446 67.7037 93.8512C69.025 93.2601 68.8807 91.6838 68.4113 90.6392ZM63.6144 92.7829C62.8553 91.0938 62.829 88.89 65.0312 87.9064C67.2442 86.9174 68.8665 88.4081 69.6256 90.0967C70.3847 91.7854 70.4206 93.9848 68.2082 94.9738C66.0055 95.9575 64.3735 94.4716 63.6144 92.7829Z" fill="#98A445"/>
<path fill-rule="evenodd" clip-rule="evenodd" d="M80.5512 81.706C79.6998 80.8154 78.3581 80.1398 77.3012 81.1433C76.2455 82.1467 76.9085 83.5701 77.7079 84.4066C78.5517 85.2897 79.9004 85.9728 80.9573 84.9699C82.0061 83.9734 81.343 82.5351 80.5512 81.706ZM76.7441 85.3217C75.4641 83.9813 74.7028 81.9129 76.4507 80.2526C78.206 78.5848 80.2339 79.4514 81.5139 80.7912C82.7944 82.1311 83.5637 84.1926 81.8079 85.8604C80.06 87.5201 78.0247 86.6616 76.7441 85.3217Z" fill="#98A445"/>
<path fill-rule="evenodd" clip-rule="evenodd" d="M88.8535 69.6058C87.7269 69.0287 86.3165 68.98 85.6647 70.2455L85.0762 71.3875L89.6008 73.7052L90.1351 72.668C90.8658 71.2495 89.9034 70.1434 88.8535 69.6058ZM84.4692 69.9219C85.6703 67.5903 87.8017 67.5748 89.4626 68.4258C90.9894 69.2078 92.3912 70.936 91.131 73.382L90.0919 75.3991L83.4102 71.9774L84.4692 69.9219Z" fill="#98A445"/>
<path fill-rule="evenodd" clip-rule="evenodd" d="M5.03948 50.9139C5.03948 52.1977 3.99711 53.2364 2.71012 53.2364C1.42474 53.2364 0.381836 52.1977 0.381836 50.9139C0.381836 49.6329 1.42474 48.5925 2.71012 48.5925C3.99711 48.5925 5.03948 49.6329 5.03948 50.9139Z" fill="#98A445"/>
<path fill-rule="evenodd" clip-rule="evenodd" d="M96.9545 50.9139C96.9545 52.1977 95.9132 53.2364 94.6262 53.2364C93.3408 53.2364 92.2969 52.1977 92.2969 50.9139C92.2969 49.6329 93.3408 48.5925 94.6262 48.5925C95.9132 48.5925 96.9545 49.6329 96.9545 50.9139Z" fill="#98A445"/>
<path fill-rule="evenodd" clip-rule="evenodd" d="M53.8277 48.1878C57.9704 48.1878 59.3512 45.646 59.3512 42.9454C59.3512 40.4571 58.1828 37.7029 53.8277 37.7029H43.6305V48.1878H53.8277ZM37.2568 31.6667H53.7211C62.9618 31.6667 65.936 37.121 65.936 42.9454C65.936 47.1817 63.5466 51.9475 58.2881 53.5361L65.7241 68.7339H58.5542L51.3843 54.2245H43.6301V68.7339H37.2568V31.6667Z" fill="#98A445"/>
</svg>
