<svg width="94" height="99" viewBox="0 0 94 99" fill="none" xmlns="http://www.w3.org/2000/svg">
<path fill-rule="evenodd" clip-rule="evenodd" d="M5.90332 21.9763L6.89445 20.7897L12.4416 22.9893C12.6362 23.0743 12.901 23.187 13.1674 23.3163C12.9853 23.0858 12.8287 22.8443 12.7106 22.6669L9.56867 17.5875L10.5447 16.4197L15.1018 24.0481L14.2022 25.1247L5.90332 21.9763Z" fill="#98A445"/>
<path fill-rule="evenodd" clip-rule="evenodd" d="M23.251 6.89724L28.1998 4.58862L28.7701 5.81856L25.124 7.51899L25.9772 9.35816L28.2238 8.31026L28.794 9.53915L26.548 10.5871L27.5172 12.6761L31.4021 10.864L31.9729 12.0934L26.7857 14.5132L23.251 6.89724Z" fill="#98A445"/>
<path fill-rule="evenodd" clip-rule="evenodd" d="M43.8026 5.21776C43.8348 3.16682 45.032 0.894199 47.5444 0.934363C49.1599 0.960443 49.9122 1.78823 50.4486 2.67234L49.1568 3.38329C48.7952 2.82622 48.3118 2.33852 47.522 2.326C45.8353 2.29888 45.3072 3.9341 45.2864 5.24176C45.2625 6.75284 45.8733 8.20237 47.4289 8.22741C48.3618 8.24202 49.0548 7.55715 49.0688 6.6819L49.0709 6.54994L47.5996 6.52646L47.6209 5.17082L50.5521 5.21776L50.5339 6.38146C50.4996 8.51586 49.1417 9.64617 47.4065 9.61852C44.8223 9.5768 43.7677 7.41267 43.8026 5.21776Z" fill="#98A445"/>
<path fill-rule="evenodd" clip-rule="evenodd" d="M68.3975 8.9234C68.4183 8.66625 68.4709 8.29018 68.5291 8.03824C68.3528 8.23176 68.0859 8.50038 67.9048 8.67773L65.9501 10.5179L68.1041 11.5909L68.3975 8.9234ZM67.9366 12.955L64.9679 11.4757L63.5632 12.8251L62.2021 12.1475L68.7285 6.02026L70.0037 6.65505L69.0609 15.5651L67.7114 14.8922L67.9366 12.955Z" fill="#98A445"/>
<path fill-rule="evenodd" clip-rule="evenodd" d="M81.6072 27.6696L83.7101 21.6868C83.7783 21.499 83.8891 21.2481 83.9947 21.0317C83.8568 21.1673 83.6742 21.3222 83.5218 21.4385L79.3143 24.6542L78.4512 23.5182L85.1138 18.4263L85.9556 19.5331L83.8688 25.398C83.7986 25.6025 83.6805 25.8435 83.5743 26.0604C83.7315 25.9107 83.9141 25.7553 84.0571 25.6463L88.1975 22.4823L89.0612 23.6173L82.398 28.7097L81.6072 27.6696Z" fill="#98A445"/>
<path fill-rule="evenodd" clip-rule="evenodd" d="M13.3431 70.792L14.2286 72.059L10.673 76.8572C10.5409 77.0231 10.3635 77.2505 10.1699 77.4742C10.4394 77.3584 10.7126 77.2687 10.9134 77.2009L16.6187 75.4765L17.4907 76.7242L8.96444 79.1564L8.16113 78.0073L13.3431 70.792Z" fill="#98A445"/>
<path fill-rule="evenodd" clip-rule="evenodd" d="M26.3795 84.3542L31.1832 86.9524L30.5406 88.1463L27.0012 86.2315L26.0408 88.0164L28.2212 89.1958L27.5792 90.3892L25.3982 89.2098L24.3072 91.2373L28.0787 93.2778L27.4356 94.4713L22.4004 91.7474L26.3795 84.3542Z" fill="#98A445"/>
<path fill-rule="evenodd" clip-rule="evenodd" d="M42.4475 94.3064C42.5005 92.2554 43.7201 89.9943 46.2325 90.0595C47.8474 90.1017 48.5925 90.9373 49.12 91.8272L47.8209 92.5256C47.4645 91.9644 46.9864 91.472 46.1966 91.4511C44.5099 91.4073 43.9646 93.0373 43.9313 94.345C43.8918 95.8566 44.489 97.3124 46.0441 97.3525C46.9775 97.3765 47.6773 96.6984 47.7002 95.8227L47.7033 95.6907L46.2314 95.6526L46.2668 94.2975L49.1981 94.3737L49.1679 95.5368C49.1127 97.6718 47.7434 98.789 46.0082 98.7436C43.424 98.6769 42.3913 96.5013 42.4475 94.3064Z" fill="#98A445"/>
<path fill-rule="evenodd" clip-rule="evenodd" d="M65.4328 88.5659C65.2409 88.3933 64.9745 88.1242 64.8096 87.9249C64.8564 88.1831 64.9084 88.5581 64.9396 88.8111L65.2185 91.4843L67.374 90.414L65.4328 88.5659ZM68.3552 91.3733L65.3844 92.8479L65.6071 94.7862L64.245 95.4622L63.3262 86.5454L64.6024 85.9116L71.109 92.0545L69.7578 92.7253L68.3552 91.3733Z" fill="#98A445"/>
<path fill-rule="evenodd" clip-rule="evenodd" d="M86.1232 77.436L79.8024 77.1653C79.6037 77.1549 79.3321 77.122 79.0943 77.0834C79.2639 77.1762 79.4653 77.3066 79.6208 77.4188L83.9157 80.514L83.0843 81.6735L76.2822 76.771L77.0928 75.6412L83.2966 75.9306C83.5125 75.9385 83.7763 75.9807 84.014 76.0193C83.8252 75.9129 83.6238 75.7825 83.4782 75.6772L79.2514 72.6305L80.0828 71.4709L86.8849 76.374L86.1232 77.436Z" fill="#98A445"/>
<path fill-rule="evenodd" clip-rule="evenodd" d="M4.85831 51.6685C4.85831 52.9204 3.84794 53.9333 2.60032 53.9333C1.35321 53.9333 0.341797 52.9204 0.341797 51.6685C0.341797 50.4193 1.35321 49.4048 2.60032 49.4048C3.84794 49.4048 4.85831 50.4193 4.85831 51.6685Z" fill="#98A445"/>
<path fill-rule="evenodd" clip-rule="evenodd" d="M93.9995 51.6685C93.9995 52.9204 92.9891 53.9333 91.7415 53.9333C90.4944 53.9333 89.4824 52.9204 89.4824 51.6685C89.4824 50.4193 90.4944 49.4048 91.7415 49.4048C92.9891 49.4048 93.9995 50.4193 93.9995 51.6685Z" fill="#98A445"/>
<path fill-rule="evenodd" clip-rule="evenodd" d="M30.6807 34.4641H37.3246L45.4112 58.8887C45.6693 59.7665 46.0298 60.9542 46.3389 62.1936C46.5964 60.9542 46.957 59.7665 47.214 58.8887L55.2497 34.4641H61.7911L49.2748 70.6107H43.2485L30.6807 34.4641Z" fill="#98A445"/>
</svg>
