<svg width="33" height="33" viewBox="0 0 33 33" fill="none" xmlns="http://www.w3.org/2000/svg">
<path opacity="0.5" d="M10.9717 26.8687H6.97168C6.41939 26.8687 5.97168 26.4209 5.97168 25.8687V22.8687C5.97168 22.3164 6.41939 21.8687 6.97168 21.8687H10.9717C11.524 21.8687 11.9717 22.3164 11.9717 22.8687V25.8687C11.9717 26.4209 11.524 26.8687 10.9717 26.8687Z" fill="#14D7A4"/>
<path opacity="0.5" d="M10.9717 19.8687H6.97168C6.41939 19.8687 5.97168 19.4209 5.97168 18.8687V15.8687C5.97168 15.3164 6.41939 14.8687 6.97168 14.8687H10.9717C11.524 14.8687 11.9717 15.3164 11.9717 15.8687V18.8687C11.9717 19.4209 11.524 19.8687 10.9717 19.8687Z" fill="#14D7A4"/>
<path opacity="0.5" d="M18.9717 26.8687H14.9717C14.4194 26.8687 13.9717 26.4209 13.9717 25.8687V22.8687C13.9717 22.3164 14.4194 21.8687 14.9717 21.8687H18.9717C19.524 21.8687 19.9717 22.3164 19.9717 22.8687V25.8687C19.9717 26.4209 19.524 26.8687 18.9717 26.8687Z" fill="#14D7A4"/>
<path opacity="0.5" d="M18.9717 19.8687H14.9717C14.4194 19.8687 13.9717 19.4209 13.9717 18.8687V15.8687C13.9717 15.3164 14.4194 14.8687 14.9717 14.8687H18.9717C19.524 14.8687 19.9717 15.3164 19.9717 15.8687V18.8687C19.9717 19.4209 19.524 19.8687 18.9717 19.8687Z" fill="#14D7A4"/>
<path opacity="0.5" d="M26.9717 19.8687H22.9717C22.4194 19.8687 21.9717 19.4209 21.9717 18.8687V15.8687C21.9717 15.3164 22.4194 14.8687 22.9717 14.8687H26.9717C27.524 14.8687 27.9717 15.3164 27.9717 15.8687V18.8687C27.9717 19.4209 27.524 19.8687 26.9717 19.8687Z" fill="#14D7A4"/>
<path fill-rule="evenodd" clip-rule="evenodd" d="M25.9717 4.86865H31.9717C32.524 4.86865 32.9717 5.31637 32.9717 5.86865V31.8687C32.9717 32.4209 32.524 32.8687 31.9717 32.8687H1.97168C1.41939 32.8687 0.97168 32.4209 0.97168 31.8687V5.86865C0.97168 5.31637 1.41939 4.86865 1.97168 4.86865H7.97168V1.86865C7.97168 1.31637 8.41939 0.868652 8.97168 0.868652C9.52396 0.868652 9.97168 1.31637 9.97168 1.86865V4.86865H23.9717V1.86865C23.9717 1.31637 24.4194 0.868652 24.9717 0.868652C25.524 0.868652 25.9717 1.31637 25.9717 1.86865V4.86865ZM2.97168 30.8687H30.9717V10.8687H2.97168V30.8687Z" fill="#14D7A4"/>
</svg>
