<svg width="32" height="32" viewBox="0 0 32 32" fill="none" xmlns="http://www.w3.org/2000/svg">
<path d="M19 17H13C12.448 17 12 17.448 12 18V31C12 31.552 12.448 32 13 32H19C19.552 32 20 31.552 20 31V18C20 17.448 19.552 17 19 17Z" fill="#4A90E2"/>
<path d="M7 23H1C0.448 23 0 23.448 0 24V31C0 31.552 0.448 32 1 32H7C7.552 32 8 31.552 8 31V24C8 23.448 7.552 23 7 23Z" fill="#4A90E2"/>
<path d="M31 11H25C24.448 11 24 11.448 24 12V31C24 31.552 24.448 32 25 32H31C31.552 32 32 31.552 32 31V12C32 11.448 31.552 11 31 11Z" fill="#4A90E2"/>
<path d="M16 12C16.256 12 16.512 11.902 16.707 11.707L25 3.414V8H27V1C27 0.448 26.552 0 26 0H19V2H23.586L16 9.586L11.707 5.293C11.316 4.902 10.684 4.902 10.293 5.293L5.29297 10.293L6.70697 11.707L11 7.414L15.293 11.707C15.488 11.902 15.744 12 16 12Z" fill="#8FBCEF"/>
</svg>
