<svg width="32" height="30" viewBox="0 0 32 30" fill="none" xmlns="http://www.w3.org/2000/svg">
<path d="M26.8954 20.553C26.7254 20.214 26.3794 20 26.0004 20H19.0004C18.5834 20 18.2104 20.259 18.0634 20.648L16.0004 26.151L13.9374 20.648C13.7904 20.259 13.4174 20 13.0004 20H6.00041C5.62141 20 5.27541 20.214 5.10541 20.553L1.10541 28.553C0.950409 28.863 0.96741 29.231 1.14941 29.526C1.33141 29.821 1.65341 30 2.00041 30H16.0004H30.0004C30.3474 30 30.6684 29.82 30.8514 29.525C31.0344 29.23 31.0504 28.862 30.8954 28.552L26.8954 20.553Z" fill="#FFB645"/>
<path d="M7.649 17.525C7.832 17.82 8.153 18 8.5 18H23.5C23.847 18 24.168 17.82 24.351 17.525C24.534 17.23 24.55 16.862 24.395 16.552L20.395 8.552C20.225 8.214 19.879 8 19.5 8H12.5C12.121 8 11.775 8.214 11.605 8.553L7.605 16.553C7.451 16.862 7.467 17.23 7.649 17.525Z" fill="#FFB645"/>
<rect y="15" width="5" height="2" fill="#FFDB93"/>
<rect x="3.97852" y="5.39355" width="1.99998" height="4.99895" transform="rotate(-45 3.97852 5.39355)" fill="#FFDB93"/>
<rect x="15" width="2" height="5" fill="#FFDB93"/>
<rect x="23.0713" y="7.51465" width="4.99895" height="1.99998" transform="rotate(-45 23.0713 7.51465)" fill="#FFDB93"/>
<rect x="27" y="15" width="5" height="2" fill="#FFDB93"/>
</svg>
