<svg width="162" height="106" viewBox="0 0 162 106" fill="none" xmlns="http://www.w3.org/2000/svg">
<path d="M97.416 104H86.616C85.368 104 84.36 103.688 83.592 103.064C82.824 102.44 82.248 101.648 81.864 100.688L72.216 75.776H25.92L16.272 100.688C15.936 101.552 15.36 102.32 14.544 102.992C13.728 103.664 12.72 104 11.52 104H0.72L41.976 0.823994H56.16L97.416 104ZM29.808 65.696H68.328L52.128 23.72C51.072 21.128 50.04 17.888 49.032 14C48.504 15.968 47.976 17.792 47.448 19.472C46.968 21.104 46.488 22.544 46.008 23.792L29.808 65.696ZM161.955 104H156.267C155.019 104 154.011 103.808 153.243 103.424C152.475 103.04 151.971 102.224 151.731 100.976L150.291 94.208C148.371 95.936 146.499 97.496 144.675 98.888C142.851 100.232 140.931 101.384 138.915 102.344C136.899 103.256 134.739 103.952 132.435 104.432C130.179 104.912 127.659 105.152 124.875 105.152C122.043 105.152 119.379 104.768 116.883 104C114.435 103.184 112.299 101.984 110.475 100.4C108.651 98.816 107.187 96.824 106.083 94.424C105.027 91.976 104.499 89.096 104.499 85.784C104.499 82.904 105.291 80.144 106.875 77.504C108.459 74.816 111.003 72.44 114.507 70.376C118.059 68.312 122.691 66.632 128.403 65.336C134.115 63.992 141.099 63.224 149.355 63.032V57.344C149.355 51.68 148.131 47.408 145.683 44.528C143.283 41.6 139.707 40.136 134.955 40.136C131.835 40.136 129.195 40.544 127.035 41.36C124.923 42.128 123.075 43.016 121.491 44.024C119.955 44.984 118.611 45.872 117.459 46.688C116.355 47.456 115.251 47.84 114.147 47.84C113.283 47.84 112.515 47.624 111.843 47.192C111.219 46.712 110.715 46.136 110.331 45.464L108.027 41.36C112.059 37.472 116.403 34.568 121.059 32.648C125.715 30.728 130.875 29.768 136.539 29.768C140.619 29.768 144.243 30.44 147.411 31.784C150.579 33.128 153.243 35 155.403 37.4C157.563 39.8 159.195 42.704 160.299 46.112C161.403 49.52 161.955 53.264 161.955 57.344V104ZM128.691 96.152C130.947 96.152 133.011 95.936 134.883 95.504C136.755 95.024 138.507 94.376 140.139 93.56C141.819 92.696 143.403 91.664 144.891 90.464C146.427 89.264 147.915 87.896 149.355 86.36V71.168C143.451 71.36 138.435 71.84 134.307 72.608C130.179 73.328 126.819 74.288 124.227 75.488C121.635 76.688 119.739 78.104 118.539 79.736C117.387 81.368 116.811 83.192 116.811 85.208C116.811 87.128 117.123 88.784 117.747 90.176C118.371 91.568 119.211 92.72 120.267 93.632C121.323 94.496 122.571 95.144 124.011 95.576C125.451 95.96 127.011 96.152 128.691 96.152Z" fill="#0A0A12"/>
</svg>
