<svg width="46" height="46" viewBox="0 0 46 46" fill="none" xmlns="http://www.w3.org/2000/svg">
<path d="M33 14C29.0334 14 25.6165 16.3154 24 19.663V1C24 0.44775 23.5527 0 23 0C22.4473 0 22 0.44775 22 1V9.66302C20.3835 6.31537 16.9665 4 13 4H11V8C11 13.5228 15.4772 18 21 18H22V33C22 33.5522 22.4473 34 23 34C23.5527 34 24 33.5522 24 33V28H25C30.5228 28 35 23.5228 35 18V14H33Z" fill="#9DD3FF"/>
<path d="M45 44H33.9443C33.4453 39.5064 29.625 36 25 36C21.7363 36 18.7881 37.7412 17.1992 40.523C16.5156 40.1816 15.7637 40 15 40C12.585 40 10.5654 41.7207 10.1006 44H1C0.44727 44 0 44.4478 0 45C0 45.5522 0.44727 46 1 46H45C45.5527 46 46 45.5522 46 45C46 44.4478 45.5527 44 45 44Z" fill="#2282CF"/>
</svg>
