<svg width="46" height="38" viewBox="0 0 46 38" fill="none" xmlns="http://www.w3.org/2000/svg">
<path d="M9 10C11.7614 10 14 7.76142 14 5C14 2.23858 11.7614 0 9 0C6.23858 0 4 2.23858 4 5C4 7.76142 6.23858 10 9 10Z" fill="#42A88B"/>
<path d="M38.9996 12C34.1866 12 31.8046 14.958 29.6996 17.568C28.1996 19.434 26.7706 21.193 24.4736 22.055C24.5156 22.13 24.5736 22.196 24.6056 22.273C25.0667 23.2295 25.1254 24.3309 24.7686 25.331C24.6966 25.5357 24.6076 25.7341 24.5026 25.924C24.6643 25.9706 24.8314 25.9961 24.9996 26C25.2262 25.9999 25.4512 25.961 25.6646 25.885C28.188 24.9128 30.3844 23.2458 31.9996 21.077V37C31.9996 37.5523 32.4473 38 32.9996 38H44.9996C45.5519 38 45.9996 37.5523 45.9996 37V19C45.9947 15.1361 42.8636 12.005 38.9996 12Z" fill="#7AEDCB"/>
<path d="M21.665 22.114C19.281 21.273 17.832 19.474 16.298 17.568C14.2 14.958 11.813 12 7 12C3.13606 12.005 0.00495836 15.1361 0 19V37C0 37.5523 0.447715 38 1 38H13C13.5523 38 14 37.5523 14 37V21.077C15.6151 23.2461 17.8115 24.9135 20.335 25.886C21.3714 26.2353 22.4962 25.6872 22.8599 24.6558C23.2235 23.6243 22.6913 22.492 21.665 22.114Z" fill="#42A88B"/>
<path d="M37 10C39.7614 10 42 7.76142 42 5C42 2.23858 39.7614 0 37 0C34.2386 0 32 2.23858 32 5C32 7.76142 34.2386 10 37 10Z" fill="#7AEDCB"/>
</svg>
