<svg width="46" height="46" viewBox="0 0 46 46" fill="none" xmlns="http://www.w3.org/2000/svg">
<path fill-rule="evenodd" clip-rule="evenodd" d="M11 30H26V34H3C1.346 34 0 32.654 0 31V3C0 1.346 1.346 0 3 0H39C40.654 0 42 1.346 42 3V14.101C41.677 14.035 41.342 14 41 14H38V5C38 4.447 37.552 4 37 4H11C10.448 4 10 4.447 10 5V29C10 29.553 10.448 30 11 30ZM2 17C2 18.654 3.346 20 5 20C6.654 20 8 18.654 8 17C8 15.346 6.654 14 5 14C3.346 14 2 15.346 2 17Z" fill="#D62D70"/>
<path fill-rule="evenodd" clip-rule="evenodd" d="M43 16H31C29.346 16 28 17.346 28 19V43C28 44.654 29.346 46 31 46H43C44.654 46 46 44.654 46 43V19C46 17.346 44.654 16 43 16ZM37 44C35.897 44 35 43.103 35 42C35 40.897 35.897 40 37 40C38.103 40 39 40.897 39 42C39 43.103 38.103 44 37 44ZM42 38C42.552 38 43 37.553 43 37V20C43 19.447 42.552 19 42 19H32C31.448 19 31 19.447 31 20V37C31 37.553 31.448 38 32 38H42Z" fill="#FF9BC3"/>
</svg>
