<svg width="164" height="105" viewBox="0 0 164 105" fill="none" xmlns="http://www.w3.org/2000/svg">
<path d="M67.4141 76.2812H24.5234L14.8906 103H0.96875L40.0625 0.625H51.875L91.0391 103H77.1875L67.4141 76.2812ZM28.6016 65.1719H63.4062L45.9688 17.2891L28.6016 65.1719ZM149.75 103C149 101.5 148.391 98.8281 147.922 94.9844C141.875 101.266 134.656 104.406 126.266 104.406C118.766 104.406 112.602 102.297 107.773 98.0781C102.992 93.8125 100.602 88.4219 100.602 81.9062C100.602 73.9844 103.602 67.8438 109.602 63.4844C115.648 59.0781 124.133 56.875 135.055 56.875H147.711V50.8984C147.711 46.3516 146.352 42.7422 143.633 40.0703C140.914 37.3516 136.906 35.9922 131.609 35.9922C126.969 35.9922 123.078 37.1641 119.938 39.5078C116.797 41.8516 115.227 44.6875 115.227 48.0156H102.148C102.148 44.2188 103.484 40.5625 106.156 37.0469C108.875 33.4844 112.531 30.6719 117.125 28.6094C121.766 26.5469 126.852 25.5156 132.383 25.5156C141.148 25.5156 148.016 27.7187 152.984 32.125C157.953 36.4844 160.531 42.5078 160.719 50.1953V85.2109C160.719 92.1953 161.609 97.75 163.391 101.875V103H149.75ZM128.164 93.0859C132.242 93.0859 136.109 92.0312 139.766 89.9219C143.422 87.8125 146.07 85.0703 147.711 81.6953V66.0859H137.516C121.578 66.0859 113.609 70.75 113.609 80.0781C113.609 84.1562 114.969 87.3438 117.688 89.6406C120.406 91.9375 123.898 93.0859 128.164 93.0859Z" fill="#0A0A12"/>
</svg>
