<svg width="32" height="32" viewBox="0 0 32 32" fill="none" xmlns="http://www.w3.org/2000/svg">
<path d="M7 8H1C0.448 8 0 7.552 0 7V1C0 0.448 0.448 0 1 0H7C7.552 0 8 0.448 8 1V7C8 7.552 7.552 8 7 8Z" fill="#7D69FF"/>
<path d="M19 8H13C12.448 8 12 7.552 12 7V1C12 0.448 12.448 0 13 0H19C19.552 0 20 0.448 20 1V7C20 7.552 19.552 8 19 8Z" fill="#7D69FF"/>
<path d="M19 20H13C12.448 20 12 19.552 12 19V13C12 12.448 12.448 12 13 12H19C19.552 12 20 12.448 20 13V19C20 19.552 19.552 20 19 20Z" fill="#7D69FF"/>
<path d="M31 8H25C24.448 8 24 7.552 24 7V1C24 0.448 24.448 0 25 0H31C31.552 0 32 0.448 32 1V7C32 7.552 31.552 8 31 8Z" fill="#7D69FF"/>
<path d="M7 20H1C0.448 20 0 19.552 0 19V13C0 12.448 0.448 12 1 12H7C7.552 12 8 12.448 8 13V19C8 19.552 7.552 20 7 20Z" fill="#7D69FF"/>
<path d="M7 32H1C0.448 32 0 31.552 0 31V25C0 24.448 0.448 24 1 24H7C7.552 24 8 24.448 8 25V31C8 31.552 7.552 32 7 32Z" fill="#7D69FF"/>
<path opacity="0.5" d="M29.5 18H26.5C26.224 18 26 17.776 26 17.5V14.5C26 14.224 26.224 14 26.5 14H29.5C29.776 14 30 14.224 30 14.5V17.5C30 17.776 29.776 18 29.5 18Z" fill="#7D69FF"/>
<path opacity="0.5" d="M17.5 30H14.5C14.224 30 14 29.776 14 29.5V26.5C14 26.224 14.224 26 14.5 26H17.5C17.776 26 18 26.224 18 26.5V29.5C18 29.776 17.776 30 17.5 30Z" fill="#7D69FF"/>
<path opacity="0.5" d="M29.5 30H26.5C26.224 30 26 29.776 26 29.5V26.5C26 26.224 26.224 26 26.5 26H29.5C29.776 26 30 26.224 30 26.5V29.5C30 29.776 29.776 30 29.5 30Z" fill="#7D69FF"/>
</svg>
