<svg width="32" height="32" viewBox="0 0 32 32" fill="none" xmlns="http://www.w3.org/2000/svg">
<path d="M22 30H19V27H13V30H10C9.447 30 9 30.447 9 31C9 31.553 9.447 32 10 32H22C22.553 32 23 31.553 23 31C23 30.447 22.553 30 22 30Z" fill="#6BF4CC"/>
<path fill-rule="evenodd" clip-rule="evenodd" d="M28 3H31C31.553 3 32 3.447 32 4V24C32 24.553 31.553 25 31 25H12V27C12 27.552 11.552 28 11 28H5C4.448 28 4 27.552 4 27V25H1C0.447 25 0 24.553 0 24V4C0 3.447 0.447 3 1 3H15V1C15 0.448 15.448 0 16 0H27C27.552 0 28 0.448 28 1V3ZM23 13.5C23 12.672 22.328 12 21.5 12C20.672 12 20 12.672 20 13.5C20 14.328 20.672 15 21.5 15C22.328 15 23 14.328 23 13.5ZM8 26C7.448 26 7 25.552 7 25C7 24.448 7.448 24 8 24C8.552 24 9 24.448 9 25C9 25.552 8.552 26 8 26ZM12 23H30V5H28V16C28 16.552 27.552 17 27 17H16C15.448 17 15 16.552 15 16V5H2V23H4V15C4 14.448 4.448 14 5 14H11C11.552 14 12 14.448 12 15V23Z" fill="#14D7A4"/>
</svg>
