<svg width="30" height="30" viewBox="0 0 30 30" fill="none" xmlns="http://www.w3.org/2000/svg">
<path d="M2.29279 9.70692C2.68329 10.0973 3.31629 10.0973 3.70679 9.70692L6.99979 6.41392L10.2928 9.70692C10.6852 10.0859 11.3089 10.0805 11.6946 9.69474C12.0803 9.309 12.0858 8.6853 11.7068 8.29292L8.41379 4.99992L11.7068 1.70692C12.0858 1.31454 12.0803 0.690834 11.6946 0.3051C11.3089 -0.0806333 10.6852 -0.0860532 10.2928 0.292919L6.99979 3.58592L3.70679 0.292919C3.31441 -0.0860532 2.6907 -0.0806333 2.30497 0.3051C1.91923 0.690834 1.91381 1.31454 2.29279 1.70692L5.58579 4.99992L2.29279 8.29292C1.9024 8.68342 1.9024 9.31642 2.29279 9.70692Z" fill="#F6BFCC"/>
<path d="M29.7066 18.293C29.3161 17.9026 28.6831 17.9026 28.2926 18.293L24.9996 21.586L21.7066 18.293C21.3142 17.9141 20.6905 17.9195 20.3048 18.3052C19.9191 18.6909 19.9136 19.3147 20.2926 19.707L23.5856 23L20.2926 26.293C20.0327 26.5441 19.9284 26.9159 20.0199 27.2655C20.1114 27.6152 20.3845 27.8882 20.7341 27.9797C21.0837 28.0712 21.4555 27.967 21.7066 27.707L24.9996 24.414L28.2926 27.707C28.685 28.086 29.3087 28.0806 29.6944 27.6948C30.0802 27.3091 30.0856 26.6854 29.7066 26.293L26.4136 23L29.7066 19.707C30.097 19.3165 30.097 18.6835 29.7066 18.293Z" fill="#F6BFCC"/>
<path d="M7 30C10.866 30 14 26.866 14 23C14 19.134 10.866 16 7 16C3.13401 16 0 19.134 0 23C0 26.866 3.13401 30 7 30Z" fill="#ED466D"/>
<path d="M29 0H19V2H26.586L13.293 15.293L14.707 16.707L28 3.414V11H30V1C30 0.447715 29.5523 0 29 0Z" fill="#ED466D"/>
</svg>
