<svg width="62" height="58" viewBox="0 0 62 58" fill="none" xmlns="http://www.w3.org/2000/svg">
<path d="M41.083 2.98437C38.164 -0.037635 33.292 0.456365 31 4.03036C28.706 0.452365 23.833 -0.0346352 20.917 2.98336C18.361 5.62836 18.361 9.91837 20.917 12.5634L30.999 23.0004L41.083 12.5644C43.639 9.91837 43.639 5.62937 41.083 2.98437Z" stroke="#79862E" stroke-width="2" stroke-miterlimit="10" stroke-linecap="square"/>
<path d="M49 39.0002C52.3137 39.0002 55 36.314 55 33.0002C55 29.6865 52.3137 27.0002 49 27.0002C45.6863 27.0002 43 29.6865 43 33.0002C43 36.314 45.6863 39.0002 49 39.0002Z" stroke="#79862E" stroke-width="2" stroke-miterlimit="10" stroke-linecap="square"/>
<path d="M13 39.0002C16.3137 39.0002 19 36.314 19 33.0002C19 29.6865 16.3137 27.0002 13 27.0002C9.68629 27.0002 7 29.6865 7 33.0002C7 36.314 9.68629 39.0002 13 39.0002Z" stroke="#79862E" stroke-width="2" stroke-miterlimit="10" stroke-linecap="square"/>
<path d="M25 57.0005V51.0355C25 49.6155 24.255 48.3095 23.033 47.5865C21.088 46.4355 17.716 45.0005 13 45.0005C8.223 45.0005 4.873 46.4265 2.948 47.5755C1.736 48.2995 1 49.6015 1 51.0135V57.0005H25Z" stroke="#79862E" stroke-width="2" stroke-miterlimit="10" stroke-linecap="square"/>
<path d="M61 57.0005V51.0355C61 49.6155 60.255 48.3095 59.033 47.5865C57.088 46.4355 53.716 45.0005 49 45.0005C44.223 45.0005 40.873 46.4265 38.948 47.5755C37.736 48.2995 37 49.6015 37 51.0135V57.0005H61Z" stroke="#79862E" stroke-width="2" stroke-miterlimit="10" stroke-linecap="square"/>
</svg>
