<svg width="122" height="109" viewBox="0 0 122 109" fill="none" xmlns="http://www.w3.org/2000/svg">
<path d="M16.0971 74.0409C16.2241 75.241 16.4365 76.2955 16.7795 77.3778L16.955 77.5788C17.0428 77.6793 17.0878 77.8525 17.1328 78.0258C17.3939 78.0812 17.7322 78.6715 17.9505 78.7997C18.3871 79.0561 18.8214 79.0666 19.2256 78.9615C19.5722 78.8714 19.8459 78.7386 20.1196 78.6058C22.1791 77.5157 23.5919 75.3605 24.6154 73.3682C25.6689 71.4914 26.5041 69.4864 27.1361 67.4109C27.2493 67.1349 27.3129 66.1936 27.6744 66.1613C28.1514 66.0989 28.2506 67.4295 28.3107 67.6605C28.8093 71.4767 27.1239 75.429 24.9522 78.4595C24.2233 79.4505 23.223 80.8202 21.9824 81.2659C20.9429 81.5361 19.6228 81.2011 18.6214 80.9065C16.6914 80.36 14.7996 79.2487 13.669 77.508C12.8618 76.2998 12.7603 74.7232 12.5883 73.3499C12.631 73.2772 12.3354 72.6142 12.4059 72.4109C12.3631 72.4837 12.5282 73.1189 12.5282 73.1189C12.526 72.8729 12.4359 72.5264 12.4336 72.2804C12.3909 72.3531 12.2985 71.7606 12.2985 71.7606C12.2662 71.3991 12.2489 71.0953 12.2316 70.7916C12.2247 70.0535 12.2329 69.3732 12.2838 68.6202C12.3855 67.114 12.6178 65.6357 12.6468 64.0868C12.7208 62.7112 12.9831 61.3483 13.3032 59.9704C13.3864 59.5789 14.1224 56.2433 14.4839 56.211L14.388 56.7908C14.5694 56.0654 14.8085 55.3251 15.0477 54.5848C14.9194 54.8031 14.7912 55.0213 14.7912 55.0213C14.8444 54.5143 15.2568 53.7289 15.4405 53.2496C15.5514 52.7276 15.7501 52.306 15.9188 51.7689C16.3139 50.6798 16.8095 49.5029 17.3351 48.4415C18.0894 47.074 19.2284 45.0517 20.8304 44.5737C23.7307 43.6349 26.2738 46.3031 26.9193 48.7865L26.9343 48.8442C27.2795 50.1725 27.3233 51.7641 26.7122 52.971C26.1438 54.1052 24.797 55.565 23.6292 56.0535C23.3555 56.1863 22.8657 56.4369 22.8034 55.9599C22.7884 55.9021 22.8739 55.7566 22.9744 55.6688L23.0899 55.6388C23.3059 55.521 23.7554 52.5065 24.0014 52.5042C24.0014 52.5042 23.7946 53.606 23.7969 53.8521C24.132 52.5319 24.4093 51.2268 24.541 49.8362C24.5769 49.0254 24.7665 47.6197 24.2826 46.944C23.5804 46.1401 22.49 47.1633 22.0025 47.6599L21.5578 48.0838L21.7161 47.981C21.5728 48.1415 21.4296 48.3021 21.3441 48.4476C21.4723 48.2293 21.6733 48.0538 21.8893 47.936C22.2613 47.4694 23.2362 46.4762 23.9338 46.7881C24.4858 47.0145 24.5204 47.622 24.4823 48.1868C24.4904 47.5065 24.3103 46.8135 23.5873 46.8781C22.922 46.9277 22.5523 47.6403 22.0626 47.8909C20.673 49.4235 19.81 51.559 19.133 53.4613C18.3856 55.5668 17.7836 57.7578 17.3122 59.9765C16.813 62.3258 16.6177 64.6577 16.3795 67.0624C16.1691 69.3366 15.9587 71.6108 16.1249 73.9104L16.1699 74.0837C16.0671 73.9254 16.0671 73.9254 16.0971 74.0409L16.1399 73.9681C16.0821 73.9832 16.0821 73.9832 16.0971 74.0409ZM19.1806 50.7978C17.6869 53.5905 16.6599 56.7552 16.0671 59.9302C15.5702 62.5255 15.2616 65.1334 15.1413 67.7541C15.2558 66.0598 15.5585 64.3781 15.8763 62.7542C16.4436 59.9557 17.041 57.2726 17.8116 54.5446C18.1767 53.3399 18.6272 51.9898 19.1806 50.7978ZM21.2563 48.3471C20.5274 49.338 20.0596 50.3844 19.6067 51.4886C19.9336 50.8487 20.2305 50.0934 20.6302 49.4963C20.7434 49.2202 20.9849 48.7259 21.2563 48.3471ZM24.3887 49.0126C24.3286 48.7816 24.4118 48.3901 24.3795 48.0286C24.3968 48.3323 24.3991 48.5784 24.4014 48.8244C24.3586 48.8971 24.3586 48.8971 24.3887 49.0126Z" fill="#79862F"/>
<path d="M47.392 62.0846C47.2152 63.3019 46.8928 64.4338 46.5705 65.5657C46.1627 66.8431 45.7398 68.0628 45.1865 69.2547C44.7614 70.2283 44.1225 71.5658 43.0703 72.0242C41.9176 72.5704 40.6656 71.7861 39.9761 70.7939C38.5545 68.8822 38.6044 66.4648 38.6992 64.2206C38.6992 64.2206 38.6092 63.8741 38.6069 63.6281C38.3955 64.2379 38.0558 65.066 37.8444 65.6759C37.5625 66.489 37.4539 67.257 37.157 68.0124C37.0161 68.4189 35.0014 72.7651 34.432 72.2349C34.432 72.2349 34.849 71.9415 34.7762 71.8988C34.3893 72.3076 33.8268 72.5155 33.3347 72.5201C33.4652 72.5478 33.538 72.5905 33.538 72.5905C32.7595 72.9162 31.7212 71.768 31.3979 71.2355C30.8389 70.2711 30.6115 69.1588 30.5146 68.0742C30.3634 65.8323 30.6443 63.3549 31.3768 61.1916C31.6032 60.6395 31.7719 60.1025 32.2016 59.6209C32.4303 59.3148 32.6463 59.197 32.9327 58.876C33.3324 58.2789 33.7471 57.7395 34.5556 57.5294C36.3459 57.064 37.5643 58.9052 38.3288 60.1862C38.8949 58.806 40.0789 56.9569 41.8852 58.2137C42.8612 58.8849 42.5065 59.6552 42.3124 60.5688C41.9496 62.0195 41.8351 63.7138 41.8916 65.1172C41.9193 64.9867 41.8997 64.4369 42.0002 64.3491C42.274 64.2163 41.8066 73.0925 44.3597 67.4967C45.1394 65.7527 45.7459 64.0537 46.3374 62.297C46.6193 61.4839 46.8285 60.6281 47.1104 59.815C47.2663 59.4662 47.7214 58.608 47.9893 59.4016C48.084 60.2401 47.5006 61.3165 47.392 62.0846ZM37.4463 61.7719C37.3712 61.4832 36.0951 59.657 36.2961 59.4815C36.3388 59.4087 36.9128 60.4309 36.9855 60.4737C36.7499 60.0417 36.2892 58.7434 35.5962 58.9235C34.3834 59.2387 34.0298 61.6735 33.9084 62.6298C33.5779 64.442 33.408 66.3974 33.5695 68.205C33.55 67.6552 33.9178 60.5312 34.6108 60.351C34.1211 60.6016 33.6713 66.6989 33.6909 67.2486C33.7082 67.5524 33.626 69.6083 34.1908 69.6465C34.5673 69.6719 35.1334 68.2917 35.3044 68.0007C35.7872 67.012 36.1823 65.9229 36.5925 64.8915L37.1712 63.3231C37.2845 63.047 37.3827 62.7132 37.4959 62.4372C37.5213 62.0607 37.5213 62.0607 37.4463 61.7719ZM37.5017 61.5109L37.5918 61.8574C37.6773 61.7119 37.6472 61.5964 37.5017 61.5109ZM38.8183 63.0183L38.7201 63.3521C38.6924 63.4826 38.712 64.0324 38.712 64.0324L38.8183 63.0183Z" fill="#79862F"/>
<path d="M59.2929 59.4844C58.7546 60.7341 58.3467 62.0115 57.6629 63.1757C57.2077 64.0338 56.4107 65.4741 55.2811 65.3977C55.0351 65.4 53.5117 64.9945 53.5244 64.8062L53.6549 64.834L53.3638 64.663C53.6121 64.9067 53.1178 64.6653 53.1178 64.6653C52.8995 64.5371 52.6512 64.2933 52.4757 64.0923C52.1974 63.7331 52.0345 63.3439 51.9295 62.9396C51.8244 62.5353 51.7771 62.1161 51.7298 61.6968C51.5774 60.8733 51.44 60.1075 51.4608 59.2389C51.4736 59.0507 51.699 56.8342 52.0027 56.8169C52.0605 56.8019 51.9473 57.078 52.02 57.1207L52.2696 55.9461C52.2269 56.0188 52.1991 56.1494 52.1414 56.1644C52.0686 56.1216 52.3782 55.178 52.391 54.9897C51.8503 55.9934 51.513 57.0675 51.1029 58.0989C50.806 58.8543 50.3335 59.4086 50.1371 60.0762C49.7316 61.5996 49.05 63.0098 48.8328 64.546L48.5845 64.3022C48.1593 65.2759 46.9224 64.5493 46.368 64.0768C45.8714 63.5894 45.8668 63.0973 45.7595 62.4471C45.6671 61.8545 45.517 61.277 45.5252 60.5967C45.561 59.7859 45.6547 58.9601 45.7483 58.1343C45.7841 57.3235 45.8778 56.4976 45.9564 55.6141C46.0096 55.107 46.206 54.4395 46.1864 53.8897C46.1968 53.4554 46.0213 53.2544 46.4082 52.8456C46.8102 52.4945 47.2722 52.3744 47.7492 52.3121C48.3568 52.2775 49.5614 52.6425 49.209 53.6589C49.0681 54.0655 48.6961 54.5321 48.4974 54.9536C48.256 55.4479 48.3588 55.6062 48.3056 56.1132C48.3229 56.417 48.0942 56.7231 47.996 57.0568C47.8701 57.5211 47.8897 58.0709 47.8365 58.578C47.8538 58.8817 47.9138 59.1127 47.9889 59.4015C48.1263 60.1673 48.0326 60.9931 48.185 61.8166C48.1978 61.6284 48.3687 61.3373 48.4415 61.3801C48.5142 61.4228 48.2601 62.1054 48.2601 62.1054L49.5863 58.4314C49.2894 59.1868 49.048 59.6811 49.048 59.6811C48.9175 59.6534 51.8078 52.9835 52.2075 52.3864C52.9919 51.1344 54.3929 50.8319 55.2902 52.3866C56.3481 54.0845 54.7425 55.7349 54.2215 57.2884C53.9546 58.1592 53.7755 59.1306 53.6241 59.9714C53.5132 60.4934 53.2058 61.6831 53.3582 62.5066C53.2809 61.9718 53.505 61.1737 53.5882 60.7822C53.6819 59.9564 53.921 59.216 54.3634 58.5462C54.2525 59.0682 54.0838 59.6053 53.9579 60.0696L54.0711 59.7935C54.1289 59.7785 54.0398 61.0964 54.0698 61.2119C54.0167 61.7189 54.0212 62.211 54.0836 62.688C54.0408 62.7608 54.2487 63.3233 54.2487 63.3233L54.3214 63.366C54.3064 63.3082 54.5374 63.2482 54.6379 63.1604C55.1127 62.8521 55.5551 62.1822 55.8693 61.7306C56.5554 60.8125 57.2266 59.8365 57.84 58.8756C58.3251 58.133 58.9835 57.3453 59.2804 56.59C59.4214 56.1834 59.791 55.4708 60.1894 56.2921C60.6029 57.1711 59.532 58.7441 59.2929 59.4844Z" fill="#79862F"/>
<path d="M75.6898 54.7294C75.513 55.9467 75.1907 57.0786 74.8683 58.2105C74.4605 59.4879 74.0377 60.7075 73.4843 61.8995C73.0592 62.8731 72.4204 64.2105 71.3681 64.669C70.2154 65.2152 68.9634 64.4309 68.274 63.4386C66.8523 61.527 66.9022 59.1096 66.9971 56.8654C66.9971 56.8654 66.907 56.5189 66.9047 56.2729C66.6933 56.8827 66.3537 57.7108 66.1423 58.3206C65.8604 59.1337 65.7517 59.9018 65.4549 60.6572C65.3139 61.0637 63.2992 65.4098 62.7299 64.8796C62.7299 64.8796 63.1468 64.5863 63.0741 64.5436C62.6871 64.9524 62.1246 65.1603 61.6326 65.1648C61.7631 65.1926 61.8358 65.2353 61.8358 65.2353C61.0573 65.561 60.0191 64.4128 59.6957 63.8803C59.1368 62.9158 58.9093 61.8035 58.8124 60.719C58.6613 58.4771 58.9422 55.9997 59.6746 53.8364C59.901 53.2843 60.0697 52.7472 60.4994 52.2656C60.7281 51.9596 60.9441 51.8418 61.2306 51.5207C61.6303 50.9236 62.045 50.3843 62.8535 50.1741C64.6438 49.7088 65.8622 51.55 66.6267 52.8309C67.1927 51.4508 68.3768 49.6017 70.1831 50.8585C71.159 51.5296 70.8044 52.3 70.6102 53.2136C70.2475 54.6642 70.133 56.3586 70.1895 57.762C70.2172 57.6314 70.1976 57.0817 70.2981 56.9939C70.5718 56.8611 70.1045 65.7373 72.6575 60.1415C73.4373 58.3975 74.0438 56.6985 74.6353 54.9418C74.9172 54.1287 75.1263 53.2729 75.4082 52.4598C75.5642 52.111 76.0193 51.2528 76.2872 52.0463C76.3818 52.8849 75.7985 53.9613 75.6898 54.7294ZM65.7441 54.4167C65.6691 54.1279 64.3929 52.3018 64.5939 52.1262C64.6367 52.0535 65.2106 53.0757 65.2834 53.1184C65.0478 52.6864 64.587 51.3882 63.894 51.5683C62.6812 51.8835 62.3276 54.3182 62.2063 55.2746C61.8758 57.0868 61.7058 59.0422 61.8674 60.8498C61.8478 60.3 62.2157 53.1759 62.9087 52.9958C62.4189 53.2464 61.9692 59.3436 61.9887 59.8934C62.006 60.1972 61.9239 62.2531 62.4887 62.2913C62.8652 62.3167 63.4313 60.9365 63.6022 60.6455C64.0851 59.6568 64.4802 58.5677 64.8903 57.5363L65.4691 55.9678C65.5823 55.6918 65.6805 55.358 65.7937 55.082C65.8192 54.7055 65.8192 54.7055 65.7441 54.4167ZM65.7996 54.1557L65.8896 54.5022C65.9751 54.3567 65.9451 54.2412 65.7996 54.1557ZM67.1162 55.6631L67.018 55.9968C66.9752 56.0696 66.9948 56.6194 66.9948 56.6194L67.1162 55.6631Z" fill="#79862F"/>
<path d="M93.8795 49.7551C93.3389 50.7588 92.8133 51.8202 92.3454 52.8666C91.3242 55.1049 90.7095 57.4841 89.7033 59.7802C88.9236 61.5242 87.6505 64.6911 85.2343 63.2229C83.2848 62.1267 82.9235 59.0763 82.6014 57.1254C81.7893 58.5079 80.9045 59.8476 79.9319 61.0869C79.3589 61.729 78.7005 62.5167 77.7742 62.5108C74.7943 62.6688 74.1628 58.5789 74.476 56.4629C74.6378 55.1878 74.5109 53.9878 74.9037 52.6526C75.3092 51.1292 75.9585 49.3575 77.1944 48.4197C78.7468 47.2764 80.8015 48.7769 82.0834 49.6768C82.1241 46.2753 82.5414 42.8992 83.1319 39.4781C83.1596 39.3476 83.1782 38.2331 83.4069 37.927C83.2636 38.0875 83.2405 38.7101 83.2578 39.0138C83.326 38.5646 83.3942 38.1153 83.5201 37.651L83.4623 37.666C83.5328 37.4627 83.6946 36.1876 83.7801 36.0421C83.9915 35.4322 84.2029 34.8224 84.4294 34.2703C84.9122 33.2817 85.5256 32.3208 86.4173 31.7191C87.6105 30.8541 89.7069 30.6175 90.6169 31.9839C91.893 33.8101 91.1374 36.5959 90.591 38.5259C90.2259 39.7305 89.8608 40.9352 89.423 42.0971L88.8141 43.55L88.5577 43.9866C88.6004 43.9138 88.5704 43.7983 88.5704 43.7983L88.3867 44.2776L88.4445 44.2626L88.3867 44.2776L88.3163 44.4809L87.3124 47.023C87.4256 46.7469 87.6243 46.3254 87.697 46.3681C87.697 46.3681 86.0393 50.1899 85.8833 50.5387C85.2595 51.9339 85.6243 53.812 85.8263 55.3008C85.8632 56.1543 86.2174 61.5494 87.5457 61.2041C87.8922 61.1141 88.1313 60.3737 88.2595 60.1555C88.6292 59.4429 88.9839 58.6725 89.2807 57.9171C89.9173 56.3337 90.5111 54.823 91.0899 53.2545C91.6837 51.7438 92.3352 50.2181 93.1323 48.7779C93.3183 48.5446 94.4099 46.103 94.9562 47.2558L94.9712 47.3135C95.2668 47.9765 94.2919 48.9697 93.8795 49.7551ZM82.0982 52.8172C82.1063 52.1369 82.1722 51.4416 81.6756 50.9542C81.209 50.5822 80.7552 50.022 80.2031 49.7956C79.9848 49.6673 79.651 49.5691 79.45 49.7447C79.3923 49.7597 79.3923 49.7597 79.3495 49.8325L79.4928 49.6719C78.757 49.9248 78.5097 51.3454 78.3006 52.2013C77.8823 53.913 77.6096 55.7101 77.5829 57.505C77.5597 58.1276 77.4071 60.3867 78.3057 60.5231C78.8277 60.634 79.3707 59.8764 79.7276 59.352C79.3707 59.8764 78.8682 60.3152 78.5644 60.3325C77.3366 60.59 77.5875 57.997 77.7897 56.4032C77.6452 57.982 77.4949 60.4872 78.5644 60.3325C79.388 60.1801 80.326 58.3334 80.7834 57.7213C81.2258 57.0514 81.6532 56.3238 82.0806 55.5962C82.5508 54.7958 82.3557 54.045 82.246 53.1487C82.246 53.1487 82.231 53.091 82.2587 52.9604L82.2137 52.7872L82.0982 52.8172ZM79.8986 59.061C80.356 58.4489 80.8134 57.8368 81.1553 57.2547C81.4695 56.8031 82.3567 55.7094 82.3521 55.2173C81.7687 56.2937 81.0699 57.4002 80.3987 58.3761L79.8986 59.061ZM78.9926 50.3568C79.0503 50.3418 79.1208 50.1385 79.2213 50.0507C79.1208 50.1385 79.0503 50.3418 78.9926 50.3568ZM80.4341 49.7355C80.3613 49.6928 80.2308 49.665 80.158 49.6223L80.4341 49.7355ZM83.5957 45.7695C83.613 46.0733 83.3138 46.5826 83.3161 46.8286C83.2629 47.3357 83.614 47.7376 83.4153 48.1592C83.473 48.1442 83.458 48.0864 83.458 48.0864C83.5435 47.9409 83.5644 47.0723 83.5621 46.8263C83.5748 46.6381 83.6707 46.0583 83.5957 45.7695ZM83.5117 41.414C83.4585 41.921 83.3049 42.5158 83.2367 42.9651C83.1408 43.5449 83.1604 44.0947 83.1372 44.7172C83.2631 44.2529 83.3313 43.8037 83.3418 43.3694C83.3649 42.7468 83.4885 42.0365 83.5117 41.414ZM85.8146 43.1582L85.7442 43.3615C85.7314 43.5498 85.7465 43.6075 85.7314 43.5498C85.617 45.2441 85.5025 46.9385 85.4457 48.6179C85.4885 48.5451 85.5162 48.4146 85.559 48.3419C85.4457 48.6179 85.3325 48.8939 85.3348 49.1399L85.463 48.9217L85.604 48.5151L86.8216 45.6092L86.311 46.7284L85.7126 47.747C86.7338 45.5087 87.5945 43.1272 88.3397 40.7756C88.9866 38.7579 90.0437 35.7088 89.3578 33.5442C89.2678 33.1977 89.0899 32.7507 88.6984 32.6675C87.7698 32.4157 87.2233 34.3456 87.0119 34.9555C86.239 37.4375 85.9731 39.9727 85.7073 42.5079L85.7223 42.5657C85.7223 42.5657 85.6795 42.6384 85.7096 42.754L85.7246 42.8117C85.6818 42.8845 85.6968 42.9422 85.7118 43C85.7996 43.1005 85.7996 43.1005 85.8146 43.1582ZM85.7442 43.3615C85.7592 43.4192 85.7314 43.5498 85.7314 43.5498L85.8146 43.1582L85.7442 43.3615ZM87.2546 47.038C87.2119 47.1108 87.2119 47.1108 87.2269 47.1685C87.2269 47.1685 87.2696 47.0957 87.2546 47.038ZM87.2823 46.9075L87.2396 46.9802C87.2546 47.038 87.2974 46.9652 87.2823 46.9075Z" fill="#79862F"/>
<path d="M110.399 45.7084C110.222 46.9257 109.9 48.0576 109.577 49.1895C109.17 50.4669 108.747 51.6865 108.193 52.8785C107.768 53.8521 107.129 55.1895 106.077 55.648C104.924 56.1942 103.672 55.4099 102.983 54.4176C101.561 52.506 101.611 50.0886 101.706 47.8444C101.706 47.8444 101.616 47.4979 101.614 47.2519C101.402 47.8617 101.063 48.6898 100.851 49.2997C100.569 50.1127 100.461 50.8808 100.164 51.6362C100.023 52.0427 98.0082 56.3888 97.4388 55.8586C97.4388 55.8586 97.8558 55.5653 97.7831 55.5226C97.3961 55.9314 96.8336 56.1393 96.3416 56.1438C96.4721 56.1716 96.5448 56.2143 96.5448 56.2143C95.7663 56.54 94.7281 55.3918 94.4047 54.8593C93.8458 53.8948 93.6183 52.7826 93.5214 51.698C93.3703 49.4561 93.6511 46.9787 94.3836 44.8154C94.61 44.2633 94.7787 43.7263 95.2084 43.2447C95.4371 42.9386 95.6531 42.8208 95.9396 42.4997C96.3393 41.9026 96.7539 41.3633 97.5625 41.1531C99.3528 40.6878 100.571 42.529 101.336 43.81C101.902 42.4298 103.086 40.5807 104.892 41.8375C105.868 42.5086 105.513 43.279 105.319 44.1926C104.956 45.6432 104.842 47.3376 104.898 48.741C104.926 48.6104 104.907 48.0607 105.007 47.9729C105.281 47.8401 104.813 56.7163 107.366 51.1205C108.146 49.3765 108.753 47.6775 109.344 45.9208C109.626 45.1077 109.835 44.2519 110.117 43.4388C110.273 43.09 110.728 42.2318 110.996 43.0253C111.091 43.8639 110.507 44.9403 110.399 45.7084ZM100.453 45.3957C100.378 45.1069 99.1019 43.2808 99.3029 43.1052C99.3456 43.0325 99.9196 44.0547 99.9924 44.0974C99.7568 43.6654 99.296 42.3672 98.603 42.5473C97.3902 42.8625 97.0366 45.2972 96.9152 46.2536C96.5848 48.0658 96.4148 50.0212 96.5764 51.8288C96.5568 51.279 96.9247 44.1549 97.6177 43.9748C97.1279 44.2254 96.6781 50.3226 96.6977 50.8724C96.715 51.1762 96.6329 53.2321 97.1977 53.2703C97.5742 53.2957 98.1402 51.9155 98.3112 51.6245C98.7941 50.6358 99.1892 49.5467 99.5993 48.5153L100.178 46.9469C100.291 46.6708 100.39 46.337 100.503 46.061C100.528 45.6845 100.528 45.6845 100.453 45.3957ZM100.509 45.1347L100.599 45.4812C100.684 45.3357 100.654 45.2202 100.509 45.1347ZM101.825 46.6421L101.712 46.9181C101.684 47.0486 101.704 47.5984 101.704 47.5984L101.825 46.6421Z" fill="#79862F"/>
<path d="M26.3933 29.6871L27.4942 28.2296C28.1376 27.3842 28.9634 27.4778 29.4877 27.8347C30.0121 28.1917 30.3377 28.9702 29.6943 29.8156L29.0659 30.7187L30.3779 31.7341L29.9205 32.3462L26.3933 29.6871ZM29.0453 28.5046C28.812 28.3186 28.4205 28.2354 28.149 28.6142L27.4629 29.5324L28.5266 30.304L29.2127 29.3859C29.4264 29.0221 29.2786 28.6906 29.0453 28.5046Z" fill="#79862F"/>
<path d="M30.9021 24.2612L32.3367 22.9019C33.1256 22.1419 33.8082 22.3961 34.3048 22.8835C34.6409 23.2278 34.8638 23.848 34.5219 24.4301L36.4241 25.1071L35.8361 25.6915L34.0644 25.0422L33.4187 25.6416L34.6025 26.8753L34.0573 27.3869L30.9021 24.2612ZM33.696 24.3365C34.0403 24.0004 33.9502 23.6539 33.7747 23.4529C33.5991 23.2519 33.2503 23.096 32.8483 23.4471L31.9589 24.2948L32.8066 25.1842L33.696 24.3365Z" fill="#79862F"/>
<path d="M37.547 21.3628C36.9453 20.471 36.7306 19.1705 37.8961 18.436C39.1043 17.6288 40.153 18.3426 40.7547 19.2343C41.3563 20.1261 41.5711 21.4266 40.4056 22.1611C39.2552 22.9533 38.1487 22.2545 37.547 21.3628ZM40.1217 19.6455C39.7256 19.0703 39.0257 18.5123 38.2922 19.0112C37.5587 19.5101 37.8416 20.3614 38.18 20.9516C38.5761 21.5269 39.276 22.0848 40.0095 21.5859C40.758 21.1447 40.5178 20.2207 40.1217 19.6455Z" fill="#79862F"/>
<path d="M44.3907 14.9597C45.7745 14.3534 46.7804 15.1401 47.2238 16.1346C47.6523 17.0713 47.621 18.3742 46.1217 19.0104L44.8962 19.5139L43.1652 15.4632L44.3907 14.9597ZM46.4453 16.4602C46.1497 15.7972 45.5076 15.2243 44.7868 15.5349L44.1238 15.8306L45.2636 18.5553L45.8839 18.3324C46.7779 17.9768 46.741 17.1232 46.4453 16.4602Z" fill="#79862F"/>
<path d="M50.7207 15.5958L50.088 12.9242L50.8388 12.729L51.4715 15.4006C51.6666 16.1514 52.0732 16.2923 52.6657 16.2C53.1855 16.0649 53.5447 15.7866 53.3346 14.978L52.7018 12.3065L53.4526 12.1113L54.0853 14.7829C54.3578 16.0684 53.7121 16.6678 52.8458 16.893C51.9068 17.0754 50.9932 16.8813 50.7207 15.5958Z" fill="#79862F"/>
<path d="M57.4633 13.7817C57.3814 12.7549 57.7892 11.4775 59.1926 11.421C60.0461 11.3842 60.5855 11.7988 60.7633 12.2458L60.1153 12.5992C59.852 12.2977 59.6187 12.1118 59.2572 12.1441C58.4614 12.166 58.2673 13.0796 58.3169 13.7448C58.3815 14.4679 58.7072 15.2464 59.4452 15.2395C59.8067 15.2072 60.0505 14.9589 60.2642 14.5951L61.0045 14.8342C60.7931 15.4441 60.2906 15.8829 59.5098 15.9625C58.1065 16.019 57.5603 14.8663 57.4633 13.7817Z" fill="#79862F"/>
<path d="M65.806 15.9905L65.0529 15.9396L65.3951 12.2748L64.135 12.1708L64.2009 11.4755L67.4314 11.8072L67.3655 12.5025L66.1054 12.3985L65.806 15.9905Z" fill="#79862F"/>
<path d="M74.3414 15.6217C74.7515 14.5903 75.6259 13.6848 76.9333 14.2082C78.2408 14.7315 78.325 16.0043 77.9149 17.0357C77.5048 18.0671 76.6303 18.9725 75.3229 18.4492C74.0155 17.9259 73.9313 16.6531 74.3414 15.6217ZM77.2173 16.7238C77.4714 16.0412 77.4923 15.1726 76.7369 14.8757C75.9238 14.5939 75.3659 15.2937 75.0967 15.9186C74.8426 16.6012 74.8217 17.4697 75.5771 17.7666C76.3324 18.0635 76.9481 17.3486 77.2173 16.7238Z" fill="#79862F"/>
<path d="M82.2835 16.764L84.6996 18.2322L84.3577 18.8143L82.5387 17.7458L81.983 18.6917L83.1472 19.3756L82.8053 19.9577L81.6411 19.2738L80.658 20.9473L80.0032 20.5626L82.2835 16.764Z" fill="#79862F"/>
<path d="M38.3384 84.6595L39.8387 85.6876C40.7419 86.316 40.6332 87.0841 40.2913 87.6662C39.9344 88.1905 39.1709 88.5739 38.3255 87.9305L37.4223 87.3021L36.4797 88.6569L35.8676 88.1994L38.3384 84.6595ZM39.6792 87.2087C39.8652 86.9754 39.9484 86.5839 39.5118 86.3275L38.6086 85.6991L37.837 86.7628L38.7402 87.3912C39.119 87.6626 39.5082 87.4998 39.6792 87.2087Z" fill="#79862F"/>
<path d="M44.7141 88.5511L46.5158 89.3159C47.4894 89.741 47.554 90.464 47.2999 91.1466C47.1162 91.6259 46.5987 92.007 45.9612 91.9261L46.0523 93.937L45.2819 93.5823L45.2208 91.687L44.3927 91.3473L43.6984 92.9458L43.0008 92.6339L44.7141 88.5511ZM45.6933 91.1326C46.1148 91.3313 46.4313 91.1257 46.5445 90.8497C46.6578 90.5737 46.6832 90.1971 46.2039 90.0135L45.0997 89.5606L44.5891 90.6798L45.6933 91.1326Z" fill="#79862F"/>
<path d="M51.2718 93.3821C51.4936 92.338 52.2653 91.2743 53.6281 91.5366C55.006 91.8566 55.2635 93.0844 55.0416 94.1285C54.8198 95.1726 54.0482 96.2363 52.6853 95.974C51.3224 95.7117 51.0499 94.4262 51.2718 93.3821ZM54.3313 94.0049C54.455 93.2946 54.3603 92.456 53.5045 92.2469C52.6637 92.0955 52.1935 92.8959 52.0549 93.5485C51.9312 94.2588 52.0258 95.0973 52.8817 95.3065C53.6648 95.4729 54.1927 94.6575 54.3313 94.0049Z" fill="#79862F"/>
<path d="M61.1909 92.407C62.7248 92.3782 63.3287 93.516 63.3102 94.6305C63.3193 95.6146 62.766 96.8065 61.1744 96.8503L59.8138 96.834L59.7876 92.4635L61.1909 92.407ZM62.5144 94.6524C62.5075 93.9144 62.1818 93.1359 61.3283 93.1727L60.5902 93.1796L60.56 96.1468L61.2403 96.155C62.2093 96.0881 62.5062 95.3327 62.5144 94.6524Z" fill="#79862F"/>
<path d="M68.1298 94.6725L67.5698 92.0436L68.3356 91.9063L68.8955 94.5351C69.0329 95.3009 69.5122 95.4846 70.032 95.3495C70.5518 95.2144 70.911 94.936 70.7736 94.1703L70.2136 91.5414L70.9794 91.404L71.5394 94.0329C71.8119 95.3184 71.1084 95.9328 70.2271 96.1002C69.2731 96.2249 68.4022 95.958 68.1298 94.6725Z" fill="#79862F"/>
<path d="M75.8917 92.0384C75.4632 91.1017 75.4218 89.7561 76.705 89.2376C77.4835 88.912 78.0934 89.1234 78.5022 89.5103L78.0298 90.0647C77.7237 89.836 77.3899 89.7378 77.0584 89.8856C76.3377 90.1962 76.4473 91.0925 76.6702 91.7128C76.9658 92.3758 77.5652 93.0215 78.2282 92.7258C78.6174 92.563 78.7307 92.287 78.8139 91.8954L79.5519 91.8886C79.5438 92.5689 79.2596 93.136 78.5388 93.4466C77.2406 93.9073 76.3351 93.0329 75.8917 92.0384Z" fill="#79862F"/>
<path d="M85.7227 89.2982L85.0897 89.7093L83.0063 86.6749L81.9563 87.3794L81.5602 86.8042L84.2354 84.9991L84.6315 85.5743L83.5815 86.2788L85.7227 89.2982Z" fill="#79862F"/>
<path d="M92.5411 80.1896C91.6957 79.5461 91.034 78.4234 91.9061 77.272C92.7782 76.1205 94.0406 76.4706 94.886 77.114C95.7314 77.7574 96.3931 78.8801 95.521 80.0316C94.7066 81.168 93.4443 80.8179 92.5411 80.1896ZM94.4286 77.7261C93.8742 77.2536 93.0184 77.0445 92.5032 77.6716C92.003 78.3565 92.5019 79.09 93.0413 79.5047C93.5806 79.9194 94.4515 80.1862 94.9666 79.5591C95.4818 78.932 94.9679 78.1408 94.4286 77.7261Z" fill="#79862F"/>
<path d="M95.3597 72.0585L96.6096 69.5142L97.2495 69.8411L96.3115 71.6879L97.2424 72.1857L97.8535 70.9788L98.4933 71.3057L97.8822 72.5127L99.5835 73.3652L99.2715 74.0628L95.3597 72.0585Z" fill="#79862F"/>
</svg>
