<svg width="94" height="94" viewBox="0 0 94 94" fill="none" xmlns="http://www.w3.org/2000/svg">
<circle cx="47" cy="47" r="46.5" stroke="#AFB695"/>
<path d="M13.5469 30.1353L13.9813 29.4639L17.3385 31.5176L18.5233 29.5824L19.1948 29.9773L17.5754 32.6235L13.5469 30.1353Z" fill="#79862F"/>
<path d="M22.631 22.5126C21.9201 21.6042 21.5646 20.2613 22.7495 19.3134C23.9343 18.3655 25.1587 19.0369 25.8696 19.9453C26.5806 20.8537 26.9755 22.1966 25.7512 23.1445C24.5663 24.0529 23.3419 23.421 22.631 22.5126ZM25.1982 20.4588C24.7243 19.8663 23.9343 19.3529 23.2234 19.9058C22.5125 20.4588 22.8285 21.4067 23.3024 21.9596C23.7764 22.552 24.5663 23.0655 25.2772 22.5126C25.9881 21.9596 25.6327 21.0117 25.1982 20.4588Z" fill="#79862F"/>
<path d="M33.4921 15.9169C33.1761 14.89 33.2551 13.4287 34.6375 12.9942C35.5064 12.7177 36.1778 13.0337 36.4938 13.4682L35.9013 13.9816C35.5854 13.7051 35.2694 13.5866 34.8744 13.7446C34.045 14.0211 34.0845 14.969 34.282 15.6799C34.519 16.4303 35.1114 17.1413 35.8618 16.9043C36.2568 16.7858 36.4543 16.4698 36.5333 16.0749L37.3232 16.1144C37.2442 16.8253 36.8887 17.4177 36.0988 17.6547C34.7165 18.0892 33.8475 17.0228 33.4921 15.9169Z" fill="#79862F"/>
<path d="M48.1456 15.206L46.2893 15.127L45.8548 16.1539L45.0254 16.0749L47.0002 11.4539L47.7901 11.4934L49.2909 16.2723L48.4615 16.2328L48.1456 15.206ZM47.4741 13.0337C47.4346 12.9152 47.3556 12.6782 47.3556 12.5597C47.3161 12.7177 47.2372 12.9152 47.1582 13.0337L46.5657 14.416L47.9086 14.495L47.4741 13.0337Z" fill="#79862F"/>
<path d="M58.6512 13.8235L59.4016 14.1395L57.8613 17.7336L59.9546 18.642L59.6386 19.3529L56.7949 18.1285L58.6512 13.8235Z" fill="#79862F"/>
<path d="M69.2759 20.1033L69.8683 20.6562L67.2221 23.5394L68.9204 25.0797L68.407 25.6327L66.1162 23.5394L69.2759 20.1033Z" fill="#79862F"/>
<path d="M75.0422 31.5571L76.7405 28.7134L77.175 29.5033L75.9506 31.5176L78.3203 31.5966L78.7548 32.3865L75.4371 32.268L73.8178 33.1369L73.4229 32.426L75.0422 31.5571Z" fill="#79862F"/>
<path d="M18.4446 66.8664C19.432 66.0765 21.0118 65.7605 21.9992 66.9849C22.6312 67.7748 22.5127 68.4857 22.3152 69.0781L21.4463 68.7227C21.5648 68.3277 21.6043 67.8933 21.2883 67.4983C20.6169 66.6689 19.6295 67.0638 18.9975 67.5773C18.2471 68.1697 17.8127 69.0386 18.4051 69.7891C18.7606 70.263 19.3925 70.3025 19.7875 69.9865L19.8664 69.947L19.274 69.2361L19.9454 68.7227L21.0908 70.1445L20.5379 70.579C19.511 71.4084 18.4051 71.2109 17.7337 70.342C16.7463 69.1176 17.3782 67.7353 18.4446 66.8664Z" fill="#79862F"/>
<path d="M30.2931 74.3311L32.3864 75.3579C33.5713 75.9504 33.5713 76.8193 33.2158 77.5697C32.9394 78.1227 32.3469 78.5571 31.5965 78.4386L31.557 80.8479L30.6486 80.4134V78.1227L29.6612 77.6487L28.7528 79.505L27.9629 79.11L30.2931 74.3311ZM31.32 77.4512C31.8335 77.7277 32.1889 77.4907 32.3469 77.1353C32.5049 76.8193 32.5444 76.3848 31.9915 76.1084L30.6881 75.4764L30.0167 76.8193L31.32 77.4512Z" fill="#79862F"/>
<path d="M42.5371 80.9269C42.5766 79.6236 43.2085 78.2412 44.9069 78.2412C46.6052 78.2807 47.1976 79.7026 47.1581 81.0059C47.1186 82.3093 46.4867 83.6916 44.7884 83.6916C43.0901 83.6521 42.5371 82.2303 42.5371 80.9269ZM46.2102 81.0059C46.2102 80.137 45.8943 79.1496 44.8674 79.1101C43.8405 79.0706 43.485 80.137 43.4455 80.9269C43.4455 81.7958 43.7615 82.7832 44.7884 82.8227C45.8153 82.8622 46.2102 81.8353 46.2102 81.0059Z" fill="#79862F"/>
<path d="M55.7285 76.78L56.5579 76.385L58.4142 78.9128C58.5722 79.1102 58.6512 79.2287 58.6907 79.3472C58.6512 79.2287 58.6117 79.0707 58.5722 78.8338L57.9798 75.7136L58.6907 75.3976L60.705 77.8464C60.863 78.0438 60.942 78.1623 61.021 78.2413C60.9815 78.1228 60.942 78.0043 60.9025 77.7674L60.152 74.6867L60.9815 74.2917L62.1663 79.5447L61.4159 79.9002L59.2831 77.2934C59.1252 77.1354 59.0462 77.017 58.9672 76.8985C59.0067 77.017 59.0462 77.1749 59.0857 77.3724L59.7176 80.6901L58.9672 81.0455L55.7285 76.78Z" fill="#79862F"/>
<path d="M74.0149 69.4337L70.0653 69.0388C69.9468 69.0388 69.7888 68.9993 69.6308 68.9598C69.7493 69.0388 69.8678 69.1177 69.9468 69.1967L72.514 71.29L71.9611 72.0009L67.8535 68.6833L68.4065 68.0119L72.277 68.4068C72.3955 68.4068 72.593 68.4463 72.7115 68.4858C72.593 68.4068 72.4745 68.3278 72.3955 68.2488L69.8678 66.1951L70.4207 65.4841L74.5283 68.8018L74.0149 69.4337Z" fill="#79862F"/>
<path d="M77.886 49.2513C78.5404 49.2513 79.0709 48.7209 79.0709 48.0665C79.0709 47.4121 78.5404 46.8816 77.886 46.8816C77.2317 46.8816 76.7012 47.4121 76.7012 48.0665C76.7012 48.7209 77.2317 49.2513 77.886 49.2513Z" fill="#79862F"/>
<path d="M13.0335 49.2513C13.6879 49.2513 14.2184 48.7209 14.2184 48.0665C14.2184 47.4121 13.6879 46.8816 13.0335 46.8816C12.3791 46.8816 11.8486 47.4121 11.8486 48.0665C11.8486 48.7209 12.3791 49.2513 13.0335 49.2513Z" fill="#79862F"/>
<path d="M58.1385 37.7186C59.4419 35.1908 59.5604 32.3471 58.6915 29.8589C56.1637 30.5698 53.873 32.3076 52.5696 34.8354C51.2662 37.3631 51.1478 40.2068 52.0167 42.695C54.5444 41.9841 56.8351 40.2463 58.1385 37.7186Z" stroke="#79862F" stroke-miterlimit="10" stroke-linecap="round" stroke-linejoin="round"/>
<path d="M43.0502 40.4438C41.9048 38.3505 41.7863 35.9807 42.4972 33.8875C44.63 34.4404 46.5653 35.8622 47.6712 37.9555C48.8166 40.0488 48.9351 42.4185 48.2241 44.5118C46.0914 43.9589 44.1956 42.537 43.0502 40.4438Z" stroke="#79862F" stroke-miterlimit="10" stroke-linecap="round" stroke-linejoin="round"/>
<path d="M49.37 48.1455C48.6196 44.8278 47.2373 41.5892 45.1045 38.6665" stroke="#79862F" stroke-miterlimit="10" stroke-linecap="round" stroke-linejoin="round"/>
<path d="M50.6729 48.1848C51.2258 43.8008 52.8451 39.5352 55.6098 35.7437" stroke="#79862F" stroke-miterlimit="10" stroke-linecap="round" stroke-linejoin="round"/>
<path d="M23.6582 53.0428C23.6582 53.0428 30.2145 50.3571 31.3599 50.0412C32.5053 49.7252 36.4548 48.3823 39.891 51.858C41.1153 53.0823 42.9716 53.7538 44.749 53.9907C46.4473 54.1882 48.8565 53.5958 50.0809 54.9781C50.6733 55.6496 51.3843 57.0714 49.9229 57.7823C47.7901 58.7697 41.2338 58.2563 40.0885 57.9403C38.9431 57.6244 37.4817 56.9529 36.9683 56.479" stroke="#79862F" stroke-miterlimit="10" stroke-linecap="round" stroke-linejoin="round"/>
<path d="M28.2793 62.0479C28.2793 62.0479 29.7011 60.1916 31.3995 60.2311C33.0583 60.2706 40.3255 65.0496 44.0381 65.1286C47.7507 65.2076 60.6264 55.4521 60.6264 55.4521C60.6264 55.4521 63.2331 53.9908 62.0877 52.016C60.9423 50.0412 57.9801 52.174 57.9801 52.174L51.0684 56.2816" stroke="#79862F" stroke-miterlimit="10" stroke-linecap="round" stroke-linejoin="round"/>
<path d="M57.9401 52.1739C57.4267 50.9101 56.2418 50.0411 54.7804 50.0411C54.2275 50.0411 53.7141 50.1596 53.2796 50.3966C52.7662 49.2117 51.5813 48.3823 50.1989 48.3823C48.8956 48.3823 47.7897 49.1327 47.1972 50.1991C46.7628 49.5672 46.0124 49.1327 45.183 49.1327C44.1956 49.1327 43.3267 49.7647 42.9317 50.6336C42.7342 50.5941 42.4972 50.5546 42.2998 50.5546C41.3914 50.5546 40.6014 51.068 40.167 51.8185" stroke="#79862F" stroke-miterlimit="10" stroke-linecap="round" stroke-linejoin="round"/>
</svg>
