<svg width="176" height="102" viewBox="0 0 176 102" fill="none" xmlns="http://www.w3.org/2000/svg">
<path d="M79.056 75.512L90.288 101H102.816L57.744 0.199993H45.792L0.576 101H12.816L24.048 75.512H79.056ZM74.16 64.424H28.944L51.408 13.304L74.16 64.424ZM164.127 101H175.071L174.927 50.888C174.783 34.616 164.415 24.68 145.695 24.68C132.735 24.68 124.527 28.424 114.735 34.904L119.487 43.112C127.407 37.64 135.183 34.472 143.535 34.472C156.927 34.472 163.839 41.096 163.839 52.184V56.648H138.927C121.071 56.792 110.559 65.144 110.559 78.392C110.559 91.496 120.639 101.576 136.335 101.576C148.431 101.576 158.079 97.544 164.127 89.336V101ZM138.495 91.784C127.839 91.784 121.071 86.312 121.071 77.96C121.071 69.608 127.695 65.72 140.367 65.72H163.983V74.792C161.103 85.304 151.311 91.784 138.495 91.784Z" fill="#0A0A12"/>
</svg>
