<svg width="94" height="94" viewBox="0 0 94 94" fill="none" xmlns="http://www.w3.org/2000/svg">
<circle cx="47" cy="47" r="46.5" stroke="#AFB695"/>
<path d="M56.8349 62.5613C56.8349 63.7857 57.7433 64.7336 58.8097 64.7336C59.9156 64.7336 60.7845 63.7462 60.745 62.5218C60.745 61.5344 59.5206 59.6781 59.0467 58.9277C58.8492 58.6512 58.6517 58.6907 58.4937 58.9277C58.0198 59.6781 56.7954 61.5739 56.8349 62.5613Z" stroke="#79862F" stroke-miterlimit="10" stroke-linecap="round" stroke-linejoin="round"/>
<path d="M37.917 44.5514C37.917 44.5514 46.2506 51.6606 47.396 52.6085C48.5414 53.5564 50.3582 54.3463 51.938 54.4648C53.0439 54.5438 54.2683 55.8472 55.3741 56.7951C55.8876 56.2421 56.875 55.0572 57.3489 54.4648C56.243 53.5169 54.7422 52.49 54.4657 51.4236C54.1103 49.8833 53.0439 48.185 51.938 47.2371C50.7926 46.2892 42.459 39.1799 42.459 39.1799" stroke="#79862F" stroke-miterlimit="10" stroke-linecap="round" stroke-linejoin="round"/>
<path d="M34.7569 42.4974C34.0855 43.2873 34.204 44.4722 34.9939 45.1436C35.7838 45.815 36.9687 45.6965 37.6401 44.9066L42.9326 38.6268C43.604 37.8369 43.4855 36.652 42.6956 35.9806C41.9057 35.3091 40.7208 35.4276 40.0494 36.2175L34.7569 42.4974Z" stroke="#79862F" stroke-miterlimit="10" stroke-linecap="round" stroke-linejoin="round"/>
<path d="M31.2418 34.3218C32.5057 32.821 34.7174 32.663 36.2183 33.8874L39.6149 36.731L35.0334 42.142L31.6367 39.2983C30.1754 38.0344 29.9779 35.8226 31.2418 34.3218Z" stroke="#79862F" stroke-miterlimit="10" stroke-linecap="round" stroke-linejoin="round"/>
<path d="M16.3121 34.9144L13.2314 35.5068C13.1524 35.5068 12.9944 35.5463 12.876 35.5463C12.9549 35.5858 13.0734 35.6253 13.1524 35.6648L15.5617 36.6522L15.2852 37.3236L11.4541 35.7438L11.7306 35.1119L14.7323 34.5194C14.8507 34.4799 14.9692 34.4799 15.0877 34.4799C14.9692 34.4405 14.8902 34.401 14.7717 34.3615L12.402 33.3741L12.6785 32.7026L16.5096 34.2825L16.3121 34.9144Z" fill="#79862F"/>
<path d="M16.8651 29.4245C16.0357 28.8321 15.4038 27.7657 16.1937 26.6993C16.9836 25.6329 18.1685 25.8699 18.9979 26.5018C19.8273 27.0943 20.4592 28.1607 19.6693 29.2271C18.9189 30.2934 17.6945 30.0565 16.8651 29.4245ZM18.5634 27.0943C18.0105 26.6993 17.2206 26.4623 16.7466 27.1338C16.2727 27.8052 16.7861 28.4766 17.2996 28.8716C17.8525 29.2665 18.6424 29.5035 19.1164 28.8321C19.5903 28.1607 19.0769 27.4497 18.5634 27.0943Z" fill="#79862F"/>
<path d="M28.6344 19.7086L27.252 20.5775L27.4495 21.5254L26.8176 21.9204L25.9092 17.5759L26.5016 17.1809L30.0167 19.8666L29.3848 20.2616L28.6344 19.7086ZM27.0151 18.4843C26.8966 18.4053 26.7781 18.2868 26.6596 18.2078C26.6991 18.3263 26.7386 18.5238 26.7781 18.6423L27.0546 19.9456L28.042 19.3137L27.0151 18.4843Z" fill="#79862F"/>
<path d="M32.2285 14.2976L33.9663 13.7052C34.9537 13.3497 35.4672 13.8236 35.6647 14.4556C35.8226 14.89 35.7436 15.4825 35.2302 15.8379L36.5731 17.1808L35.8226 17.4573L34.5193 16.1934L33.6899 16.4699L34.2428 18.0102L33.6109 18.2077L32.2285 14.2976ZM34.5983 15.4035C35.0327 15.2455 35.0722 14.9295 34.9932 14.6531C34.9142 14.3766 34.6773 14.1396 34.2033 14.2976L33.1369 14.6531L33.5319 15.7589L34.5983 15.4035Z" fill="#79862F"/>
<path d="M42.2213 16.1144L41.5104 16.1934L41.1154 12.7573L39.9306 12.8758L39.8516 12.2043L42.9322 11.8489L43.0112 12.5203L41.8264 12.6388L42.2213 16.1144Z" fill="#79862F"/>
<path d="M47.8296 11.8489L48.5406 11.8884L48.2246 16.0354L47.5137 15.9959L47.8296 11.8489Z" fill="#79862F"/>
<path d="M53.6748 12.6782L56.2815 13.3497L56.1235 13.9816L54.2277 13.4681L53.9908 14.4555L55.2151 14.7715L55.0571 15.4034L53.7538 15.127L53.2798 16.8648L52.6084 16.6673L53.6748 12.6782Z" fill="#79862F"/>
<path d="M60.7451 15.1665L61.377 15.4825L59.5997 19.2346L58.9678 18.9186L60.7451 15.1665Z" fill="#79862F"/>
<path d="M64.5367 19.6294C65.0896 18.879 66.1955 18.1681 67.2224 18.958C67.8543 19.432 67.9728 20.0639 67.8543 20.5378L67.1829 20.3799C67.2224 19.9849 67.1434 19.7479 66.8274 19.511C66.1955 19.037 65.524 19.5505 65.1686 20.1034C64.7736 20.6563 64.5366 21.4462 65.0896 21.8807C65.4056 22.1177 65.7215 22.0782 66.0375 21.9202L66.4325 22.5126C65.8795 22.8286 65.2871 22.8681 64.6946 22.4336C63.6282 21.6042 63.9442 20.4589 64.5367 19.6294Z" fill="#79862F"/>
<path d="M71.9615 23.3027L72.4355 23.8162L69.3548 26.6204L68.8809 26.1069L71.9615 23.3027Z" fill="#79862F"/>
<path d="M74.0545 31.5968L73.1856 30.175L72.2377 30.3725L71.8428 29.7405L76.1873 28.9111L76.5428 29.5036L73.7781 32.9792L73.3831 32.3473L74.0545 31.5968ZM75.3184 30.017C75.3974 29.8985 75.5159 29.78 75.5949 29.701C75.4764 29.7405 75.2789 29.78 75.1604 29.8195L73.8571 30.0565L74.489 31.0834L75.3184 30.017Z" fill="#79862F"/>
<path d="M79.3866 35.27L79.6236 35.9414L76.3455 37.0473L76.9774 38.9431L76.3455 39.1406L75.4766 36.5734L79.3866 35.27Z" fill="#79862F"/>
<path d="M16.5881 58.6514L16.8646 59.4018L12.4806 61.1001L12.2041 60.3497L16.5881 58.6514Z" fill="#79862F"/>
<path d="M16.509 68.4856L17.8913 65.2075C17.9308 65.089 18.0098 64.9705 18.0888 64.852C18.0098 64.931 17.8913 65.01 17.8123 65.0495L15.3241 66.7083L14.8896 66.0369L18.7997 63.4302L19.2342 64.0621L17.8518 67.2613C17.8123 67.3798 17.7333 67.4982 17.6544 67.6167C17.7333 67.5377 17.8518 67.4587 17.9308 67.4192L20.3796 65.7999L20.814 66.4714L16.9039 69.0781L16.509 68.4856Z" fill="#79862F"/>
<path d="M21.9991 71.4083C22.7495 70.5394 24.0924 70.0259 25.1588 70.9738C25.8302 71.5663 25.8697 72.1982 25.7512 72.7906L24.9613 72.6326C25.0008 72.2772 25.0008 71.8822 24.6453 71.5663C23.9344 70.9343 23.105 71.4478 22.631 71.9612C22.0781 72.5931 21.8016 73.4226 22.4336 74.015C22.8285 74.3705 23.3815 74.331 23.6974 73.9755L23.7369 73.936L23.105 73.3831L23.6184 72.8301L24.8428 73.936L24.4083 74.4099C23.6184 75.3184 22.631 75.2789 21.8806 74.6469C20.8537 73.62 21.1697 72.3167 21.9991 71.4083Z" fill="#79862F"/>
<path d="M29.8589 74.5286L31.7152 75.4765C32.7421 76.0294 32.7816 76.7798 32.4261 77.4513C32.1892 77.9252 31.6362 78.3202 30.9648 78.2017L30.9253 80.3344L30.1354 79.9L30.1749 77.8462L29.306 77.4118L28.4765 79.0311L27.7656 78.6756L29.8589 74.5286ZM30.7278 77.3723C31.2018 77.6092 31.4782 77.4118 31.6362 77.0958C31.7942 76.8193 31.7942 76.4244 31.3202 76.1874L30.1749 75.5949L29.5824 76.7798L30.7278 77.3723Z" fill="#79862F"/>
<path d="M37.0078 77.6091L39.97 78.3201L39.812 79.0705L37.6002 78.557L37.3238 79.6629L38.6666 79.9789L38.5086 80.7293L37.1658 80.4133L36.8893 81.6772L39.2196 82.2301L39.0616 82.9806L35.9414 82.2696L37.0078 77.6091Z" fill="#79862F"/>
<path d="M45.6963 78.7546C47.3551 78.7151 47.987 79.9 47.987 81.0849C47.987 82.1513 47.4736 83.4546 45.7358 83.4546L44.3139 83.4941L44.2744 78.7546H45.6963ZM47.1971 81.0849C47.1971 80.295 46.8021 79.505 45.8937 79.505H45.1038L45.1433 82.7042H45.8937C46.8811 82.6647 47.1971 81.7958 47.1971 81.0849Z" fill="#79862F"/>
<path d="M52.2129 78.0041L53.0028 77.8066L54.0692 82.3882L53.2793 82.5856L52.2129 78.0041Z" fill="#79862F"/>
<path d="M57.2686 76.464L60.0333 75.1606L60.3492 75.8321L58.2954 76.78L58.7694 77.8069L60.0333 77.2144L60.3492 77.8859L59.0854 78.4783L59.6383 79.6632L61.8106 78.6363L62.1265 79.3077L59.2038 80.6506L57.2686 76.464Z" fill="#79862F"/>
<path d="M68.9199 74.6864L65.5233 73.62C65.4048 73.5805 65.2863 73.541 65.1678 73.4621C65.2468 73.541 65.3258 73.62 65.4048 73.7385L67.3006 76.0293L66.6687 76.5427L63.667 72.9091L64.2594 72.3957L67.5771 73.4621C67.6956 73.5015 67.814 73.541 67.972 73.62C67.893 73.541 67.7745 73.4226 67.7351 73.3436L65.8788 71.0923L66.5107 70.5789L69.5124 74.2125L68.9199 74.6864Z" fill="#79862F"/>
<path d="M74.3309 68.7228L73.8569 69.3548L70.6972 67.0245L69.9073 68.0909L69.2754 67.6169L71.3292 64.8127L71.9611 65.2867L71.1712 66.3531L74.3309 68.7228Z" fill="#79862F"/>
<path d="M76.5425 62.9168L76.582 62.1269C77.056 62.1269 77.4904 61.8899 77.6484 61.4554C77.8459 61.021 77.7669 60.626 77.3719 60.468C76.977 60.31 76.6215 60.6655 76.2266 61.1C75.7526 61.6134 75.2392 62.2058 74.4098 61.8899C73.7778 61.6134 73.4619 60.9025 73.8568 59.9941C74.1728 59.2437 74.7652 58.9277 75.3577 59.0067L75.2787 59.7571C74.9627 59.7571 74.6862 59.9151 74.5282 60.3495C74.3703 60.7445 74.4493 61.021 74.7257 61.179C75.0417 61.2974 75.3182 60.9815 75.6736 60.5865C76.1476 60.0336 76.7795 59.4016 77.6879 59.7571C78.5173 60.1126 78.7148 60.9815 78.3593 61.8109C78.0039 62.5613 77.3324 62.9563 76.5425 62.9168Z" fill="#79862F"/>
<path d="M12.9944 49.0934C13.6488 49.0934 14.1793 48.5629 14.1793 47.9085C14.1793 47.2541 13.6488 46.7236 12.9944 46.7236C12.3401 46.7236 11.8096 47.2541 11.8096 47.9085C11.8096 48.5629 12.3401 49.0934 12.9944 49.0934Z" fill="#79862F"/>
<path d="M77.096 49.0934C77.7504 49.0934 78.2809 48.5629 78.2809 47.9085C78.2809 47.2541 77.7504 46.7236 77.096 46.7236C76.4416 46.7236 75.9111 47.2541 75.9111 47.9085C75.9111 48.5629 76.4416 49.0934 77.096 49.0934Z" fill="#79862F"/>
</svg>
