<svg width="94" height="94" viewBox="0 0 94 94" fill="none" xmlns="http://www.w3.org/2000/svg">
<circle cx="47" cy="47" r="46.5" stroke="#AFB695"/>
<path d="M20.617 29.1479L16.4304 28.9899C16.3119 28.9899 16.1144 28.9504 15.9565 28.9504C16.0749 29.0294 16.1934 29.1084 16.3119 29.1874L19.1556 31.2017L18.6027 31.9521L14.1396 28.7529L14.6531 28.0025L18.7607 28.1605C18.9186 28.1605 19.0766 28.2 19.2346 28.2C19.1161 28.121 18.9581 28.042 18.8791 27.963L16.0749 25.9882L16.6279 25.2378L21.1304 28.437L20.617 29.1479Z" fill="#79862F"/>
<path d="M24.2505 21.486C23.4606 20.3801 23.1447 18.7608 24.606 17.7734C26.0673 16.7465 27.4497 17.6154 28.2396 18.7608C29.0295 19.9061 29.3455 21.486 27.8842 22.4734C26.3833 23.4608 25.001 22.5919 24.2505 21.486ZM27.4102 19.2742C26.8968 18.5238 25.9884 17.8919 25.1194 18.4843C24.2505 19.0767 24.5665 20.2221 25.0405 20.8935C25.5539 21.644 26.4623 22.2759 27.3312 21.6835C28.2001 21.091 27.8842 19.9851 27.4102 19.2742Z" fill="#79862F"/>
<path d="M39.1404 17.4178L36.0598 14.6136C35.9808 14.5346 35.8228 14.3766 35.7438 14.2581C35.7833 14.3766 35.8228 14.5346 35.8623 14.6531L36.7312 18.0497L35.8228 18.2867L34.4404 12.9153L35.3093 12.6783L38.3505 15.443C38.469 15.522 38.5875 15.68 38.6665 15.7985C38.627 15.68 38.5875 15.522 38.548 15.4035L37.6791 12.0859L38.5875 11.8489L39.9698 17.2203L39.1404 17.4178Z" fill="#79862F"/>
<path d="M46.8813 13.9421L48.8956 14.0606L48.8561 14.969L46.8418 14.8505L46.8813 13.9421Z" fill="#79862F"/>
<path d="M57.0715 18.7211L56.1631 18.4051L57.7034 14.0606L56.2026 13.5471L56.5185 12.6782L60.3891 14.0606L60.0732 14.9295L58.5723 14.416L57.0715 18.7211Z" fill="#79862F"/>
<path d="M68.3678 22.5918L66.472 21.091L64.9711 22.9473L64.2207 22.3548L67.6568 18.0498L68.4073 18.6422L67.0249 20.3801L68.9207 21.8809L70.3031 20.1431L71.0535 20.7355L67.6173 25.0406L66.8669 24.4481L68.3678 22.5918Z" fill="#79862F"/>
<path d="M74.3308 28.5557C75.3972 27.8843 77.0955 27.5683 77.9644 28.9901C78.5174 29.8985 78.3594 30.728 78.0039 31.2414L77.214 30.728C77.4115 30.254 77.4905 29.8985 77.214 29.4641C76.6611 28.5952 75.5947 28.9112 74.8443 29.3456C74.0543 29.8196 73.4224 30.728 73.8964 31.5179C74.1728 31.9523 74.5678 32.0313 75.0417 32.0313L75.2392 32.9397C74.4098 33.0582 73.6199 32.8212 73.1064 31.9918C72.198 30.57 73.1854 29.2666 74.3308 28.5557Z" fill="#79862F"/>
<path d="M16.3515 68.3672L18.1288 64.5756C18.1683 64.4571 18.2868 64.2991 18.3658 64.1806C18.2473 64.2596 18.1288 64.3386 18.0104 64.4176L15.0482 66.2344L14.5742 65.4445L19.2742 62.5613L19.7482 63.3512L18.0104 67.0638C17.9314 67.1823 17.8524 67.3403 17.7734 67.4983C17.8919 67.4193 18.0104 67.3403 18.1288 67.2613L21.0515 65.4445L21.5255 66.2344L16.786 69.1176L16.3515 68.3672Z" fill="#79862F"/>
<path d="M24.0135 73.1462C24.8429 72.0798 26.2648 71.2899 27.6866 72.3562C29.1084 73.4621 28.674 75.0025 27.8446 76.1083C27.0152 77.1747 25.5933 77.9646 24.1715 76.8983C22.7496 75.7924 23.1841 74.2125 24.0135 73.1462ZM27.0547 75.5159C27.6076 74.805 27.9631 73.7386 27.0942 73.1067C26.2253 72.4352 25.2774 73.1067 24.7639 73.7781C24.211 74.489 23.8555 75.5554 24.7244 76.1873C25.5538 76.8193 26.5412 76.1873 27.0547 75.5159Z" fill="#79862F"/>
<path d="M36.8499 83.0596L35.665 79.0705C35.6255 78.9521 35.586 78.7546 35.5465 78.5966C35.507 78.7151 35.4675 78.8731 35.4675 78.9916L34.4406 82.3487L33.5322 82.0722L35.1516 76.7798L36.0205 77.0563L37.1658 81.0058C37.2053 81.1243 37.2448 81.3218 37.2448 81.4798C37.2843 81.3218 37.3238 81.2033 37.3633 81.0848L38.3507 77.8067L39.2591 78.0831L37.6398 83.3756L36.8499 83.0596Z" fill="#79862F"/>
<path d="M45.8154 81.4404L47.8297 81.4009L47.8692 82.3093L45.8549 82.3488L45.8154 81.4404Z" fill="#79862F"/>
<path d="M57.6246 82.2696L56.7162 82.5856L55.2549 78.2015L53.754 78.715L53.4775 77.8461L57.3481 76.5427L57.6246 77.4116L56.1238 77.9251L57.6246 82.2696Z" fill="#79862F"/>
<path d="M67.4194 73.9362L65.5236 75.437L67.0244 77.3328L66.274 77.9253L62.8379 73.5807L63.5883 72.9883L64.9707 74.7261L66.8665 73.2253L65.4841 71.4875L66.2345 70.895L69.6707 75.2396L68.9202 75.832L67.4194 73.9362Z" fill="#79862F"/>
<path d="M72.7906 67.6168C71.7242 66.9453 70.6973 65.6025 71.5662 64.1411C72.1191 63.2327 72.9485 62.9958 73.5805 63.1142L73.462 64.0621C72.9485 64.0621 72.6326 64.1806 72.3561 64.6151C71.8032 65.484 72.5931 66.3134 73.304 66.7873C74.0939 67.2613 75.1603 67.4588 75.6737 66.6689C75.9502 66.2344 75.8317 65.8395 75.6342 65.405L76.3847 64.8521C76.8586 65.563 76.9771 66.3529 76.4637 67.1823C75.5158 68.6437 73.9359 68.3277 72.7906 67.6168Z" fill="#79862F"/>
<path d="M14.6139 48.6588C14.6139 49.3302 14.1004 49.8436 13.429 49.8436C12.7576 49.8436 12.2441 49.3302 12.2441 48.6588C12.2441 47.9873 12.7576 47.4739 13.429 47.4739C14.0609 47.4739 14.6139 48.0268 14.6139 48.6588Z" fill="#79862F"/>
<path d="M78.7155 48.6588C78.7155 49.3302 78.202 49.8436 77.5306 49.8436C76.8591 49.8436 76.3457 49.3302 76.3457 48.6588C76.3457 47.9873 76.8591 47.4739 77.5306 47.4739C78.202 47.4739 78.7155 48.0268 78.7155 48.6588Z" fill="#79862F"/>
<path d="M36.5341 61.2975H34.5198V51.4236H31.2021V49.4883H39.8122V51.4236H36.4946V61.2975H36.5341Z" fill="#79862F"/>
<path d="M49.0145 56.163H43.9196V61.2975H41.9053V49.4487H43.9196V54.2277H49.0145V49.4487H50.9893V61.258H49.0145V56.163Z" fill="#79862F"/>
<path d="M53.3984 55.3731C53.3984 52.6479 54.6623 49.2512 58.2959 49.2512C60.5077 49.2512 61.8505 50.5151 62.364 51.779L60.5472 52.6084C59.9547 51.7 59.3623 51.226 58.2959 51.226C56.1631 51.226 55.4917 53.5563 55.4917 55.4126C55.4917 57.3874 56.3211 59.5596 58.2959 59.5596C59.3623 59.5596 59.9942 58.9277 60.5077 58.0588L62.364 58.7697C61.6531 60.389 60.3497 61.5344 58.2959 61.5344C54.6623 61.4949 53.3984 58.2958 53.3984 55.3731Z" fill="#79862F"/>
<path d="M37.8375 45.3412L32.9796 37.8765C32.8216 37.6395 32.6636 37.2841 32.5056 37.0076C32.5451 37.2841 32.5451 37.6 32.5451 37.8765V45.3412H30.5703V33.532H32.5056L37.2056 40.8782C37.3636 41.1152 37.5216 41.4706 37.6796 41.7866C37.6401 41.4706 37.6401 41.1547 37.6401 40.8782V33.532H39.6149V45.3412H37.8375Z" fill="#79862F"/>
<path d="M42.0635 39.4168C42.0635 36.4941 43.4458 33.2949 47.1584 33.2949C50.9105 33.2949 52.2534 36.4941 52.2534 39.4168C52.2534 42.3395 50.95 45.5386 47.1584 45.5386C43.4063 45.5386 42.0635 42.3395 42.0635 39.4168ZM50.1996 39.4168C50.1996 37.4815 49.4097 35.2302 47.1584 35.2302C44.9072 35.2302 44.1173 37.5605 44.1173 39.4168C44.1173 41.3521 44.9072 43.6033 47.1584 43.6033C49.4097 43.6033 50.1996 41.2336 50.1996 39.4168Z" fill="#79862F"/>
<path d="M61.9299 45.3412L57.1114 37.8765C56.9534 37.6395 56.7954 37.2841 56.6374 37.0076C56.6769 37.2841 56.6769 37.6 56.6769 37.8765V45.3412H54.7021V33.532H56.6374L61.3374 40.8782C61.4954 41.1152 61.6534 41.4706 61.8114 41.7866C61.7719 41.4706 61.7719 41.1547 61.7719 40.8782V33.532H63.7467V45.3412H61.9299Z" fill="#79862F"/>
</svg>
