<svg width="94" height="94" viewBox="0 0 94 94" fill="none" xmlns="http://www.w3.org/2000/svg">
<circle cx="47" cy="47" r="46.5" stroke="#AFB695"/>
<path d="M19.906 30.1747H15.7195C15.601 30.1747 15.4035 30.1747 15.2455 30.1352C15.364 30.1747 15.4825 30.2537 15.601 30.3327L18.5237 32.2285L18.0102 33.0184L13.4287 30.0167L13.9422 29.2663H18.0497C18.2077 29.2663 18.3657 29.2663 18.5237 29.3058C18.4052 29.2268 18.2472 29.1478 18.1682 29.1083L15.285 27.2125L15.7985 26.4226L20.4195 29.4638L19.906 30.1747Z" fill="#79862F"/>
<path d="M23.2234 22.394C22.394 21.2881 22.0385 19.7083 23.4604 18.6419C24.8822 17.5755 26.3041 18.3654 27.094 19.4713C27.9234 20.5772 28.2788 22.157 26.857 23.2234C25.4746 24.2898 24.0528 23.4999 23.2234 22.394ZM26.3436 20.1032C25.7906 19.3923 24.8822 18.7604 24.0133 19.3923C23.1444 20.0242 23.4999 21.1301 24.0133 21.8015C24.5662 22.5125 25.4746 23.1444 26.3436 22.5125C27.2125 21.8805 26.8175 20.7746 26.3436 20.1032Z" fill="#79862F"/>
<path d="M37.9951 17.7731L34.796 15.0873C34.6775 15.0084 34.559 14.8899 34.4405 14.7714C34.48 14.8899 34.559 15.0479 34.5985 15.1663L35.5859 18.5235L34.6775 18.8L33.0977 13.5075L33.9666 13.231L37.1262 15.8773C37.2447 15.9563 37.3632 16.1142 37.4817 16.1932C37.4422 16.0747 37.3632 15.9168 37.3237 15.7983L36.3363 12.5201L37.2052 12.2437L38.7851 17.5361L37.9951 17.7731Z" fill="#79862F"/>
<path d="M45.5781 14.021L47.5924 14.0605V14.9689L45.5781 14.9294V14.021Z" fill="#79862F"/>
<path d="M54.9393 15.1664C55.3737 13.9026 56.5981 12.7177 58.1384 13.2311C59.1653 13.5866 59.4418 14.258 59.5998 14.8899L58.6519 15.0874C58.5334 14.653 58.3359 14.258 57.8225 14.1C56.7561 13.7446 56.1241 14.653 55.8477 15.4824C55.5317 16.4303 55.6107 17.4572 56.5981 17.7731C57.1905 17.9706 57.7435 17.6941 57.941 17.1412L57.9805 17.0622L57.072 16.7462L57.3485 15.9168L59.1653 16.5488L58.9283 17.2597C58.4939 18.6026 57.388 19.037 56.3216 18.642C54.7023 18.0891 54.4653 16.5093 54.9393 15.1664Z" fill="#79862F"/>
<path d="M67.2611 24.9218L69.1174 22.6311C69.2359 22.4731 69.4334 22.2361 69.5519 22.1176C69.3544 22.2361 69.1174 22.3941 68.9199 22.4731L65.9578 23.9739L66.8267 20.7748C66.8662 20.5773 66.9451 20.3008 67.0241 20.1033C66.9451 20.2218 66.7477 20.4983 66.6292 20.6563L64.7729 22.947L64.0225 22.3546L67.4981 18.0496L68.2485 18.642L67.3006 22.0781C67.2611 22.2361 67.2216 22.3546 67.1426 22.4731C67.2611 22.3941 67.3796 22.3151 67.5376 22.2361L70.6972 20.6168L71.4082 21.2092L67.9325 25.5143L67.2611 24.9218Z" fill="#79862F"/>
<path d="M74.687 29.1085C75.8718 28.3976 77.4912 28.2001 78.3996 29.7405C79.308 31.2808 78.3601 32.5842 77.1752 33.2951C75.9903 34.006 74.371 34.2035 73.4626 32.6631C72.5542 31.1228 73.5021 29.8195 74.687 29.1085ZM76.6223 32.4657C77.4122 31.9917 78.1231 31.1623 77.5702 30.2144C77.0172 29.306 75.8718 29.543 75.1609 29.9379C74.371 30.4119 73.6601 31.2413 74.213 32.1892C74.766 33.0976 75.9113 32.9001 76.6223 32.4657Z" fill="#79862F"/>
<path d="M15.6016 67.3009L17.5369 63.5883C17.6159 63.4698 17.6949 63.3118 17.7739 63.1933C17.6554 63.2723 17.5369 63.3513 17.4184 63.4303L14.3773 65.1286L13.9033 64.2992L18.7218 61.574L19.1563 62.3639L17.2605 65.9975C17.1815 66.116 17.1025 66.274 17.0235 66.3925C17.142 66.3135 17.2605 66.2345 17.379 66.1555L20.3806 64.4572L20.8546 65.2866L16.0361 68.0118L15.6016 67.3009Z" fill="#79862F"/>
<path d="M23.0666 72.3562C23.9355 71.2898 25.3968 70.5788 26.7792 71.7242C28.1615 72.8696 27.6876 74.4099 26.8187 75.4763C25.9497 76.5427 24.4884 77.2536 23.106 76.1083C21.7237 74.9629 22.1976 73.4225 23.0666 72.3562ZM26.0287 74.8444C26.6212 74.1335 26.9766 73.1066 26.1867 72.4351C25.3573 71.7637 24.3699 72.3562 23.817 72.9881C23.2245 73.6595 22.8691 74.7259 23.659 75.3973C24.4884 76.1083 25.5153 75.4763 26.0287 74.8444Z" fill="#79862F"/>
<path d="M35.5072 82.7831L34.4803 78.715C34.4408 78.5965 34.4013 78.3991 34.4013 78.2411C34.3618 78.3596 34.3223 78.5175 34.2828 78.636L33.1375 81.9142L32.2686 81.5982L34.0854 76.3848L34.9543 76.7007L35.9417 80.6898C35.9812 80.8083 35.9812 81.0058 36.0207 81.1638C36.0602 81.0058 36.0996 80.8873 36.1391 80.7688L37.2845 77.5301L38.1534 77.8461L36.3366 83.0596L35.5072 82.7831Z" fill="#79862F"/>
<path d="M44.5918 81.5193L46.6061 81.5588V82.4672L44.5918 82.4277V81.5193Z" fill="#79862F"/>
<path d="M53.6755 80.6899C53.2805 79.3865 53.557 77.7277 55.1368 77.2143C56.1637 76.8983 56.7956 77.2538 57.3091 77.6882L56.6376 78.3991C56.2822 78.1227 55.8872 77.9252 55.4133 78.0832C54.3469 78.3991 54.3469 79.5445 54.6234 80.3739C54.9393 81.3218 55.6107 82.1118 56.5981 81.7958C57.1906 81.5983 57.467 81.0454 57.3091 80.4924L57.2696 80.4134L56.3612 80.6899L56.0847 79.821L57.941 79.2286L58.178 79.9395C58.6124 81.2823 57.9805 82.2697 56.8746 82.6252C55.2553 83.2176 54.1099 82.0723 53.6755 80.6899Z" fill="#79862F"/>
<path d="M69.316 75.595L67.4992 73.3042C67.3807 73.1463 67.1832 72.9093 67.1042 72.7513C67.1832 72.9488 67.2622 73.2252 67.3412 73.4227L68.1706 76.6219L65.2479 75.0815C65.0504 75.0026 64.8134 74.8446 64.616 74.7261C64.7344 74.8446 64.9319 75.0815 65.0504 75.2395L66.8672 77.5303L66.1168 78.1227L62.6807 73.8177L63.4311 73.2252L66.5513 74.8841C66.6697 74.9631 66.8277 75.042 66.9067 75.121C66.8672 75.0026 66.7882 74.8446 66.7487 74.7261L65.8403 71.2899L66.5513 70.6975L69.9874 75.0025L69.316 75.595Z" fill="#79862F"/>
<path d="M73.1073 67.2613C71.9224 66.5898 70.9745 65.2865 71.8434 63.7461C72.7518 62.2058 74.3317 62.4033 75.5165 63.0747C76.7014 63.7461 77.6888 65.0495 76.7804 66.5898C75.9115 68.1302 74.2922 67.9722 73.1073 67.2613ZM75.0821 63.9041C74.2922 63.4302 73.2258 63.2327 72.6729 64.1806C72.1199 65.1285 72.9098 65.9974 73.6207 66.3924C74.4107 66.8268 75.4771 67.0638 76.03 66.1159C76.5434 65.247 75.793 64.3386 75.0821 63.9041Z" fill="#79862F"/>
<path d="M14.6139 48.7772C14.6139 49.4486 14.1004 49.962 13.429 49.962C12.7576 49.962 12.2441 49.4486 12.2441 48.7772C12.2441 48.1057 12.7576 47.5923 13.429 47.5923C14.0609 47.5923 14.6139 48.1057 14.6139 48.7772Z" fill="#79862F"/>
<path d="M78.7155 48.7772C78.7155 49.4486 78.202 49.962 77.5306 49.962C76.8591 49.962 76.3457 49.4486 76.3457 48.7772C76.3457 48.1057 76.8591 47.5923 77.5306 47.5923C78.202 47.5923 78.7155 48.1057 78.7155 48.7772Z" fill="#79862F"/>
<path d="M29.5039 55.4522C29.5039 52.569 31.1232 49.3303 34.5989 49.3303C36.8501 49.3303 37.9165 50.4757 38.6669 51.7001L36.8896 52.727C36.3762 51.937 35.7047 51.2656 34.5989 51.2656C32.2686 51.2656 31.5577 53.5959 31.5577 55.4127C31.5577 57.5454 32.4266 59.5597 34.5989 59.5597C35.9022 59.5597 36.8501 58.5723 36.8501 57.348V57.1505H34.7963V55.2547H38.8644V56.874C38.8644 59.8757 37.0081 61.495 34.5989 61.495C31.0442 61.574 29.5039 58.5723 29.5039 55.4522Z" fill="#79862F"/>
<path d="M49.8835 61.3764V55.0966C49.8835 54.6621 49.923 53.9907 49.9625 53.6747C49.8045 54.1487 49.607 54.7016 49.4491 55.136L46.6054 61.5739L43.7617 55.0966C43.5642 54.7016 43.3667 54.1487 43.2087 53.6747C43.2482 53.9907 43.2877 54.6621 43.2877 55.0966V61.3764H41.2734V49.5671H43.2877L46.2894 56.5184C46.4079 56.7949 46.5264 57.1108 46.6054 57.3873C46.6844 57.1108 46.8029 56.7949 46.9213 56.5184L49.923 49.5671H51.8583V61.3764H49.8835Z" fill="#79862F"/>
<path d="M54.3076 55.4519C54.3076 52.5292 55.69 49.3301 59.4026 49.3301C63.1547 49.3301 64.4975 52.5292 64.4975 55.4519C64.4975 58.3746 63.1547 61.5738 59.4026 61.5738C55.69 61.5738 54.3076 58.3746 54.3076 55.4519ZM62.4832 55.4519C62.4832 53.5166 61.6933 51.2654 59.4421 51.2654C57.1908 51.2654 56.4009 53.5956 56.4009 55.4519C56.4009 57.3872 57.1908 59.6385 59.4421 59.6385C61.6933 59.6385 62.4832 57.2687 62.4832 55.4519Z" fill="#79862F"/>
<path d="M37.1662 45.4596L32.3477 37.9554C32.1897 37.7184 32.0318 37.3629 31.8738 37.0865C31.9133 37.3629 31.9133 37.6789 31.9133 37.9554V45.4201H29.9385V33.6108H31.8738L36.5738 40.9571C36.7318 41.194 36.8897 41.5495 37.0477 41.8655C37.0082 41.5495 37.0082 41.2335 37.0082 40.9571V33.6108H38.983V45.4201H37.1662V45.4596Z" fill="#79862F"/>
<path d="M41.3926 39.5352C41.3926 36.6125 42.7749 33.4133 46.4875 33.4133C50.2396 33.4133 51.5825 36.6125 51.5825 39.5352C51.5825 42.4579 50.2396 45.657 46.4875 45.657C42.7749 45.657 41.3926 42.4579 41.3926 39.5352ZM49.5682 39.5352C49.5682 37.5999 48.7783 35.3486 46.527 35.3486C44.2758 35.3486 43.4859 37.6789 43.4859 39.5352C43.4859 41.4705 44.2758 43.7217 46.527 43.7217C48.7783 43.6822 49.5682 41.352 49.5682 39.5352Z" fill="#79862F"/>
<path d="M61.298 45.4596L56.4796 37.9554C56.3216 37.7184 56.1636 37.3629 56.0056 37.0865C56.0451 37.3629 56.0451 37.6789 56.0451 37.9554V45.4201H54.0703V33.6108H56.0056L60.7056 40.9571C60.8636 41.194 61.0216 41.5495 61.1796 41.8655C61.1401 41.5495 61.1401 41.2335 61.1401 40.9571V33.6108H63.1149V45.4201H61.298V45.4596Z" fill="#79862F"/>
</svg>
