<svg width="94" height="94" viewBox="0 0 94 94" fill="none" xmlns="http://www.w3.org/2000/svg">
<circle cx="47" cy="47" r="46.5" stroke="#AFB695"/>
<path d="M47.6712 47.8293C47.6712 49.1326 46.6444 50.1595 45.341 50.1595C44.0376 50.1595 43.0107 49.1326 43.0107 47.8293C43.0107 46.5259 44.0376 45.499 45.341 45.499C46.6444 45.499 47.6712 46.5654 47.6712 47.8293Z" stroke="#79862F" stroke-miterlimit="10" stroke-linecap="round" stroke-linejoin="round"/>
<path d="M41.549 57.4269C37.7179 55.8471 35.0322 52.095 35.0322 47.7109C35.0322 47.2765 35.0717 46.8815 35.1112 46.4866" stroke="#79862F" stroke-miterlimit="10" stroke-linecap="round" stroke-linejoin="round"/>
<path d="M55.965 46.1311C56.044 46.6445 56.0835 47.158 56.0835 47.7109C56.0835 52.1345 53.3188 55.9656 49.4482 57.5059" stroke="#79862F" stroke-miterlimit="10" stroke-linecap="round" stroke-linejoin="round"/>
<path d="M39.2188 39.2983C40.9961 37.9554 43.1683 37.1655 45.5381 37.1655C48.0263 37.1655 50.3171 38.0344 52.1339 39.4563" stroke="#79862F" stroke-miterlimit="10" stroke-linecap="round" stroke-linejoin="round"/>
<path d="M59.8358 42.4186C58.9274 41.9052 57.9795 41.5497 57.0316 41.3127C57.3871 40.1674 57.6241 38.943 57.6241 37.6396C57.6241 33.9665 55.9653 30.7279 53.3585 28.5161C52.6871 27.9237 52.2921 28.0816 52.7661 28.7531C53.793 30.1749 54.4249 31.9522 54.4249 33.848C54.4249 38.627 50.5543 42.5371 45.7358 42.5371C40.9569 42.5371 37.0468 38.6665 37.0468 33.848C37.0468 31.9917 37.6392 30.2539 38.6661 28.8321C39.1401 28.1606 38.8636 27.9237 38.1921 28.4766C35.5064 30.6884 33.8476 33.9665 33.8476 37.6396C33.8476 38.864 34.0451 40.0489 34.4006 41.1547C32.8997 41.4312 31.4384 41.9842 30.0955 42.8531C26.9358 44.9068 25.0795 48.185 24.7241 51.6606C24.6451 52.4505 25.0006 52.49 25.277 51.7396C25.909 50.0808 27.0543 48.6589 28.6342 47.5926C32.6627 44.9858 38.0342 46.1312 40.6409 50.1598C43.2476 54.1884 42.1022 59.5598 38.0737 62.1665C36.4148 63.2329 34.519 63.6673 32.7022 63.5489C31.9518 63.5094 31.9518 63.8253 32.6627 64.0623C35.9804 65.2077 39.772 64.8522 42.9711 62.7984C43.8401 62.2455 44.63 61.5741 45.3014 60.8237C46.1308 61.7321 47.1577 62.5615 48.3031 63.1934C51.5812 65.0102 55.3728 65.0892 58.572 63.7858C59.3224 63.4699 59.3619 63.1144 58.6115 63.2329C56.7947 63.5094 54.8594 63.1934 53.1216 62.2455C48.9745 59.9547 47.4342 54.6623 49.7644 50.4363C52.0947 46.2497 57.3871 44.7094 61.5737 47.0396C63.3115 47.9875 64.6148 49.4884 65.3258 51.1867C65.6022 51.8581 65.8787 51.6211 65.7602 50.8312C65.2073 47.3951 63.114 44.2749 59.8358 42.4186Z" stroke="#79862F" stroke-miterlimit="10" stroke-linecap="round" stroke-linejoin="round"/>
<path d="M16.7859 33.7688L12.8758 34.3613C12.7573 34.3613 12.5994 34.3613 12.4414 34.3613C12.5599 34.4008 12.6783 34.4403 12.7968 34.5192L15.7985 35.9016L15.4036 36.731L10.6641 34.5192L11.0195 33.7293L14.8901 33.1764C15.0086 33.1369 15.2061 33.1369 15.3246 33.1369C15.2061 33.0974 15.0481 33.0184 14.9691 32.9789L12.0069 31.5966L12.4019 30.8066L17.1809 33.0184L16.7859 33.7688Z" fill="#79862F"/>
<path d="M18.5241 26.2647C17.5762 25.3563 16.9837 23.9345 18.1291 22.7101C19.2745 21.4857 20.7358 21.9992 21.6837 22.9076C22.6316 23.816 23.2241 25.1983 22.0787 26.4622C20.9333 27.6866 19.472 27.1731 18.5241 26.2647ZM21.0518 23.579C20.4199 22.9866 19.472 22.5521 18.7611 23.3025C18.0501 24.053 18.5636 25.0009 19.156 25.5538C19.788 26.1462 20.7358 26.5807 21.4468 25.8303C22.1577 25.1193 21.6443 24.1319 21.0518 23.579Z" fill="#79862F"/>
<path d="M31.2415 19.5899L27.7659 17.6941C27.6474 17.6152 27.5289 17.5362 27.371 17.4572C27.4499 17.5757 27.5289 17.6941 27.5684 17.7731L29.1483 20.6958L28.3584 21.1303L25.8701 16.5093L26.6205 16.1143L30.0567 17.9706C30.1752 18.0496 30.3331 18.1286 30.4516 18.2076C30.3726 18.0891 30.2936 17.9706 30.2542 17.8521L28.6743 15.0084L29.4642 14.574L31.9525 19.195L31.2415 19.5899Z" fill="#79862F"/>
<path d="M37.166 14.653L39.0223 14.2581L39.1803 15.0875L37.324 15.4824L37.166 14.653Z" fill="#79862F"/>
<path d="M47.3559 16.4303L46.4475 16.3908L46.6844 12.0067L45.1836 11.9277L45.2231 11.0588L49.0937 11.2563L49.0542 12.1252L47.5533 12.0462L47.3559 16.4303Z" fill="#79862F"/>
<path d="M55.0571 15.0479C55.4915 13.8236 56.5579 12.7177 58.1773 13.3101C59.7571 13.9026 59.8361 15.4429 59.4016 16.6673C58.9672 17.8916 57.9008 18.9975 56.2815 18.4051C54.7016 17.8126 54.6226 16.2723 55.0571 15.0479ZM58.4932 16.3118C58.8092 15.4824 58.8092 14.4555 57.8613 14.1C56.9134 13.7446 56.2025 14.6135 55.926 15.3639C55.6495 16.1538 55.61 17.2202 56.5579 17.5757C57.5453 17.9311 58.2168 17.0622 58.4932 16.3118Z" fill="#79862F"/>
<path d="M66.1557 21.6832L64.1019 22.4336L63.2725 21.8017L66.2741 20.6958L66.6296 17.7336L67.459 18.3656L67.222 20.3404L69.0783 19.6294L69.9078 20.2614L67.1036 21.2883L66.7481 24.4479L65.9187 23.816L66.1557 21.6832Z" fill="#79862F"/>
<path d="M74.8452 25.7512L75.3981 26.4621L71.1721 29.6218L70.6191 28.9109L74.8452 25.7512Z" fill="#79862F"/>
<path d="M76.7403 33.8085C77.8462 33.374 79.4655 33.3345 80.058 34.8749C80.4134 35.8228 80.137 36.5732 79.7025 37.0076L79.0706 36.3757C79.347 35.9807 79.4655 35.6648 79.268 35.1908C78.9126 34.2824 77.8462 34.4009 77.0958 34.6774C76.2664 34.9933 75.5159 35.7043 75.8319 36.5337C75.9899 36.9681 76.3849 37.1261 76.8193 37.2051V38.1135C76.0294 38.074 75.358 37.7186 75.0025 36.8497C74.4101 35.3488 75.5159 34.2824 76.7403 33.8085Z" fill="#79862F"/>
<path d="M12.639 62.4428L14.9297 59.2041C15.0087 59.0856 15.1272 58.9671 15.2062 58.8487C15.0877 58.8882 14.9692 58.9671 14.8507 59.0066L11.7701 60.231L11.4541 59.4016L16.3516 57.4663L16.6675 58.2957L14.4163 61.4554C14.3373 61.5739 14.2188 61.6924 14.1398 61.8108C14.2583 61.7319 14.4163 61.6924 14.4953 61.6529L17.5365 60.468L17.8524 61.2974L12.9549 63.2327L12.639 62.4428Z" fill="#79862F"/>
<path d="M18.7217 67.8932C19.7091 67.0638 21.1705 66.5898 22.2763 67.8932C23.3822 69.1965 22.7108 70.5789 21.6839 71.4083C20.6965 72.2377 19.2352 72.7117 18.1293 71.4083C17.0629 70.1049 17.7343 68.7226 18.7217 67.8932ZM21.0915 70.6974C21.7629 70.1444 22.2763 69.236 21.6049 68.4461C20.9335 67.6562 19.9066 68.0907 19.3142 68.6041C18.6822 69.157 18.1293 70.0654 18.8007 70.8554C19.4721 71.6058 20.499 71.2108 21.0915 70.6974Z" fill="#79862F"/>
<path d="M28.2007 79.5051L28.0427 75.5555C28.0427 75.437 28.0427 75.2395 28.0427 75.1211C28.0032 75.2395 27.9242 75.358 27.8452 75.4765L26.1469 78.3202L25.3965 77.8463L28.0822 73.3438L28.8326 73.7782L28.9906 77.6488C28.9906 77.7673 28.9906 77.9648 28.9906 78.0832C29.0301 77.9648 29.1091 77.8068 29.1881 77.7278L30.8469 74.9236L31.5973 75.437L28.9116 79.9395L28.2007 79.5051Z" fill="#79862F"/>
<path d="M36.4153 80.0186L38.2716 80.4925L38.0741 81.3219L36.2178 80.848L36.4153 80.0186Z" fill="#79862F"/>
<path d="M46.5663 83.8496L45.6578 83.8891L45.5394 79.5051L44.0385 79.5446L43.999 78.6757L47.8696 78.5967L47.9091 79.4656L46.4083 79.5051L46.5663 83.8496Z" fill="#79862F"/>
<path d="M53.8726 80.1764C53.4382 78.9521 53.5567 77.4117 55.176 76.8588C56.7953 76.3059 57.8222 77.4512 58.2567 78.6756C58.6911 79.9 58.5726 81.4403 56.9533 81.9932C55.334 82.5462 54.3071 81.4008 53.8726 80.1764ZM57.3483 78.9916C57.0718 78.1622 56.4004 77.3722 55.4525 77.6882C54.5046 78.0042 54.5046 79.1101 54.7415 79.9C55.018 80.6899 55.6894 81.5193 56.6373 81.2033C57.6247 80.8479 57.6247 79.742 57.3483 78.9916Z" fill="#79862F"/>
<path d="M65.8005 75.0421L66.0375 77.2144L65.2081 77.8463L64.8526 74.6866L62.0879 73.6203L62.9173 72.9883L64.7736 73.6993L64.5761 71.7245L65.4055 71.0925L65.7215 74.0547L68.6837 75.2001L67.8543 75.832L65.8005 75.0421Z" fill="#79862F"/>
<path d="M69.2764 66.8269L69.8293 66.116L74.0159 69.2756L73.4629 69.9866L69.2764 66.8269Z" fill="#79862F"/>
<path d="M75.2791 62.0875C74.1733 61.653 72.9489 60.5471 73.5413 59.0463C73.8968 58.0984 74.6472 57.7429 75.2396 57.7429L75.2791 58.6118C74.8052 58.7303 74.4892 58.8883 74.3312 59.3228C73.9758 60.2312 74.8447 60.8631 75.5951 61.1791C76.4245 61.495 77.4514 61.495 77.7674 60.6656C77.9254 60.2312 77.7674 59.8362 77.4909 59.4807L78.0833 58.8093C78.6363 59.3622 78.9128 60.1127 78.5573 60.9816C78.0044 62.5219 76.464 62.5614 75.2791 62.0875Z" fill="#79862F"/>
<path d="M13.942 48.3033C13.942 48.9747 13.4286 49.4882 12.7571 49.4882C12.0857 49.4882 11.5723 48.9747 11.5723 48.3033C11.5723 47.6319 12.0857 47.1184 12.7571 47.1184C13.3891 47.1184 13.942 47.6713 13.942 48.3033Z" fill="#79862F"/>
<path d="M78.0436 48.3033C78.0436 48.9747 77.5301 49.4882 76.8587 49.4882C76.1873 49.4882 75.6738 48.9747 75.6738 48.3033C75.6738 47.6319 76.1873 47.1184 76.8587 47.1184C77.5301 47.1184 78.0436 47.6713 78.0436 48.3033Z" fill="#79862F"/>
</svg>
