<svg width="94" height="94" viewBox="0 0 94 94" fill="none" xmlns="http://www.w3.org/2000/svg">
<circle cx="47" cy="47" r="46.5" stroke="#AFB695"/>
<path d="M50.6634 40.1294C50.624 34.4815 49.0046 29.4655 46.4769 25.9109C43.9887 29.505 42.4483 34.5605 42.5273 40.2084C42.5668 45.8563 44.1861 50.8722 46.7139 54.4269C49.2021 50.8327 50.7029 45.7773 50.6634 40.1294Z" stroke="#79862F" stroke-miterlimit="10" stroke-linecap="round" stroke-linejoin="round"/>
<path d="M50.6634 40.1294C50.624 34.4815 49.0046 29.4655 46.4769 25.9109C43.9887 29.505 42.4483 34.5605 42.5273 40.2084C42.5668 45.8563 44.1861 50.8722 46.7139 54.4269C49.2021 50.8327 50.7029 45.7773 50.6634 40.1294Z" stroke="#79862F" stroke-miterlimit="10" stroke-linecap="round" stroke-linejoin="round"/>
<path d="M52.1247 43.0521C51.4138 43.763 50.8213 44.5134 50.2289 45.3033C49.6364 48.858 48.3726 52.0176 46.6743 54.4664C46.6743 54.4664 46.6348 54.4269 46.6348 54.3874C46.6348 54.4269 46.6348 54.4664 46.6348 54.5059C50.5448 54.1109 54.6524 52.1361 57.9306 48.779C61.2482 45.3823 63.1045 41.2353 63.4205 37.3252C59.5499 37.6807 55.4423 39.6554 52.1247 43.0521Z" stroke="#79862F" stroke-miterlimit="10" stroke-linecap="round" stroke-linejoin="round"/>
<path d="M56.351 51.0305C55.956 51.07 55.561 51.1095 55.1661 51.149C52.5199 53.0448 49.5972 54.1506 46.793 54.4666C49.3602 56.0464 52.8753 56.9548 56.7064 56.7179C60.577 56.4809 63.9736 55.1775 66.3039 53.2817C63.7367 51.7019 60.2215 50.7935 56.351 51.0305Z" stroke="#79862F" stroke-miterlimit="10" stroke-linecap="round" stroke-linejoin="round"/>
<path d="M46.793 54.4269C46.793 54.4664 46.793 54.4664 46.793 54.4269C47.0299 54.4269 47.2669 54.3874 47.5039 54.3479C47.2669 54.3874 47.0299 54.3874 46.793 54.4269Z" stroke="#79862F" stroke-miterlimit="10" stroke-linecap="round" stroke-linejoin="round"/>
<path d="M55.4425 56.7573C52.0854 56.7573 49.0837 55.8884 46.793 54.4666C47.7409 56.2834 48.8468 58.4161 51.1375 59.5615C53.4678 60.7069 56.5484 60.6674 58.5627 60.3119C57.9308 59.0086 56.8644 57.7842 55.4425 56.7573Z" stroke="#79862F" stroke-miterlimit="10" stroke-linecap="round" stroke-linejoin="round"/>
<path d="M41.1444 42.7757C41.8554 43.4866 42.4478 44.2371 43.0402 45.027C43.6327 48.5816 44.8965 51.7413 46.5949 54.19C46.5949 54.19 46.6343 54.1505 46.6343 54.111C46.6343 54.1505 46.6343 54.19 46.6343 54.2295C42.7243 53.8345 38.6167 51.8598 35.3385 48.5026C32.0209 45.106 30.1646 40.9589 29.8486 37.0488C33.7192 37.4438 37.8268 39.3791 41.1444 42.7757Z" stroke="#79862F" stroke-miterlimit="10" stroke-linecap="round" stroke-linejoin="round"/>
<path d="M36.9188 50.7538C37.3137 50.7933 37.7087 50.8328 38.1036 50.8723C40.7499 52.7681 43.6725 53.874 46.4767 54.1899C43.9095 55.7698 40.3944 56.6782 36.5633 56.4412C32.6927 56.2042 29.2961 54.9009 26.9658 53.0051C29.4936 51.4252 33.0482 50.5563 36.9188 50.7538Z" stroke="#79862F" stroke-miterlimit="10" stroke-linecap="round" stroke-linejoin="round"/>
<path d="M46.4765 54.1901C46.2396 54.1901 46.0026 54.1506 45.7656 54.1111C46.0026 54.1506 46.2396 54.1506 46.4765 54.1901Z" stroke="#79862F" stroke-miterlimit="10" stroke-linecap="round" stroke-linejoin="round"/>
<path d="M37.7876 56.5202C41.1447 56.5202 44.1464 55.6513 46.4372 54.2295C45.4893 56.0463 44.1464 58.1791 41.8162 59.3245C39.4859 60.4698 36.6817 60.4303 34.6279 60.0749C35.2994 58.7715 36.4052 57.5471 37.7876 56.5202Z" stroke="#79862F" stroke-miterlimit="10" stroke-linecap="round" stroke-linejoin="round"/>
<path d="M46.4769 54.2295C46.4769 54.2295 46.4374 54.2295 46.4769 54.2295C46.4374 54.2295 46.4374 54.2295 46.4769 54.2295Z" stroke="#79862F" stroke-miterlimit="10" stroke-linecap="round" stroke-linejoin="round"/>
<path d="M46.6348 63.2741V54.269" stroke="#79862F" stroke-miterlimit="10" stroke-linecap="round" stroke-linejoin="round"/>
<path d="M14.6435 36.6522C13.6166 36.2177 12.6687 35.2698 13.2217 33.8875C13.7746 32.5446 15.1175 32.5051 16.1839 32.9396C17.2108 33.374 18.1587 34.3219 17.6057 35.7043C17.0133 37.0866 15.6704 37.0866 14.6435 36.6522ZM15.8679 33.7295C15.157 33.453 14.2486 33.4135 13.9326 34.2034C13.6166 34.9933 14.3276 35.6648 14.9595 35.9412C15.6309 36.2177 16.5788 36.2572 16.8948 35.4673C17.2503 34.6379 16.4998 34.0059 15.8679 33.7295Z" fill="#79862F"/>
<path d="M16.5791 27.7262L17.764 26.1068C18.4354 25.1984 19.1858 25.2774 19.7783 25.7119C20.2127 26.0278 20.4892 26.6203 20.2917 27.2522L22.3455 27.6077L21.832 28.3186L19.8573 27.9631L19.3043 28.7136L20.7262 29.7799L20.2522 30.4119L16.5791 27.7262ZM19.4228 27.2917C19.7388 26.8968 19.5808 26.5413 19.3043 26.3438C19.0673 26.1463 18.7119 26.0673 18.3959 26.5018L17.6455 27.5287L18.6724 28.2791L19.4228 27.2917Z" fill="#79862F"/>
<path d="M23.4113 23.1051C22.7004 22.2757 22.3449 20.8933 23.4113 20.0244C24.0827 19.4714 24.6752 19.5109 25.2281 19.6689L24.9516 20.4193C24.5962 20.3404 24.2407 20.3009 23.8853 20.5773C23.1743 21.1698 23.5693 22.0387 24.0037 22.5521C24.5172 23.1841 25.3071 23.5395 25.939 22.9866C26.334 22.6706 26.3735 22.1177 26.0575 21.7622L26.018 21.7227L25.4256 22.2362L24.9516 21.7227L26.176 20.6958L26.571 21.1698C27.3214 22.0387 27.1634 22.9866 26.4525 23.6185C25.3861 24.5269 24.2012 24.0135 23.4113 23.1051Z" fill="#79862F"/>
<path d="M32.8116 18.2076L31.1923 19.037L31.3107 20.1034L30.5603 20.4984L30.0469 15.6404L30.7183 15.2849L34.3124 18.5631L33.6015 18.958L32.8116 18.2076ZM31.1923 16.7068C31.0738 16.6278 30.9553 16.4698 30.8368 16.3513C30.8763 16.5093 30.8763 16.7068 30.9158 16.8252L31.0738 18.2866L32.2586 17.6942L31.1923 16.7068Z" fill="#79862F"/>
<path d="M40.5528 16.6276L38.025 14.2579C37.946 14.1789 37.8276 14.0604 37.7486 13.9814C37.7881 14.0604 37.8276 14.2184 37.8276 14.2973L38.499 17.1015L37.7486 17.299L36.7217 12.8755L37.4721 12.7175L39.9208 15.0083C39.9998 15.0873 40.1183 15.2058 40.1973 15.2847C40.1578 15.1663 40.1183 15.0478 40.0788 14.9688L39.4074 12.2041L40.1578 12.0066L41.2242 16.4301L40.5528 16.6276Z" fill="#79862F"/>
<path d="M45.2529 11.4934L46.0428 11.4539L46.2008 15.9959L45.4109 16.0354L45.2529 11.4934Z" fill="#79862F"/>
<path d="M50.5451 13.863C50.703 12.8361 51.414 11.6118 52.7963 11.8092C53.6652 11.9277 54.0997 12.5202 54.2182 12.9941L53.4678 13.1916C53.3098 12.7966 53.1123 12.5991 52.6778 12.5202C51.8484 12.4017 51.4535 13.2311 51.335 13.942C51.2165 14.6924 51.414 15.5613 52.1644 15.6798C52.5593 15.7588 52.8753 15.5613 53.1123 15.2454L53.7837 15.6403C53.4283 16.2328 52.8358 16.5882 52.0459 16.4697C50.703 16.2723 50.3871 14.9689 50.5451 13.863Z" fill="#79862F"/>
<path d="M65.0402 19.1951L63.3024 18.1682L62.315 19.8665L61.6436 19.4716L63.9343 15.522L64.6057 15.9169L63.6578 17.4968L65.3957 18.5237L66.3436 16.9438L67.015 17.3388L64.7242 21.2884L64.0528 20.8934L65.0402 19.1951Z" fill="#79862F"/>
<path d="M71.1221 20.4587L73.2944 22.5125L72.7809 23.0655L71.2011 21.5646L70.4507 22.3545L71.4381 23.2629L70.9246 23.8159L69.9372 22.9075L69.0683 23.8159L70.7667 25.4352L70.2532 25.9882L68.002 23.8554L71.1221 20.4587Z" fill="#79862F"/>
<path d="M74.5981 31.7152L76.6518 30.4119C76.7703 30.3329 77.0073 30.1749 77.1258 30.1354C76.9283 30.1749 76.7308 30.2144 76.5334 30.2539L73.8476 30.6883L75.3485 28.3976C75.4275 28.2396 75.5855 28.0816 75.7039 27.9236C75.625 28.0026 75.388 28.1606 75.2695 28.2396L73.2157 29.543L72.7812 28.8715L76.6123 26.3833L77.0468 27.0547L75.4275 29.5035C75.3485 29.5825 75.2695 29.7009 75.1905 29.7799C75.309 29.7404 75.4275 29.7404 75.546 29.7009L78.4292 29.227L78.8241 29.8589L74.993 32.3472L74.5981 31.7152Z" fill="#79862F"/>
<path d="M81.0361 34.5984L81.668 36.3757C82.0234 37.4421 81.51 38.074 80.8386 38.2715C80.2066 38.469 79.3377 38.311 78.9823 37.2841L78.6268 36.2177L77.0075 36.7707L76.7705 36.0202L81.0361 34.5984ZM80.5621 37.5606C80.8386 37.4816 81.1545 37.2051 80.9571 36.6917L80.5621 35.5858L79.2982 36.0202L79.6932 37.1261C79.8907 37.6001 80.2856 37.6396 80.5621 37.5606Z" fill="#79862F"/>
<path d="M15.1177 57.5851C16.1841 57.1901 17.527 57.2691 18.0404 58.6515C18.5539 60.0338 17.5665 60.9422 16.5001 61.3372C15.4337 61.7322 14.0908 61.6532 13.5774 60.2708C13.0639 58.8885 14.0513 57.98 15.1177 57.5851ZM16.2236 60.5868C16.9345 60.3103 17.6455 59.7574 17.3295 58.9279C17.0135 58.0985 16.0656 58.138 15.3942 58.375C14.6833 58.6515 13.9724 59.2044 14.2883 60.0338C14.6043 60.8237 15.5522 60.8237 16.2236 60.5868Z" fill="#79862F"/>
<path d="M20.4098 63.9043L21.5551 65.5631C22.1871 66.511 21.8316 67.1824 21.2392 67.5774C20.8047 67.8539 20.1728 67.9724 19.6198 67.5379L18.593 69.3547L18.119 68.6438L19.1064 66.906L18.593 66.1161L17.1316 67.1035L16.6182 66.432L20.4098 63.9043ZM19.8568 66.7085C20.1333 67.1429 20.4888 67.1035 20.7652 66.906C21.0022 66.748 21.2392 66.432 20.9232 65.9976L20.2123 64.9707L19.1459 65.6816L19.8568 66.7085Z" fill="#79862F"/>
<path d="M23.1747 71.2111C23.9252 70.3817 25.2285 69.9077 26.2554 70.8161C26.8873 71.4086 26.9268 72.001 26.8084 72.5539L26.0184 72.3565C26.0579 72.001 26.0579 71.6455 25.742 71.3296C25.0705 70.6976 24.2411 71.1716 23.7672 71.685C23.2142 72.2775 22.9378 73.1069 23.5697 73.6598C23.9252 74.0153 24.4781 73.9758 24.7941 73.6203L24.8336 73.5808L24.2411 73.0279L24.7546 72.4749L25.9394 73.5413L25.505 74.0153C24.7151 74.8842 23.7672 74.8447 23.0563 74.2128C22.0294 73.3438 22.3848 72.08 23.1747 71.2111Z" fill="#79862F"/>
<path d="M31.0348 78.5969L29.4549 77.728L28.665 78.4389L27.9541 78.0439L31.6667 74.8843L32.3381 75.2792L31.5877 80.0977L30.8768 79.7028L31.0348 78.5969ZM31.3902 76.4246C31.3902 76.2666 31.4297 76.0692 31.4692 75.9507C31.3507 76.0692 31.2323 76.1876 31.1138 76.2666L30.0079 77.2145L31.1533 77.8465L31.3902 76.4246Z" fill="#79862F"/>
<path d="M38.6178 82.507L37.5514 79.2288C37.5119 79.1103 37.4724 78.9918 37.4724 78.8338C37.4724 78.9523 37.4329 79.0708 37.3934 79.1498L36.643 81.9145L35.8926 81.717L37.1169 77.333L37.8279 77.5305L38.8548 80.7691C38.8943 80.8876 38.9338 81.0061 38.9338 81.1641C38.9338 81.0456 38.9732 80.9271 39.0127 80.8086L39.7632 78.0834L40.5136 78.2809L39.2892 82.6649L38.6178 82.507Z" fill="#79862F"/>
<path d="M44.5025 78.8337L45.2924 78.8732L44.9764 83.4152L44.1865 83.3758L44.5025 78.8337Z" fill="#79862F"/>
<path d="M49.4788 81.1639C49.3603 80.137 49.6763 78.7547 51.0981 78.5967C51.967 78.4782 52.5595 78.9127 52.7965 79.3471L52.125 79.7421C51.8486 79.4261 51.6116 79.2681 51.1771 79.3076C50.3477 79.4261 50.1897 80.3345 50.2687 81.0454C50.3477 81.7958 50.7822 82.5858 51.5721 82.5068C51.967 82.4673 52.204 82.1908 52.362 81.8353L53.1124 82.0328C52.9149 82.7042 52.4805 83.1782 51.6511 83.2967C50.2292 83.4547 49.5973 82.3093 49.4788 81.1639Z" fill="#79862F"/>
<path d="M64.1321 76.8589L62.3943 77.8068L63.3422 79.5446L62.6707 79.9395L60.459 75.9505L61.1304 75.5555L62.0388 77.1748L63.7766 76.2269L62.8682 74.6076L63.5397 74.2126L65.7514 78.2017L65.08 78.5967L64.1321 76.8589Z" fill="#79862F"/>
<path d="M66.7783 71.8825L68.9901 69.8682L69.5035 70.4211L67.8842 71.8825L68.6346 72.7119L69.622 71.8035L70.1355 72.3564L69.1481 73.2648L69.9775 74.1732L71.7153 72.5934L72.2287 73.1463L69.938 75.2396L66.7783 71.8825Z" fill="#79862F"/>
<path d="M77.2045 66.7479L75.1903 65.4051C75.0718 65.3261 74.8348 65.1681 74.7558 65.0891C74.8743 65.2471 74.9928 65.4446 75.1113 65.5631L76.5726 67.8933L73.8869 67.4194C73.7289 67.3799 73.4919 67.3404 73.2945 67.3009C73.4129 67.3404 73.6104 67.4984 73.7684 67.5773L75.7827 68.9202L75.3482 69.5521L71.5566 66.9849L71.9911 66.3135L74.8743 66.8269C74.9928 66.8664 75.1113 66.8664 75.2297 66.9059C75.1508 66.8269 75.0718 66.7084 75.0323 66.6294L73.4919 64.1412L73.9264 63.5093L77.718 66.0765L77.2045 66.7479Z" fill="#79862F"/>
<path d="M75.625 60.0338L76.2569 58.2565C76.6519 57.1901 77.4418 57.0716 78.1132 57.3086C78.7452 57.5456 79.2981 58.217 78.9032 59.2439L78.5082 60.3103L80.1275 60.9027L79.8511 61.6531L75.625 60.0338ZM77.8368 58.059C77.5603 57.98 77.1653 57.98 76.9679 58.454L76.5729 59.5204L77.8368 59.9943L78.2317 58.9279C78.4292 58.454 78.1527 58.138 77.8368 58.059Z" fill="#79862F"/>
<path d="M79.3773 49.1329C80.0316 49.1329 80.5621 48.6024 80.5621 47.9481C80.5621 47.2937 80.0316 46.7632 79.3773 46.7632C78.7229 46.7632 78.1924 47.2937 78.1924 47.9481C78.1924 48.6024 78.7229 49.1329 79.3773 49.1329Z" fill="#79862F"/>
<path d="M14.4857 49.1329C15.14 49.1329 15.6705 48.6024 15.6705 47.9481C15.6705 47.2937 15.14 46.7632 14.4857 46.7632C13.8313 46.7632 13.3008 47.2937 13.3008 47.9481C13.3008 48.6024 13.8313 49.1329 14.4857 49.1329Z" fill="#79862F"/>
</svg>
