<svg width="62" height="57" viewBox="0 0 62 57" fill="none" xmlns="http://www.w3.org/2000/svg">
<path d="M43 20.7412H41C35.4771 20.7412 31 25.2184 31 30.7412V34.7412H33C38.5229 34.7412 43 30.2641 43 24.7412V20.7412Z" stroke="#79862F" stroke-width="2" stroke-miterlimit="10" stroke-linecap="square"/>
<path d="M19 10.7412H21C26.5229 10.7412 31 15.2184 31 20.7412V24.7412H29C23.4771 24.7412 19 20.2641 19 14.7412V10.7412Z" stroke="#79862F" stroke-width="2" stroke-miterlimit="10" stroke-linecap="square"/>
<path d="M31 47.9912V0" stroke="#79862F" stroke-width="2" stroke-miterlimit="10"/>
<path d="M1 55.7412H19C19 53.532 20.7909 51.7412 23 51.7412C23.9974 51.7412 24.8983 52.1194 25.5989 52.7233C26.791 49.803 29.6509 47.7412 33 47.7412C37.4183 47.7412 41 51.3229 41 55.7412H61" stroke="#79862F" stroke-width="2" stroke-miterlimit="10" stroke-linecap="square"/>
</svg>
