<svg width="164" height="102" viewBox="0 0 164 102" fill="none" xmlns="http://www.w3.org/2000/svg">
<path d="M75.752 100H85.688L47.96 0.783998H37.88L0.00800003 100H10.088L20.024 73.648H65.816L75.752 100ZM23.336 65.152L42.92 13.456L62.504 65.152H23.336ZM154.574 32.752V45.712C149.534 36.64 139.166 31.312 127.79 31.312C108.926 31.312 93.662 45.856 93.662 66.304C93.662 86.752 109.07 101.44 127.79 101.44C139.022 101.44 149.534 96.112 154.574 86.896V100H163.79V32.752H154.574ZM128.51 92.656C114.398 92.656 102.878 81.136 102.878 66.16C102.878 51.328 114.398 40.096 128.51 40.096C141.902 40.096 154.574 50.32 154.574 66.592C154.574 82.144 142.478 92.656 128.51 92.656Z" fill="#0A0A12"/>
</svg>
